<svg width="15" height="25" viewBox="0 0 15 25" fill="none" xmlns="http://www.w3.org/2000/svg">
<path fill-rule="evenodd" clip-rule="evenodd" d="M14.7071 18.3431L8.34315 24.7071C7.95262 25.0976 7.31946 25.0976 6.92893 24.7071L0.564972 18.3431C0.174447 17.9526 0.174447 17.3195 0.564972 16.9289C0.955497 16.5384 1.58866 16.5384 1.97919 16.9289L6.63604 21.5858L6.63604 1C6.63604 0.447716 7.08375 4.96478e-07 7.63604 4.61841e-07C8.18832 4.27203e-07 8.63604 0.447716 8.63604 1L8.63604 21.5858L13.2929 16.9289C13.6834 16.5384 14.3166 16.5384 14.7071 16.9289C15.0976 17.3195 15.0976 17.9526 14.7071 18.3431Z" fill="white"/>
</svg>
