<svg width="40" height="40" viewBox="0 0 40 40" fill="none" xmlns="http://www.w3.org/2000/svg">
<path fill-rule="evenodd" clip-rule="evenodd" d="M10.2277 10.1929C10.7158 9.70466 11.5073 9.70458 11.9955 10.1927L20 18.1957L28.0046 10.1927C28.4928 9.70458 29.2842 9.70466 29.7723 10.1929C30.2604 10.6811 30.2604 11.4725 29.7722 11.9606L21.768 19.9633L29.7722 27.966C30.2604 28.4541 30.2604 29.2456 29.7723 29.7338C29.2842 30.222 28.4928 30.2221 28.0046 29.734L20 21.7309L11.9955 29.734C11.5073 30.2221 10.7158 30.222 10.2277 29.7338C9.73962 29.2456 9.73969 28.4541 10.2279 27.966L18.2321 19.9633L10.2279 11.9606C9.73969 11.4725 9.73962 10.6811 10.2277 10.1929Z" fill="#0D4862"/>
</svg>
