<svg width="40" height="40" viewBox="0 0 40 40" fill="none" xmlns="http://www.w3.org/2000/svg">
<path d="M39.4591 14.0384C39.5225 13.6897 39.5145 13.3318 39.4354 12.9863C39.3563 12.6409 39.2079 12.3151 38.9991 12.0287C39.0531 11.7303 39.0376 11.4235 38.9535 11.1322C38.8695 10.8408 38.7193 10.5728 38.5147 10.349C38.233 10.0317 37.8529 9.8181 37.4353 9.74247C35.7359 6.14872 32.4522 3.80872 28.4978 3.80872C26.9354 3.82136 25.3948 4.17744 23.9854 4.85174C22.5759 5.52603 21.3319 6.50203 20.3416 7.71059C20.3001 7.7612 20.248 7.80198 20.1888 7.82998C20.1297 7.85799 20.0651 7.87251 19.9997 7.87251C19.9343 7.87251 19.8697 7.85799 19.8105 7.82998C19.7514 7.80198 19.6993 7.7612 19.6578 7.71059C18.6675 6.50203 17.4235 5.52603 16.014 4.85174C14.6045 4.17744 13.064 3.82136 11.5016 3.80872C7.54438 3.80872 4.25438 6.14653 2.555 9.74434C2.14076 9.82133 1.76395 10.0341 1.48406 10.349C1.27948 10.5728 1.12935 10.8408 1.04539 11.1322C0.961424 11.4236 0.945891 11.7304 1 12.0287C0.791191 12.3151 0.642744 12.6409 0.56367 12.9863C0.484596 13.3318 0.476543 13.6897 0.540001 14.0384C0.257055 14.8765 0.300122 15.7904 0.660626 16.5981C0.681251 17.4731 1.12563 18.4284 1.85063 19.4053C2.16892 20.6701 2.59528 21.9053 3.125 23.0972C3.07816 23.1282 3.03329 23.1621 2.99063 23.1987C2.80298 23.3631 2.66854 23.5797 2.60443 23.8208C2.54031 24.0619 2.54943 24.3166 2.63063 24.5525C3.64281 27.5168 5.55344 29.5665 8.30875 30.6462C8.65719 30.7828 9.01469 30.8987 9.3775 31.0009C14.0003 34.7197 17.7869 35.8162 19.3303 36.1259C19.7737 36.2156 20.2306 36.2156 20.6741 36.1259C22.2163 35.8165 26 34.7165 30.6191 31.0031C30.9841 30.9003 31.3434 30.7843 31.6938 30.6465C34.4491 29.5681 36.3597 27.5184 37.3719 24.5528C37.4531 24.3169 37.4622 24.0622 37.3981 23.8211C37.334 23.58 37.1995 23.3634 37.0119 23.199C36.9687 23.1619 36.9232 23.1275 36.8756 23.0962C37.4078 21.9003 37.8365 20.661 38.1569 19.3918C38.8756 18.4197 39.3191 17.4706 39.3397 16.5984C39.6999 15.7904 39.7425 14.8764 39.4591 14.0384V14.0384ZM11.5028 4.74622C12.9279 4.75923 14.3328 5.08543 15.6179 5.70171C16.9029 6.318 18.0367 7.20929 18.9391 8.31247C19.0675 8.46978 19.2294 8.59657 19.4128 8.68363C19.5963 8.7707 19.7969 8.81586 20 8.81586C20.2031 8.81586 20.4037 8.7707 20.5872 8.68363C20.7706 8.59657 20.9325 8.46978 21.0609 8.31247C21.9634 7.20918 23.0975 6.31785 24.3828 5.70162C25.668 5.08538 27.0731 4.75932 28.4984 4.74653C31.9672 4.74653 34.8716 6.7509 36.4566 9.86778C36.3617 9.91092 36.2709 9.96248 36.1853 10.0218C35.4794 10.514 33.7259 11.4906 32.7434 11.689C32.595 11.7423 32.4325 11.7409 32.285 11.6852C32.1374 11.6295 32.0146 11.523 31.9384 11.385C31.4578 10.7534 31.3197 8.89215 31.4384 7.93809C31.6163 6.51872 30.7416 5.7034 29.8538 5.54653C29.3868 5.45736 28.9035 5.55653 28.5094 5.82239C28.1152 6.08825 27.8422 6.49921 27.75 6.96559C27.6563 7.36997 27.5672 7.77809 27.4766 8.1884C26.5078 12.5668 25.5078 17.0947 20.8928 20.5665C20.6072 20.7815 20.3106 20.9847 20.0059 21.179C19.6988 20.984 19.3969 20.7831 19.1091 20.5665C14.4928 17.0937 13.4922 12.5668 12.5244 8.18747C12.4338 7.77684 12.3438 7.36903 12.2509 6.96465C12.1591 6.49792 11.8861 6.08657 11.4917 5.82057C11.0974 5.55458 10.6137 5.4556 10.1466 5.54528C9.25875 5.70153 8.38406 6.51747 8.56188 7.93684C8.68156 8.8909 8.54344 10.7522 8.06188 11.3837C7.98562 11.5218 7.86271 11.6282 7.71516 11.6839C7.56761 11.7396 7.40504 11.741 7.25656 11.6878C6.27438 11.4906 4.52094 10.5128 3.81531 10.0206C3.72925 9.96059 3.63807 9.90831 3.54281 9.86434C5.12906 6.74997 8.03375 4.74622 11.5028 4.74622ZM2.27188 18.3556C2.41854 18.4372 2.57191 18.5061 2.73031 18.5615C2.84809 18.6014 2.97689 18.5929 3.08838 18.5379C3.19988 18.4828 3.28494 18.3857 3.32484 18.2679C3.36475 18.1502 3.35624 18.0214 3.30118 17.9099C3.24612 17.7984 3.14902 17.7133 3.03125 17.6734C2.38054 17.4188 1.85153 16.9254 1.55219 16.294C1.42345 16.0265 1.34164 15.7389 1.31031 15.4437C1.88943 16.0188 2.57902 16.4706 3.3375 16.7718C3.39493 16.7967 3.45675 16.8098 3.51933 16.8104C3.58191 16.811 3.64398 16.7991 3.70187 16.7753C3.75976 16.7515 3.8123 16.7164 3.8564 16.672C3.9005 16.6276 3.93526 16.5748 3.95863 16.5168C3.98201 16.4587 3.99352 16.3966 3.99249 16.334C3.99146 16.2714 3.97791 16.2097 3.95264 16.1524C3.92737 16.0952 3.89089 16.0436 3.84535 16.0006C3.79981 15.9577 3.74614 15.9243 3.6875 15.9025C2.78125 15.5381 1.72906 14.8359 1.48063 13.9575C1.39663 13.6523 1.41418 13.3281 1.53063 13.0337C2.16108 13.7108 2.93245 14.2413 3.79031 14.5878C3.925 14.6518 4.05938 14.7153 4.19313 14.7818C4.30452 14.8371 4.43331 14.8459 4.55116 14.8062C4.66902 14.7665 4.76628 14.6817 4.82156 14.5703C4.87684 14.4589 4.88561 14.3301 4.84594 14.2122C4.80626 14.0944 4.72139 13.9971 4.61 13.9418C4.47125 13.8731 4.33156 13.8068 4.19156 13.7406C3.41947 13.4379 2.72789 12.9607 2.17094 12.3462C1.99681 12.1609 1.90053 11.9158 1.90198 11.6615C1.90343 11.4073 2.00252 11.1633 2.17875 10.98C2.30544 10.8161 2.489 10.7057 2.69314 10.6707C2.89728 10.6356 3.10714 10.6784 3.28125 10.7906C4.0225 11.3078 5.89656 12.3715 7.07406 12.6081C7.3956 12.6958 7.73666 12.6796 8.04841 12.5617C8.36017 12.4438 8.62664 12.2304 8.80969 11.9518C9.53906 10.9943 9.615 8.78872 9.49344 7.82059C9.38406 6.94872 9.86531 6.54747 10.3106 6.46872C10.4246 6.44519 10.5422 6.44493 10.6564 6.46795C10.7705 6.49098 10.8788 6.53681 10.9748 6.6027C11.0707 6.6686 11.1524 6.75319 11.2149 6.85142C11.2774 6.94965 11.3194 7.05948 11.3384 7.17434C11.4303 7.57622 11.52 7.98184 11.6103 8.38997C12.5681 12.7231 13.6534 17.6343 18.5478 21.3153C18.7275 21.4506 18.9138 21.5818 19.1044 21.7097C15.8284 23.4235 12.147 24.2115 8.45656 23.9887C5.72375 22.105 3.375 20.0625 2.27188 18.3556ZM6.44281 23.7125C5.72629 23.5662 5.03031 23.333 4.37031 23.0181C4.27422 22.9715 4.17271 22.9369 4.06813 22.9153C3.79125 22.3068 3.54719 21.6947 3.33469 21.0837C4.30993 22.0294 5.34837 22.9077 6.44281 23.7125V23.7125ZM20.4881 35.2053C20.1665 35.2698 19.8353 35.2698 19.5138 35.2053C18.2113 34.944 15.23 34.0862 11.475 31.4109C12.1228 31.4853 12.7745 31.522 13.4266 31.5209C15.65 31.4879 17.8597 31.1657 20 30.5625C22.1403 31.1658 24.35 31.488 26.5734 31.5209C27.2202 31.5218 27.8665 31.4855 28.5091 31.4122C24.7638 34.0775 21.7881 34.9443 20.4881 35.2053ZM36.4828 24.25C35.5641 26.9409 33.8372 28.799 31.3503 29.7725C28.4784 30.8975 25.0175 30.7412 21.7613 30.0365C23.6768 29.4145 25.5348 28.6275 27.3144 27.6843C28.6581 26.9587 30.275 25.995 31.8831 24.9031C33.3232 24.8159 34.7346 24.4619 36.0453 23.859C36.1005 23.8296 36.1635 23.8182 36.2256 23.8262C36.2876 23.8342 36.3456 23.8613 36.3916 23.9037C36.4406 23.945 36.4758 24.0004 36.4921 24.0624C36.5084 24.1244 36.5052 24.1899 36.4828 24.25V24.25ZM35.9397 22.9137C35.8324 22.9353 35.7284 22.9705 35.63 23.0184C34.9714 23.3322 34.277 23.5646 33.5622 23.7103C34.6613 22.9018 35.7038 22.0191 36.6825 21.0684C36.4666 21.6831 36.2188 22.3012 35.9397 22.9134V22.9137ZM38.4491 16.2943C38.1497 16.9257 37.6207 17.4191 36.97 17.6737C36.9106 17.6925 36.8555 17.7229 36.808 17.7633C36.7605 17.8036 36.7215 17.853 36.6933 17.9085C36.6651 17.9641 36.6482 18.0248 36.6437 18.0869C36.6393 18.1491 36.6472 18.2115 36.6671 18.2705C36.6871 18.3296 36.7186 18.3841 36.7598 18.4308C36.801 18.4775 36.8511 18.5156 36.9073 18.5427C36.9634 18.5698 37.0243 18.5855 37.0865 18.5888C37.1488 18.5921 37.211 18.5829 37.2697 18.5618C37.4289 18.506 37.5831 18.4367 37.7306 18.3547C36.0241 20.9965 31.3438 24.4409 26.8688 26.8597C22.8659 29.0231 14.525 32.0712 8.65 29.7722C6.16281 28.7987 4.4375 26.9406 3.51719 24.25C3.49481 24.1899 3.49156 24.1244 3.5079 24.0624C3.52424 24.0004 3.55936 23.945 3.60844 23.9037C3.65437 23.8611 3.71245 23.8339 3.77457 23.8259C3.83669 23.8179 3.89977 23.8295 3.955 23.859C8.41563 26.0625 16.7569 24.8506 21.455 21.3162C26.3478 17.635 27.4331 12.7237 28.3909 8.39059C28.4813 7.98247 28.5709 7.57809 28.6628 7.17497C28.6818 7.06005 28.7237 6.95015 28.7862 6.85185C28.8486 6.75355 28.9303 6.66888 29.0263 6.60293C29.1223 6.53697 29.2306 6.49108 29.3448 6.46802C29.4589 6.44496 29.5766 6.44519 29.6906 6.46872C30.1359 6.54747 30.6172 6.94872 30.5078 7.82059C30.3863 8.78934 30.4622 10.9943 31.1913 11.9518C31.3745 12.2302 31.641 12.4435 31.9527 12.5614C32.2644 12.6792 32.6053 12.6956 32.9269 12.6081C34.1047 12.3715 35.9788 11.3078 36.72 10.7906C36.8941 10.679 37.1036 10.6365 37.3074 10.6715C37.5112 10.7066 37.6945 10.8166 37.8213 10.98C37.9975 11.1633 38.0966 11.4073 38.098 11.6615C38.0995 11.9158 38.0032 12.1609 37.8291 12.3462C37.2721 12.9607 36.5805 13.4379 35.8084 13.7406C35.6684 13.8068 35.5272 13.8731 35.39 13.9418C35.3348 13.9692 35.2856 14.0072 35.2451 14.0536C35.2047 14.1 35.1737 14.1539 35.1541 14.2122C35.1344 14.2706 35.1265 14.3323 35.1306 14.3937C35.1348 14.4551 35.1511 14.5151 35.1784 14.5703C35.2058 14.6254 35.2438 14.6747 35.2902 14.7151C35.3366 14.7556 35.3905 14.7866 35.4488 14.8062C35.5072 14.8259 35.5689 14.8338 35.6303 14.8296C35.6917 14.8255 35.7517 14.8092 35.8069 14.7818C35.9406 14.7153 36.075 14.6518 36.2097 14.5878C37.0674 14.2413 37.8388 13.7109 38.4694 13.034C38.5855 13.3283 38.6031 13.6524 38.5194 13.9575C38.2694 14.8359 37.2172 15.5381 36.3134 15.9025C36.2551 15.9246 36.2018 15.9581 36.1566 16.0011C36.1114 16.0441 36.0752 16.0956 36.0502 16.1528C36.0252 16.2099 36.0118 16.2715 36.0109 16.3338C36.01 16.3962 36.0215 16.4581 36.0448 16.516C36.0682 16.5738 36.1028 16.6264 36.1467 16.6707C36.1906 16.715 36.2429 16.7501 36.3005 16.774C36.3582 16.7978 36.42 16.8099 36.4824 16.8095C36.5447 16.8091 36.6064 16.7963 36.6638 16.7718C37.4211 16.4709 38.1098 16.0199 38.6884 15.4459C38.6576 15.7402 38.5767 16.027 38.4491 16.294V16.2943Z" fill="#333333"/>
</svg>
