<svg width="40" height="40" viewBox="0 0 40 40" fill="none" xmlns="http://www.w3.org/2000/svg">
<path d="M12.1003 7.36969C12.2454 7.36969 12.3845 7.31207 12.487 7.20951C12.5896 7.10695 12.6472 6.96785 12.6472 6.82281V5.9625H23.1719V8.755H22.9116C21.3318 8.75682 19.8174 9.38517 18.7003 10.5022C17.5833 11.6192 16.9549 13.1337 16.9531 14.7134C16.9531 14.7853 16.9672 14.8564 16.9947 14.9228C17.0221 14.9891 17.0624 15.0494 17.1132 15.1002C17.164 15.151 17.2243 15.1913 17.2907 15.2188C17.357 15.2462 17.4282 15.2604 17.5 15.2603H29.94C30.085 15.2603 30.2241 15.2027 30.3267 15.1001C30.4293 14.9976 30.4869 14.8585 30.4869 14.7134C30.4851 13.1337 29.8567 11.6191 28.7396 10.5021C27.6225 9.38505 26.1079 8.75674 24.5281 8.755H24.2656V5.41563C24.2657 5.3438 24.2516 5.27267 24.2241 5.2063C24.1966 5.13993 24.1563 5.07962 24.1055 5.02883C24.0548 4.97804 23.9944 4.93776 23.9281 4.91029C23.8617 4.88283 23.7906 4.86871 23.7188 4.86875H12.6472V4.01031C12.6472 3.86527 12.5896 3.72617 12.487 3.62361C12.3845 3.52105 12.2454 3.46344 12.1003 3.46344H5.34375V2.03125C5.34375 1.88621 5.28613 1.74711 5.18357 1.64455C5.08101 1.54199 4.94192 1.48438 4.79688 1.48438C4.65183 1.48438 4.51273 1.54199 4.41018 1.64455C4.30762 1.74711 4.25 1.88621 4.25 2.03125V8.80219C4.25 8.94723 4.30762 9.08633 4.41018 9.18889C4.51273 9.29145 4.65183 9.34906 4.79688 9.34906C4.94192 9.34906 5.08101 9.29145 5.18357 9.18889C5.28613 9.08633 5.34375 8.94723 5.34375 8.80219V7.36969H12.1003ZM29.3625 14.1666H18.0775C18.2133 12.9792 18.7808 11.8831 19.6722 11.087C20.5635 10.2908 21.7164 9.85014 22.9116 9.84875H23.7069H23.7188C23.7188 9.84875 23.7269 9.84875 23.7309 9.84875H24.5281C25.7233 9.85013 26.8762 10.2908 27.7676 11.087C28.659 11.8831 29.2266 12.9791 29.3625 14.1666ZM11.5534 4.55719V6.27594H5.34375V4.55719H11.5534Z" fill="#333333"/>
<path d="M23.7188 16.875C23.6469 16.875 23.5758 16.8891 23.5094 16.9165C23.4431 16.944 23.3827 16.9843 23.332 17.0351C23.2812 17.0859 23.2409 17.1462 23.2134 17.2125C23.186 17.2789 23.1718 17.35 23.1719 17.4219V18.3594C23.1719 18.5044 23.2295 18.6435 23.332 18.7461C23.4346 18.8486 23.5737 18.9063 23.7188 18.9063C23.8638 18.9063 24.0029 18.8486 24.1054 18.7461C24.208 18.6435 24.2656 18.5044 24.2656 18.3594V17.4219C24.2657 17.35 24.2515 17.2789 24.2241 17.2125C24.1966 17.1462 24.1563 17.0859 24.1055 17.0351C24.0548 16.9843 23.9944 16.944 23.9281 16.9165C23.8617 16.8891 23.7906 16.875 23.7188 16.875Z" fill="#333333"/>
<path d="M23.7188 33.8563C23.8638 33.8562 24.0028 33.7986 24.1054 33.696C24.2079 33.5935 24.2655 33.4544 24.2656 33.3094V31.55C24.2656 31.405 24.208 31.2659 24.1054 31.1634C24.0029 31.0608 23.8638 31.0032 23.7188 31.0032C23.5737 31.0032 23.4346 31.0608 23.332 31.1634C23.2295 31.2659 23.1719 31.405 23.1719 31.55V33.3094C23.1725 33.4543 23.2304 33.593 23.3328 33.6954C23.4352 33.7978 23.5739 33.8556 23.7188 33.8563Z" fill="#333333"/>
<path d="M23.7188 26.0188C23.5739 26.0195 23.4352 26.0773 23.3328 26.1797C23.2304 26.2821 23.1725 26.4208 23.1719 26.5657V28.325C23.1719 28.4701 23.2295 28.6092 23.332 28.7117C23.4346 28.8143 23.5737 28.8719 23.7188 28.8719C23.8638 28.8719 24.0029 28.8143 24.1054 28.7117C24.208 28.6092 24.2656 28.4701 24.2656 28.325V26.5657C24.2655 26.4207 24.2079 26.2816 24.1054 26.1791C24.0028 26.0765 23.8638 26.0189 23.7188 26.0188Z" fill="#333333"/>
<path d="M24.2653 21.5841C24.2653 21.4391 24.2077 21.3 24.1051 21.1974C24.0026 21.0948 23.8635 21.0372 23.7184 21.0372C23.5734 21.0372 23.4343 21.0948 23.3317 21.1974C23.2292 21.3 23.1716 21.4391 23.1716 21.5841V23.3438C23.1716 23.4888 23.2292 23.6279 23.3317 23.7305C23.4343 23.8331 23.5734 23.8907 23.7184 23.8907C23.8635 23.8907 24.0026 23.8331 24.1051 23.7305C24.2077 23.6279 24.2653 23.4888 24.2653 23.3438V21.5841Z" fill="#333333"/>
<path d="M23.7188 35.9866C23.6469 35.9865 23.5758 36.0006 23.5094 36.0281C23.4431 36.0556 23.3827 36.0959 23.332 36.1467C23.2812 36.1974 23.2409 36.2578 23.2134 36.3241C23.186 36.3905 23.1718 36.4616 23.1719 36.5334V37.4709C23.1719 37.616 23.2295 37.7551 23.332 37.8576C23.4346 37.9602 23.5737 38.0178 23.7188 38.0178C23.8638 38.0178 24.0029 37.9602 24.1054 37.8576C24.208 37.7551 24.2656 37.616 24.2656 37.4709V36.5334C24.2657 36.4616 24.2515 36.3905 24.2241 36.3241C24.1966 36.2578 24.1563 36.1974 24.1055 36.1467C24.0548 36.0959 23.9944 36.0556 23.9281 36.0281C23.8617 36.0006 23.7906 35.9865 23.7188 35.9866Z" fill="#333333"/>
<path d="M30.4472 18.1846L30.2034 17.2784C30.1636 17.1408 30.0714 17.0243 29.9465 16.9539C29.8217 16.8836 29.6743 16.8651 29.5359 16.9024C29.3976 16.9396 29.2794 17.0297 29.2067 17.1532C29.1341 17.2767 29.1128 17.4237 29.1475 17.5628L29.3913 18.469C29.4306 18.6072 29.5228 18.7244 29.6479 18.7952C29.7729 18.8659 29.9208 18.8846 30.0596 18.8472C30.1983 18.8098 30.3168 18.7193 30.3893 18.5953C30.4619 18.4712 30.4826 18.3236 30.4472 18.1843V18.1846Z" fill="#333333"/>
<path d="M33.2125 28.4595L32.725 26.647C32.6847 26.5081 32.5922 26.3902 32.4669 26.318C32.3416 26.2458 32.1932 26.2248 32.0528 26.2595C31.9358 26.2916 31.8326 26.3613 31.7592 26.4579C31.6857 26.5545 31.6461 26.6726 31.6465 26.7939C31.649 26.8404 31.6563 26.8865 31.6684 26.9314L32.1556 28.7439C32.1731 28.8145 32.2046 28.8809 32.2481 28.9393C32.2916 28.9976 32.3463 29.0467 32.409 29.0836C32.4717 29.1205 32.5411 29.1446 32.6132 29.1543C32.6853 29.1641 32.7586 29.1594 32.8289 29.1405C32.8992 29.1216 32.965 29.0888 33.0224 29.0442C33.0799 28.9996 33.1278 28.9439 33.1635 28.8805C33.1992 28.8171 33.2219 28.7472 33.2303 28.6749C33.2386 28.6026 33.2325 28.5294 33.2122 28.4595H33.2125Z" fill="#333333"/>
<path d="M34.5937 33.5971L34.1062 31.7846C34.0667 31.646 33.9748 31.5281 33.8501 31.4559C33.7254 31.3836 33.5774 31.3625 33.4375 31.3971C33.3199 31.4281 33.2159 31.4975 33.1423 31.5943C33.0687 31.6912 33.0296 31.8099 33.0312 31.9315C33.0311 31.978 33.0374 32.0242 33.05 32.069L33.5372 33.8815C33.5771 34.0191 33.6694 34.1355 33.7943 34.2058C33.9191 34.276 34.0665 34.2945 34.2049 34.2573C34.3432 34.2201 34.4614 34.1301 34.5341 34.0066C34.6068 33.8832 34.6282 33.7362 34.5937 33.5971Z" fill="#333333"/>
<path d="M31.775 23.7375C31.8111 23.6752 31.8344 23.6064 31.8435 23.535C31.8527 23.4637 31.8474 23.3912 31.8281 23.3219L31.3406 21.5094C31.3219 21.44 31.2898 21.375 31.246 21.3181C31.2022 21.2611 31.1476 21.2134 31.0854 21.1776C31.0231 21.1417 30.9545 21.1185 30.8832 21.1092C30.812 21.0999 30.7397 21.1047 30.6703 21.1234C30.601 21.1421 30.536 21.1742 30.479 21.218C30.4221 21.2618 30.3744 21.3164 30.3385 21.3786C30.3027 21.4409 30.2794 21.5096 30.2702 21.5808C30.2609 21.652 30.2657 21.7244 30.2844 21.7937L30.7719 23.6062C30.7894 23.6764 30.8209 23.7423 30.8645 23.8C30.9081 23.8577 30.963 23.9059 31.0258 23.9418C31.0885 23.9777 31.1579 24.0006 31.2298 24.009C31.3016 24.0173 31.3744 24.0111 31.4437 23.9906C31.5129 23.9722 31.5777 23.9404 31.6345 23.897C31.6914 23.8536 31.7391 23.7994 31.775 23.7375Z" fill="#333333"/>
<path d="M35.7325 37.8266L35.4885 36.9203C35.4558 36.7984 35.3819 36.6916 35.2794 36.618C35.1768 36.5444 35.0519 36.5087 34.926 36.5169C34.8893 36.5187 34.853 36.5243 34.8175 36.5335C34.8125 36.535 34.8085 36.5385 34.8035 36.54C34.7573 36.5541 34.7133 36.5742 34.6725 36.6C34.6616 36.6069 34.6509 36.6128 34.6413 36.6203C34.6018 36.6486 34.5662 36.682 34.5356 36.7197C34.5269 36.731 34.5194 36.7425 34.5116 36.7541C34.4859 36.7906 34.4649 36.8302 34.4491 36.8719C34.4441 36.8847 34.4406 36.8975 34.4369 36.9106C34.4248 36.9532 34.4179 36.9971 34.4163 37.0413C34.4163 37.0503 34.4122 37.0585 34.4122 37.0678C34.4122 37.0772 34.4144 37.08 34.4147 37.0863C34.4164 37.108 34.4193 37.1296 34.4234 37.151C34.425 37.1692 34.4275 37.1874 34.431 37.2053C34.431 37.2094 34.4344 37.2125 34.4356 37.2166L34.6763 38.11C34.7161 38.2477 34.8083 38.3641 34.9332 38.4345C35.058 38.5048 35.2054 38.5233 35.3438 38.4861C35.4821 38.4488 35.6003 38.3587 35.673 38.2352C35.7456 38.1117 35.7669 37.9647 35.7322 37.8256L35.7325 37.8266Z" fill="#333333"/>
<path d="M26.79 18.8956C26.9339 18.878 27.065 18.804 27.1544 18.6899C27.2438 18.5757 27.2842 18.4308 27.2669 18.2868L27.1537 17.3559C27.1363 17.2119 27.0623 17.0807 26.9481 16.9913C26.8339 16.9018 26.6888 16.8614 26.5448 16.8789C26.4008 16.8964 26.2697 16.9703 26.1802 17.0845C26.0907 17.1987 26.0503 17.3438 26.0678 17.4878L26.1809 18.4184C26.1972 18.551 26.2612 18.673 26.3611 18.7616C26.461 18.8503 26.5899 18.8993 26.7234 18.8996C26.7457 18.8997 26.7679 18.8983 26.79 18.8956Z" fill="#333333"/>
<path d="M28.6594 34.2653C28.8033 34.2473 28.9343 34.1733 29.0239 34.0592C29.1134 33.9451 29.1543 33.8003 29.1375 33.6562L28.9156 31.8499C28.8994 31.7118 28.831 31.5852 28.7244 31.4958C28.6179 31.4064 28.4813 31.3611 28.3424 31.3691C28.2036 31.377 28.0731 31.4377 27.9775 31.5387C27.8819 31.6397 27.8285 31.7734 27.8281 31.9124C27.8276 31.9354 27.8287 31.9584 27.8313 31.9812L28.05 33.7874C28.0666 33.9201 28.1309 34.0421 28.231 34.1307C28.3311 34.2193 28.4601 34.2684 28.5938 34.2687C28.6157 34.2693 28.6376 34.2681 28.6594 34.2653Z" fill="#333333"/>
<path d="M27.4125 24.0181C27.5564 24.0001 27.6874 23.926 27.7769 23.8119C27.8664 23.6979 27.9073 23.553 27.8906 23.409L27.6688 21.6027C27.6601 21.5315 27.6376 21.4627 27.6024 21.4002C27.5671 21.3377 27.52 21.2827 27.4635 21.2385C27.407 21.1942 27.3424 21.1615 27.2733 21.1422C27.2042 21.1229 27.132 21.1174 27.0608 21.126C26.9896 21.1346 26.9207 21.1572 26.8582 21.1924C26.7957 21.2276 26.7408 21.2748 26.6965 21.3313C26.6522 21.3877 26.6195 21.4524 26.6002 21.5215C26.5809 21.5906 26.5754 21.6628 26.5841 21.734L26.8028 23.5402C26.8194 23.6729 26.8838 23.7949 26.9838 23.8835C27.0839 23.9721 27.2129 24.0212 27.3466 24.0215C27.3686 24.0219 27.3906 24.0208 27.4125 24.0181Z" fill="#333333"/>
<path d="M28.0375 29.1442C28.1809 29.1255 28.3112 29.0511 28.4001 28.937C28.489 28.823 28.5294 28.6784 28.5125 28.5348L28.2938 26.7254C28.2775 26.5869 28.2089 26.4599 28.1021 26.3702C27.9953 26.2806 27.8582 26.2351 27.719 26.2431C27.5798 26.2511 27.4489 26.3119 27.353 26.4132C27.2571 26.5144 27.2035 26.6485 27.2031 26.7879C27.2026 26.8108 27.2037 26.8337 27.2063 26.8564L27.4281 28.6658C27.4435 28.7983 27.5071 28.9207 27.6068 29.0094C27.7065 29.0982 27.8353 29.1473 27.9688 29.1473C27.9938 29.1473 28.0153 29.1442 28.0375 29.1442Z" fill="#333333"/>
<path d="M29.54 36.9719C29.5323 36.8998 29.5103 36.8301 29.4753 36.7666C29.4404 36.7031 29.3931 36.6472 29.3364 36.6022C29.2797 36.5571 29.2145 36.5238 29.1448 36.5041C29.0751 36.4844 29.0021 36.4788 28.9302 36.4875C28.8582 36.4963 28.7888 36.5193 28.7258 36.5551C28.6628 36.5909 28.6076 36.6389 28.5633 36.6963C28.5191 36.7537 28.4866 36.8192 28.4679 36.8893C28.4492 36.9593 28.4446 37.0323 28.4544 37.1041L28.5678 38.035C28.5839 38.1675 28.648 38.2895 28.7478 38.3781C28.8477 38.4666 28.9765 38.5155 29.11 38.5156C29.1324 38.5157 29.1547 38.5143 29.1769 38.5116C29.3209 38.494 29.452 38.42 29.5414 38.3058C29.6308 38.1915 29.6712 38.0465 29.6538 37.9025L29.54 36.9719Z" fill="#333333"/>
<path d="M18.0488 18.4683L18.2922 17.562C18.3269 17.423 18.3056 17.2759 18.233 17.1524C18.1603 17.0289 18.0421 16.9389 17.9038 16.9016C17.7654 16.8644 17.618 16.8829 17.4932 16.9532C17.3683 17.0235 17.2761 17.14 17.2363 17.2777L16.9928 18.1839C16.9574 18.3232 16.9782 18.4708 17.0507 18.5948C17.1232 18.7189 17.2417 18.8094 17.3804 18.8468C17.5192 18.8842 17.6671 18.8655 17.7922 18.7947C17.9172 18.724 18.0094 18.6068 18.0488 18.4686V18.4683Z" fill="#333333"/>
<path d="M14.0031 31.3965C13.8632 31.3615 13.7151 31.3823 13.5902 31.4547C13.4654 31.527 13.3736 31.6451 13.3344 31.784L12.8466 33.5965C12.8094 33.7365 12.829 33.8856 12.901 34.0114C12.973 34.1371 13.0917 34.2295 13.2313 34.2683C13.2785 34.2791 13.3266 34.2853 13.375 34.2871C13.4953 34.2863 13.612 34.2461 13.7074 34.1728C13.8028 34.0994 13.8715 33.9969 13.9031 33.8808L14.3906 32.0683C14.4002 32.023 14.4063 31.9771 14.4091 31.9308C14.4095 31.8096 14.37 31.6915 14.2966 31.5949C14.2232 31.4983 14.1201 31.4286 14.0031 31.3965Z" fill="#333333"/>
<path d="M13.025 37.0691C13.025 37.067 13.025 37.0648 13.025 37.0626C13.0248 36.9506 12.9898 36.8414 12.925 36.7501C12.9187 36.741 12.9131 36.7323 12.9062 36.7238C12.8754 36.6852 12.8395 36.6509 12.7994 36.622C12.7891 36.6145 12.7778 36.6082 12.7666 36.6013C12.7271 36.5762 12.6844 36.5566 12.6397 36.5429C12.6337 36.541 12.6291 36.537 12.6231 36.5351C12.5872 36.5259 12.5505 36.5204 12.5134 36.5185C12.4063 36.5122 12.2997 36.5376 12.2068 36.5913C12.1139 36.6451 12.0388 36.725 11.9909 36.821C11.9742 36.8533 11.9609 36.8872 11.9512 36.9223C11.9514 36.9253 11.9514 36.9283 11.9512 36.9313L11.7103 37.8273C11.6901 37.8971 11.684 37.9702 11.6924 38.0424C11.7008 38.1146 11.7235 38.1844 11.7591 38.2477C11.7948 38.311 11.8427 38.3666 11.9001 38.4112C11.9575 38.4558 12.0232 38.4885 12.0934 38.5074C12.1636 38.5263 12.2368 38.531 12.3088 38.5212C12.3809 38.5115 12.4502 38.4875 12.5129 38.4507C12.5755 38.4138 12.6302 38.3649 12.6737 38.3067C12.7172 38.2485 12.7487 38.1822 12.7662 38.1116L13.0097 37.2054C13.0208 37.162 13.0265 37.1174 13.0269 37.0726L13.025 37.0691Z" fill="#333333"/>
<path d="M15.3841 26.2594C15.2441 26.2237 15.0957 26.2443 14.9708 26.3168C14.8458 26.3892 14.7542 26.5077 14.7156 26.6469L14.2281 28.4594C14.1905 28.5995 14.2097 28.7488 14.2818 28.8747C14.3538 29.0007 14.4727 29.093 14.6125 29.1316C14.6594 29.144 14.7077 29.1503 14.7563 29.1503C14.8766 29.1495 14.9933 29.1094 15.0886 29.036C15.184 28.9627 15.2527 28.8602 15.2844 28.7441L15.7719 26.9316C15.7844 26.8868 15.7908 26.8406 15.7906 26.7941C15.7923 26.6724 15.7532 26.5536 15.6795 26.4567C15.6058 26.3598 15.5018 26.2903 15.3841 26.2594Z" fill="#333333"/>
<path d="M16.7687 21.1223C16.6284 21.087 16.4798 21.1077 16.3544 21.18C16.229 21.2524 16.1366 21.3706 16.0969 21.5098L15.6094 23.3223C15.5909 23.3916 15.5862 23.4639 15.5956 23.535C15.6051 23.6062 15.6284 23.6748 15.6644 23.7369C15.7004 23.799 15.7482 23.8534 15.8052 23.897C15.8622 23.9406 15.9272 23.9726 15.9966 23.991C16.0424 24.0044 16.0898 24.0117 16.1375 24.0129H16.1403C16.2603 24.012 16.3766 23.9718 16.4715 23.8984C16.5664 23.8251 16.6346 23.7225 16.6656 23.6066L17.1559 21.7941C17.192 21.6538 17.1717 21.5048 17.0994 21.3792C17.027 21.2537 16.9083 21.1614 16.7687 21.1223Z" fill="#333333"/>
<path d="M20.8956 16.879C20.8243 16.8702 20.752 16.8755 20.6827 16.8947C20.6135 16.9139 20.5487 16.9466 20.4922 16.9909C20.4356 17.0351 20.3883 17.0901 20.353 17.1527C20.3177 17.2153 20.2951 17.2842 20.2866 17.3556L20.1731 18.2865C20.1556 18.4305 20.1959 18.5755 20.2853 18.6897C20.3746 18.8039 20.5057 18.878 20.6497 18.8956C20.6719 18.8983 20.6942 18.8997 20.7166 18.8996C20.8501 18.8995 20.9789 18.8505 21.0788 18.7619C21.1786 18.6733 21.2427 18.5512 21.2587 18.4187L21.3725 17.4881C21.39 17.3441 21.3496 17.199 21.2601 17.0848C21.1707 16.9706 21.0396 16.8966 20.8956 16.879Z" fill="#333333"/>
<path d="M20.3781 21.1253C20.2342 21.1096 20.0899 21.1509 19.976 21.2402C19.8621 21.3296 19.7877 21.46 19.7688 21.6035L19.55 23.4097C19.5325 23.5534 19.5727 23.6982 19.6617 23.8124C19.7507 23.9265 19.8814 24.0007 20.025 24.0188C20.0478 24.0216 20.0708 24.0227 20.0938 24.0222C20.2274 24.0219 20.3564 23.9728 20.4565 23.8842C20.5566 23.7956 20.6209 23.6736 20.6375 23.541L20.8563 21.7347C20.873 21.5906 20.8322 21.4457 20.7427 21.3316C20.6531 21.2175 20.5221 21.1433 20.3781 21.1253Z" fill="#333333"/>
<path d="M19.7563 26.2468C19.6122 26.2301 19.4673 26.271 19.3532 26.3605C19.2391 26.4501 19.1649 26.581 19.1469 26.7249L18.925 28.5343C18.9087 28.6783 18.9497 28.823 19.0392 28.937C19.1287 29.051 19.2594 29.1253 19.4031 29.1437C19.425 29.1437 19.4466 29.1468 19.4688 29.1468C19.6024 29.1464 19.7314 29.0973 19.8315 29.0086C19.9316 28.92 19.9959 28.7979 20.0125 28.6653L20.2313 26.8559C20.2349 26.8332 20.237 26.8104 20.2375 26.7874C20.2359 26.6545 20.1863 26.5266 20.0979 26.4272C20.0095 26.3279 19.8881 26.2638 19.7563 26.2468Z" fill="#333333"/>
<path d="M19.1313 31.3719C18.9873 31.3556 18.8426 31.3966 18.7286 31.4861C18.6146 31.5756 18.5403 31.7063 18.5219 31.85L18.3031 33.6563C18.2858 33.8 18.3261 33.9447 18.4151 34.0589C18.5042 34.173 18.6348 34.2472 18.7784 34.2653C18.8012 34.2683 18.8242 34.2694 18.8472 34.2688C18.9806 34.2687 19.1094 34.2196 19.209 34.1309C19.3087 34.0422 19.3723 33.92 19.3878 33.7875L19.6097 31.9813C19.6123 31.9585 19.6133 31.9355 19.6128 31.9125C19.6118 31.7793 19.5624 31.6511 19.4738 31.5516C19.3852 31.4521 19.2634 31.3883 19.1313 31.3719Z" fill="#333333"/>
<path d="M18.5088 36.495C18.3648 36.4777 18.2198 36.5182 18.1056 36.6077C17.9914 36.6971 17.9174 36.8282 17.8997 36.9722L17.7866 37.9028C17.7691 38.0468 17.8095 38.1918 17.899 38.3059C17.9884 38.4201 18.1195 38.4941 18.2635 38.5116C18.2855 38.5143 18.3078 38.5157 18.33 38.5156C18.4635 38.5154 18.5924 38.4664 18.6923 38.3778C18.7922 38.2892 18.8563 38.1672 18.8725 38.0347L18.9856 37.1038C19.003 36.9598 18.9626 36.8148 18.8732 36.7007C18.7837 36.5866 18.6527 36.5126 18.5088 36.495Z" fill="#333333"/>
</svg>
