<svg width="40" height="40" viewBox="0 0 40 40" fill="none" xmlns="http://www.w3.org/2000/svg">
<g clip-path="url(#clip0_1_1678)">
<path d="M31.0635 30.6576C30.738 30.6576 30.4742 30.9214 30.4742 31.2469C30.4742 31.5724 30.738 31.8362 31.0635 31.8362C31.389 31.8362 31.6528 31.5724 31.6528 31.2469C31.6528 30.9214 31.389 30.6576 31.0635 30.6576Z" fill="#333333"/>
<path d="M17.1458 30.6576C16.8204 30.6576 16.5565 30.9214 16.5565 31.2469C16.5565 31.5724 16.8204 31.8362 17.1458 31.8362C17.4713 31.8362 17.7351 31.5724 17.7351 31.2469C17.7351 30.9214 17.4713 30.6576 17.1458 30.6576Z" fill="#333333"/>
<path d="M33.9255 28.3098C33.7212 28.23 33.0808 28.1962 32.7248 28.2102H31.6495V26.4283H33.6876C34.9764 26.4283 36.0249 25.3798 36.0249 24.091V24.081C36.0249 23.3843 35.7181 22.7582 35.233 22.3296C35.7181 21.901 36.0249 21.2749 36.0249 20.5781C36.0249 19.2893 34.9764 18.2408 33.6876 18.2408H31.6495V16.7015C31.6495 16.3779 31.3872 16.1156 31.0635 16.1156C30.7398 16.1156 30.4776 16.3779 30.4776 16.7015V18.2408H17.7318V16.7015C17.7318 16.3779 17.4695 16.1156 17.1459 16.1156C16.8222 16.1156 16.5599 16.3779 16.5599 16.7015V18.2408H14.5218C13.233 18.2408 12.1845 19.2893 12.1845 20.5782C12.1845 21.1958 12.4256 21.7577 12.8181 22.176C11.9574 23.3003 10.6382 23.9586 9.2 23.9586H8.09586V16.471L10.913 13.579C11.1389 13.3472 11.134 12.9761 10.9022 12.7504C10.6704 12.5245 10.2994 12.5294 10.0737 12.7613L8.09594 14.7916V9.84614C8.09594 9.52247 7.83367 9.26021 7.51 9.26021C7.18633 9.26021 6.92406 9.52247 6.92406 9.84614V18.4875L4.78555 16.2927C4.55961 16.0611 4.18875 16.0564 3.95703 16.2819C3.72523 16.5078 3.72039 16.8788 3.94617 17.1105L6.92406 20.1669V23.9586H5.82031C3.305 23.9586 1.25859 21.9123 1.25859 19.3969V14.5594C1.25859 14.02 1.34367 13.4874 1.51133 12.9765C1.67914 12.4651 1.92609 11.9853 2.24484 11.5509C3.03883 10.4704 3.45852 9.19013 3.45852 7.84841V6.43364C3.45852 5.35177 3.88008 4.3345 4.64555 3.56903C5.41094 2.80356 6.4282 2.38208 7.51008 2.38208C9.74375 2.38208 11.5609 4.19966 11.5609 6.43364V7.84841C11.5609 8.50958 11.6655 9.16497 11.8721 9.79677C12.0785 10.4256 12.382 11.0156 12.7747 11.5508C13.4204 12.4294 13.7617 13.4697 13.7617 14.5593V16.0661C13.7617 16.3898 14.024 16.6521 14.3477 16.6521C14.6713 16.6521 14.9336 16.3898 14.9336 16.0661V14.5593C14.9336 13.2183 14.5136 11.938 13.7193 10.8573C13.4002 10.4223 13.1534 9.94247 12.9858 9.432C12.818 8.91849 12.7328 8.38567 12.7328 7.84833V6.43364C12.7328 3.55341 10.3899 1.21021 7.51008 1.21021C6.11523 1.21021 4.80359 1.75364 3.81687 2.74036C2.83016 3.72716 2.28672 5.03872 2.28672 6.43364V7.84841C2.28672 8.93872 1.9457 9.97896 1.30031 10.8573C0.908047 11.392 0.604453 11.982 0.397969 12.611C0.191406 13.24 0.0867969 13.8956 0.0867969 14.5593V19.3968C0.0867969 22.5583 2.65891 25.1304 5.82039 25.1304H6.92406V28.2188C3.07492 28.4027 0 31.5915 0 35.4854V38.2039C0 38.5275 0.262266 38.7898 0.585938 38.7898C0.909609 38.7898 1.17188 38.5275 1.17188 38.2039V35.4854C1.17188 32.2379 3.72148 29.5756 6.92398 29.3929V33.6978C6.92398 34.0215 7.18625 34.2837 7.50992 34.2837C7.83359 34.2837 8.09586 34.0215 8.09586 33.6978V25.1304H9.2C10.2821 25.1304 11.3105 24.834 12.1938 24.2932C12.2966 25.4876 13.3011 26.4283 14.5218 26.4283H16.5599V28.2102H10.2723C9.94859 28.2102 9.68633 28.4725 9.68633 28.7961C9.68633 29.1198 9.94859 29.3821 10.2723 29.3821H12.8019C12.5916 29.6953 12.4448 30.0578 12.3817 30.4536L12.008 32.7986C11.9487 33.1701 12.0548 33.5473 12.299 33.8335C12.5431 34.1197 12.899 34.2838 13.2752 34.2838H15.8998C15.6129 34.6031 15.382 34.977 15.2266 35.3927L14.2534 37.9989C14.1402 38.3021 14.2941 38.6396 14.5973 38.7528C14.9004 38.8657 15.2379 38.7121 15.3512 38.4089L16.3245 35.8027C16.6638 34.8942 17.5434 34.2838 18.5131 34.2838H29.6963C30.6661 34.2838 31.5456 34.8942 31.8849 35.8027L32.8582 38.4089C32.9462 38.6445 33.1697 38.79 33.4072 38.79C33.4753 38.79 33.5446 38.778 33.6121 38.7528C33.9152 38.6396 34.0693 38.302 33.956 37.9989L32.9827 35.3927C32.8275 34.9769 32.5966 34.6031 32.3097 34.2838H34.9343C35.3105 34.2838 35.6663 34.1197 35.9105 33.8335C36.1546 33.5473 36.2606 33.1701 36.2015 32.7986L35.8277 30.4536C35.8141 30.3683 35.7964 30.2846 35.7753 30.2025C37.5984 31.2593 38.8281 33.2308 38.8281 35.4854V38.2039C38.8281 38.5275 39.0904 38.7898 39.4141 38.7898C39.7377 38.7898 40 38.5275 40 38.2039V35.4854C40 31.8828 37.3677 28.8839 33.9255 28.3098V28.3098ZM13.3563 24.091V24.081C13.3563 23.4383 13.8791 22.9155 14.5218 22.9155H29.8796C30.2033 22.9155 30.4655 22.6533 30.4655 22.3296C30.4655 22.0059 30.2033 21.7436 29.8796 21.7436H14.5218C13.8791 21.7436 13.3563 21.2208 13.3563 20.5781C13.3563 19.9354 13.8791 19.4126 14.5218 19.4126H33.6876C34.3302 19.4126 34.853 19.9354 34.853 20.5782C34.853 21.2208 34.3302 21.7436 33.6876 21.7436H32.6342C32.3105 21.7436 32.0483 22.0059 32.0483 22.3296C32.0483 22.6533 32.3105 22.9155 32.6342 22.9155H33.6876C34.3302 22.9155 34.853 23.4383 34.853 24.081V24.091C34.853 24.7336 34.3302 25.2565 33.6876 25.2565H14.5218C13.8791 25.2565 13.3563 24.7336 13.3563 24.091V24.091ZM17.7318 26.4283H30.4776V28.2102H17.7318V26.4283ZM34.6705 30.6381L35.0442 32.9831C35.0272 33.0105 35.0894 33.0539 34.9343 33.1118H13.2751C13.2507 33.0908 13.1981 33.1454 13.1652 32.9831L13.5389 30.638C13.6548 29.9103 14.2739 29.3821 15.0109 29.3821C15.0109 29.3821 33.3473 29.406 33.6487 29.452C34.1755 29.6172 34.5791 30.0652 34.6705 30.6381Z" fill="#333333"/>
<path d="M31.0635 11.9851C33.3697 11.9851 35.2458 10.109 35.2458 7.80287C35.2458 5.49678 33.3696 3.62061 31.0635 3.62061C28.7574 3.62061 26.8813 5.4967 26.8813 7.80287C26.8813 10.109 28.7574 11.9851 31.0635 11.9851ZM31.0635 4.79248C32.7234 4.79248 34.0739 6.14295 34.0739 7.80287C34.0739 9.46279 32.7234 10.8133 31.0635 10.8133C29.4036 10.8133 28.0531 9.46279 28.0531 7.80287C28.0531 6.14295 29.4036 4.79248 31.0635 4.79248Z" fill="#333333"/>
</g>
<defs>
<clipPath id="clip0_1_1678">
<rect width="40" height="40" fill="white"/>
</clipPath>
</defs>
</svg>
