<svg width="40" height="40" viewBox="0 0 40 40" fill="none" xmlns="http://www.w3.org/2000/svg">
<path d="M24.6252 25.25C24.4065 25.2188 24.1565 25.2188 23.9377 25.2188C23.8127 25.2188 23.5315 25.125 23.5002 24.8437C24.8127 24.75 27.0627 24.2812 30.0002 22.6562C30.1565 22.5625 30.2815 22.375 30.2815 22.1875V13.1562C30.2815 9.625 29.094 6.84375 26.8127 5.03125L27.6877 1.6875C27.7502 1.375 27.594 1 27.1565 1H12.7815C12.469 1 12.1565 1.28125 12.2502 1.6875C12.469 2.53125 13.1565 5.03125 13.1565 5.03125C10.8752 6.8125 9.68771 9.625 9.68771 13.1562V22.1562C9.68771 22.3438 9.78146 22.5312 9.96896 22.625C12.8752 24.2812 15.1252 24.7187 16.469 24.8125C16.4377 25.0312 16.2502 25.1875 16.0315 25.1875C15.7815 25.1875 15.3127 25.2188 15.2815 25.2188C10.5002 25.5938 6.96896 29.5312 7.00021 34.2188V37.4688C7.00021 37.7812 7.25021 38 7.56271 38.0312H32.4377C32.7502 38.0312 32.969 37.7812 33.0002 37.4688V34.25C32.969 31.0625 30.7815 25.75 24.6252 25.25ZM19.969 29.25L16.594 26.1875C17.1877 25.9688 17.5627 25.4062 17.5627 24.75V23.75C19.1252 24.2812 20.844 24.2812 22.4065 23.75V24.75C22.4065 25.375 22.7815 25.9375 23.3752 26.1875L19.969 29.25ZM13.344 13.5625C17.344 13.1875 20.344 12.0938 22.5002 10.2188L22.5315 10.25C23.7502 11.8438 24.5627 12.9375 26.6565 13.4062V16.4062C26.6565 20.0625 23.6877 23.0625 20.0002 23.0625C16.3127 23.0625 13.344 20.0938 13.344 16.4062V13.5625ZM23.5002 23.7188V23.2812C26.094 21.9687 27.719 19.3125 27.719 16.4062V13.5938C28.1565 13.6562 28.6252 13.6875 29.1877 13.6875V21.8438C26.6252 23.2188 24.6565 23.625 23.5002 23.7188ZM26.4377 2.09375L25.1252 7C23.469 6.375 21.7502 6.03125 19.969 6.03125C18.219 6.03125 16.469 6.375 14.8127 7L13.5002 2.09375H26.4377ZM13.469 6.1875L13.9377 7.875C14.0315 8.15625 14.3752 8.375 14.6877 8.21875C16.344 7.5 18.1565 7.09375 19.969 7.09375C21.7815 7.125 23.594 7.5 25.2502 8.21875C25.6252 8.375 25.9377 8.09375 26.0002 7.875L26.469 6.1875C28.1252 7.6875 29.0315 9.875 29.1565 12.5938C26.6565 12.5938 25.1252 12.2812 22.969 9.09375C22.844 8.90625 22.469 8.75 22.1565 9.03125C19.8127 11.375 16.0627 12.5313 10.7815 12.5938C10.9065 9.875 11.8127 7.6875 13.469 6.1875ZM10.7815 13.6875C11.2815 13.6875 11.7815 13.6562 12.2502 13.6562V16.4375C12.2502 19.3438 13.8752 22 16.469 23.3125V23.75C15.2815 23.6562 13.344 23.25 10.7815 21.8438V13.6875ZM8.06271 34.25C8.06271 30.2187 11.094 26.8125 15.1252 26.375L19.1565 30.0312L17.844 31.25C17.719 31.3437 17.6565 31.5 17.6565 31.6562V36.9688H8.06271V34.25ZM31.8752 36.9375H18.7502V31.875L24.8127 26.375H24.844H24.8752C25.3752 26.4375 25.844 26.5312 26.3127 26.6875H26.344C29.6565 27.7187 31.9065 30.7812 31.9065 34.25L31.8752 36.9375Z" fill="#333333"/>
</svg>
