<svg width="1440" height="825" viewBox="0 0 1440 825" fill="none" xmlns="http://www.w3.org/2000/svg">
<g clip-path="url(#clip0_101_7)">
<path d="M890 25H1602.57V822.444H890V25Z" fill="#F7FAFC"/>
<path d="M893.643 27.6987V819.987H1598.87V27.6987H893.643ZM886.298 22.543H1606.16V825.143H886.298V22.543Z" fill="#C9DFED"/>
<path d="M1281.81 558.524H1500.36V825.143H1281.81V558.524Z" fill="#C9DFED"/>
<path d="M990.395 558.524H1208.95V825.143H990.395V558.524Z" fill="#C9DFED"/>
<path d="M1363.81 268.923H1500.36V436.211H1363.81V268.923Z" fill="#96B7D9"/>
<path d="M990.341 268.923H1126.89V436.211H990.341V268.923Z" fill="#96B7D9"/>
<path d="M1177.1 268.923H1313.65V436.211H1177.1V268.923Z" fill="#96B7D9"/>
<path d="M1363.81 108.839H1500.36V221.371H1363.81V108.839Z" fill="#96B7D9"/>
<path d="M990.341 108.839H1126.89V221.371H990.341V108.839Z" fill="#96B7D9"/>
<path d="M1177.1 108.839H1313.65V221.371H1177.1V108.839Z" fill="#96B7D9"/>
<path d="M1438.58 268.923H1392.32L1500.36 375.439V329.86L1438.58 268.923Z" fill="#AAC6E0"/>
<path d="M1231.48 436.266L1177.1 382.624V428.203L1185.27 436.266H1231.48Z" fill="#AAC6E0"/>
<path d="M1015.56 268.923L1126.89 378.73V333.151L1061.82 268.923H1015.56Z" fill="#AAC6E0"/>
<path d="M1480.3 436.266L1363.81 321.413V436.266H1480.3Z" fill="#AAC6E0"/>
<path d="M1309.84 269H1191L1312.86 389.173V272.017L1309.84 269Z" fill="#AAC6E0"/>
<path d="M990.396 303.313V420.47L1006.4 436.266H1125.19L990.396 303.313Z" fill="#AAC6E0"/>
<path d="M1438.58 108.839H1392.32L1500.36 180.49V149.83L1438.58 108.839Z" fill="#AAC6E0"/>
<path d="M1231.48 221.408L1177.1 185.324V215.984L1185.27 221.408H1231.48Z" fill="#AAC6E0"/>
<path d="M1015.56 108.839L1126.89 182.704V152.044L1061.82 108.839H1015.56Z" fill="#AAC6E0"/>
<path d="M1480.3 221.408L1363.81 144.148V221.408H1480.3Z" fill="#AAC6E0"/>
<path d="M1311.67 108.733H1192.83L1314.69 189.571V110.762L1311.67 108.733Z" fill="#AAC6E0"/>
<path d="M990.396 131.973V210.782L1006.4 221.408H1125.19L990.396 131.973Z" fill="#AAC6E0"/>
<path d="M1374.88 279.838V425.351H1489.34V279.838H1374.88ZM1363.81 268.923H1500.36V436.211H1363.81V268.923Z" fill="#C9DFED"/>
<path d="M1001.41 279.838V425.351H1115.87V279.838H1001.41ZM990.396 268.923H1126.95V436.211H990.396V268.923Z" fill="#C9DFED"/>
<path d="M1188.12 279.838V425.351H1302.58V279.838H1188.12ZM1177.1 268.923H1313.65V436.211H1177.1V268.923Z" fill="#C9DFED"/>
<path d="M1374.88 116.181V214.065H1489.34V116.181H1374.88ZM1363.81 108.839H1500.36V221.371H1363.81V108.839Z" fill="#C9DFED"/>
<path d="M1001.41 116.181V214.065H1115.87V116.181H1001.41ZM990.395 108.839H1126.95V221.371H990.395V108.839Z" fill="#C9DFED"/>
<path d="M1188.12 116.181V214.065H1302.58V116.181H1188.12ZM1177.1 108.839H1313.65V221.371H1177.1V108.839Z" fill="#C9DFED"/>
<path d="M1117.74 576.953H1123.55V811.595H1117.74V576.953Z" fill="#F5F5F0"/>
<path d="M1419.18 576.953H1424.99V811.595H1419.18V576.953Z" fill="#F5F5F0"/>
<path d="M1603.47 538.175L1618.11 514.042H874.347L888.983 538.175H1603.47Z" fill="#F7FAFC"/>
<path d="M882.68 518.704L891.67 533.513H1600.79L1609.78 518.704H882.68ZM865.96 509.379H1626.5L1606.21 542.837H886.352L865.96 509.379Z" fill="#C4DCEB"/>
<path d="M830 490.292H1660.7L1646.34 509.379H844.417L830 490.292Z" fill="#CBE0ED"/>
<path d="M1603.47 47.8829L1618.11 23.7495H874.347L888.983 47.8829H1603.47Z" fill="#F7FAFC"/>
<path d="M882.68 28.4117L891.67 43.2208H1600.79L1609.78 28.4117H882.68ZM865.96 19.0874H1626.5L1606.21 52.5451H886.352L865.96 19.0874Z" fill="#C4DCEB"/>
<path d="M830 0H1660.7L1646.34 19.0873H844.417L830 0Z" fill="#CAE0ED"/>
</g>
<path d="M1044.57 552.756C1042.46 554.529 1037.11 589.064 1035.44 605.629C1033.96 620.32 1033.96 638.324 1033.96 638.324L1062.21 605.027C1062.21 605.027 1062.64 537.63 1044.57 552.756Z" fill="#F5F5F0"/>
<path d="M1069.91 643.812L1074.19 608.206L1026 611.084L1026.47 649.903L1069.91 643.812Z" fill="#064058"/>
<path d="M1075.16 787.575C1076.5 787.374 1076.33 790.62 1075.83 790.888C1072.55 792.628 1064.48 792.863 1058.13 793.298C1050.7 793.833 1044.74 794.034 1042.46 792.327C1041.26 791.424 1041.13 789.349 1043.77 788.077C1044.97 787.475 1061.81 786.437 1062.21 786.538C1062.58 786.638 1075.16 787.575 1075.16 787.575Z" fill="#064058"/>
<path d="M1061.87 765.02C1061.61 769.906 1062.98 777.301 1062.11 779.109C1061.77 779.811 1059.06 785.099 1061.04 787.24C1064.08 790.486 1071.75 790.921 1073.72 783.258C1071.71 775.126 1072.18 768.601 1072.18 766.191C1072.15 763.782 1062.01 762.443 1061.87 765.02Z" fill="#E5B48F"/>
<path d="M1075.13 788.579C1074.59 790.453 1047.65 793.498 1043.8 790.988C1041.76 789.65 1043.57 788.144 1045.91 787.174C1048.62 786.036 1055.21 781.016 1057.72 779.878C1059.8 778.975 1061.3 774.892 1062.11 775.628C1062.88 776.298 1063.85 780.581 1063.48 782.221C1063.15 783.794 1063.38 785.199 1064.08 785.4C1068.03 786.605 1072.18 779.912 1073.25 780.246C1074.59 780.648 1075.66 786.672 1075.13 788.579Z" fill="#064058"/>
<path d="M1087.51 762.678C1089.98 769.136 1088.31 778.406 1087.57 780.246C1087.21 781.15 1083.93 791.524 1093.1 788.679C1099.05 786.839 1098.82 782.288 1098.58 781.618C1096.21 775.327 1098.68 765.455 1098.68 763.246C1098.65 760.737 1086.6 760.302 1087.51 762.678Z" fill="#E5B48F"/>
<path d="M1100.96 787.943C1102.13 787.676 1101.7 791.758 1101.4 792.16C1101.09 792.595 1094.8 793.967 1088.11 793.8C1082.05 793.632 1078.17 793.331 1077.7 792.193C1077.43 791.624 1077.84 788.981 1079.01 788.244C1080.04 787.575 1090.08 786.973 1090.42 787.04C1090.72 787.174 1100.96 787.943 1100.96 787.943Z" fill="#064058"/>
<path d="M1089.18 777.201C1087.84 777.235 1085.93 780.213 1084.86 783.325C1083.63 784.63 1081.35 785.099 1080.18 786.873C1079.34 788.077 1078.31 790.252 1078.77 790.821C1080.31 792.829 1100.06 792.494 1100.76 790.687C1101.66 788.311 1099.76 786.136 1099.49 783.827C1099.22 781.685 1099.49 780.615 1098.75 779.477C1098.52 779.142 1097.95 779.343 1097.95 780.012C1097.98 781.485 1098.22 784.095 1096.07 784.396C1094.23 778.941 1091.39 777.134 1089.18 777.201Z" fill="#064058"/>
<path d="M1048.09 624.737C1048.09 624.737 1051.43 654.788 1048.02 693.005C1048.35 695.146 1048.72 697.288 1049.06 699.43C1054.51 732.76 1059.67 762.744 1061.37 770.943C1062.01 774.089 1072.01 772.616 1072.45 769.437C1074.16 757.056 1081.75 731.422 1080.31 719.977C1079.68 714.89 1075.8 705.755 1073.22 699.53C1070.01 691.8 1085.47 648.263 1073.42 614.096C1070.14 604.96 1048.09 624.737 1048.09 624.737Z" fill="#064058"/>
<path d="M1069.94 624.101C1069.94 624.101 1084.03 752.973 1086.7 770.508C1087.17 773.687 1098.35 773.185 1098.95 770.04C1101.29 757.758 1110.23 732.56 1109.39 721.081C1109.03 715.961 1105.65 706.625 1103.4 700.3C1102.23 697.02 1104.61 687.784 1107.05 675.57C1110.5 658.369 1108.42 636.483 1102.4 616.137C1099.59 606.767 1069.94 624.101 1069.94 624.101Z" fill="#064058"/>
<path d="M1046.61 692.436L1111.37 690.194C1111.37 690.194 1105.01 572.566 1117.39 550.446C1120.44 545.025 1109.79 538.466 1098.38 534.149C1090.22 531.071 1081.68 529.13 1077.43 529.565C1073.25 530 1068.37 531.472 1063.61 533.815C1055.15 537.931 1047.15 544.657 1044.54 552.755C1040.49 565.372 1046.61 692.436 1046.61 692.436Z" fill="#F7FAFC"/>
<path d="M1070.71 513.468C1070.71 513.468 1067.6 534.082 1067.73 534.651C1068 535.756 1073.55 530.97 1075.43 532.074C1078.17 533.647 1089.88 537.094 1090.92 534.651C1091.16 534.116 1088.24 511.025 1088.24 511.025L1070.71 513.468Z" fill="#F2C5A3"/>
<path d="M1067.5 508.014C1062.54 503.496 1065.72 500.518 1061.37 497.606C1062.44 497.104 1064.32 497.037 1065.42 497.472C1064.28 495.766 1063.95 493.423 1062.28 492.52C1063.51 492.319 1065.49 492.587 1066.79 493.49C1066.76 491.884 1063.68 490.211 1064.22 488.136C1064.92 489.006 1067.26 490.043 1068.83 490.077C1068.9 489.039 1067.8 486.73 1065.52 485.325C1067.86 485.124 1069.57 485.291 1071.38 486.797C1071.85 485.157 1071.11 483.785 1070.04 482.48C1071.48 482.213 1074.02 482.614 1075.36 485.157C1076.33 484.522 1076.8 481.778 1076.83 479.904C1077.97 480.74 1079.17 483.484 1079.51 484.756C1079.54 483.417 1080.21 480.238 1080.78 479C1082.12 482.38 1085.23 481.577 1085.47 485.76C1085.83 483.852 1089.42 482.681 1090.62 482.045C1089.31 484.856 1089.52 487.634 1089.85 488.002C1090.15 488.303 1092.43 486.998 1092.43 484.22C1094.03 485.827 1095.71 489.006 1093.7 493.992C1094.33 493.959 1096.24 492.252 1096.94 490.177C1097.55 491.081 1098.38 496.033 1096.58 500.752C1097.01 500.752 1097.81 500.216 1098.38 499.648C1096.94 506.541 1093.4 509.185 1091.99 510.758C1090.92 511.962 1088.65 510.992 1087.17 511.327C1083.76 512.13 1080.28 512.699 1076.8 513.134L1067.5 508.014Z" fill="#064058"/>
<path d="M1066.39 499.581C1065.15 501.522 1065.22 507.947 1065.29 510.155C1065.35 512.665 1067.63 523.34 1070.44 524.88C1072.88 526.218 1079.94 526.653 1081.68 525.817C1085.87 523.842 1089.68 516.581 1090.22 512.23C1092.56 512.364 1095.14 500.518 1091.66 502.325C1090.62 502.86 1090.12 505.772 1090.08 506.775C1090.05 507.779 1089.05 509.085 1088.95 508.75C1088.04 506.073 1087.57 500.283 1086.77 499.815C1085.3 498.945 1082.99 500.15 1082.69 502.057C1081.99 501.12 1081.48 499.748 1082.62 498.476C1079.88 497.874 1076.8 498.041 1074.36 502.325C1073.79 501.12 1074.02 498.443 1075.19 497.004C1072.85 497.339 1070.94 499.213 1070.37 501.321C1069.84 499.882 1070.07 498.008 1071.14 496.1C1070.04 496.569 1067.03 498.61 1066.39 499.581Z" fill="#F1C8A9"/>
<path d="M1117.22 546.096C1127.13 561.958 1135.93 603.923 1133.92 611.753C1132.25 618.346 1111.84 626.277 1086.97 624.436C1083.42 624.169 1085.9 605.362 1085.9 605.362C1085.9 605.362 1107.69 603.655 1107.62 597.966C1107.55 592.277 1105.78 588.161 1105.78 581.669C1105.85 575.244 1117.22 546.096 1117.22 546.096Z" fill="#F7FAFC"/>
<path d="M1031.89 650.94C1033.56 651.542 1034.57 649.3 1035.1 649.434C1035.74 649.635 1035.91 651.208 1036.68 651.342C1037.71 651.542 1042.4 650.471 1042.8 650.003C1043.43 649.267 1043.64 645.452 1042.6 645.017C1042.16 644.816 1037.85 643.779 1036.94 644.046C1036.37 644.214 1036.17 647.259 1035.64 647.292C1034.4 647.326 1035.74 644.281 1033.6 644.515C1031.35 644.716 1030.62 650.471 1031.89 650.94Z" fill="#F1C8A9"/>
<path d="M1071.41 605.629C1071.85 604.525 1073.49 604.793 1074.76 605.194C1073.99 604.692 1073.55 603.956 1073.85 602.852C1073.99 602.417 1075.9 603.186 1077.64 603.354C1079.07 603.488 1080.55 602.818 1082.09 603.688C1084.63 605.127 1087.01 608.641 1087.01 608.641L1086.03 615.468C1081.42 619.517 1074.46 617.71 1072.68 616.338C1070.74 614.865 1070.74 607.369 1071.41 605.629Z" fill="#F1C8A9"/>
<path d="M1081.25 606.734C1081.32 606.734 1081.38 606.7 1081.42 606.633C1081.45 606.533 1081.45 606.432 1081.35 606.399C1080.98 606.198 1079.88 606.031 1078.64 605.863C1077.37 605.696 1075.9 605.495 1075.29 605.228C1075.19 605.194 1075.09 605.228 1075.06 605.328C1075.03 605.428 1075.06 605.529 1075.16 605.562C1075.79 605.863 1077.23 606.064 1078.61 606.232C1079.71 606.399 1080.88 606.533 1081.18 606.734C1081.18 606.734 1081.22 606.734 1081.25 606.734Z" fill="#C49370"/>
<path d="M1085.8 605.797C1085.57 605.73 1085.47 605.495 1085.53 605.261C1086 603.889 1090.95 602.751 1101.19 600.944C1103.91 600.476 1106.72 599.974 1107.32 599.706C1107.45 598.869 1106.92 594.486 1106.45 590.604C1106.08 587.592 1105.68 584.48 1105.44 581.769C1105.41 581.535 1105.58 581.334 1105.81 581.301C1106.05 581.267 1106.25 581.435 1106.28 581.669C1106.55 584.379 1106.92 587.492 1107.29 590.47C1108.19 597.665 1108.36 599.706 1108.02 600.208C1107.79 600.576 1106.98 600.743 1101.33 601.747C1096.61 602.584 1086.74 604.358 1086.34 605.495C1086.27 605.663 1086.1 605.797 1085.93 605.797C1085.9 605.83 1085.83 605.83 1085.8 605.797Z" fill="#A3C2DB"/>
<path d="M1090.85 625.239C1096.78 625.239 1106.92 624.336 1108.62 624.101C1108.86 624.068 1109.03 623.867 1108.99 623.633C1108.96 623.399 1108.76 623.231 1108.52 623.265C1105.41 623.7 1088.85 624.938 1087.17 624.101C1085.77 623.399 1084.7 619.35 1084.43 617.877C1084.4 617.643 1084.16 617.509 1083.93 617.542C1083.69 617.576 1083.56 617.81 1083.59 618.044C1083.69 618.647 1084.76 623.867 1086.8 624.871C1087.34 625.139 1088.85 625.239 1090.85 625.239Z" fill="#A3C2DB"/>
<path d="M1043.17 608.641H1043.2C1043.43 608.607 1043.6 608.407 1043.6 608.172C1043.57 607.938 1041.59 583.108 1042.87 571.027C1042.9 570.793 1042.73 570.592 1042.5 570.558C1042.26 570.525 1042.06 570.692 1042.03 570.927C1040.79 583.074 1042.77 607.972 1042.77 608.206C1042.77 608.474 1042.97 608.641 1043.17 608.641Z" fill="#A3C2DB"/>
<path d="M1066.42 564.502C1071.78 566.744 1073.99 567.714 1079.34 564.502C1084.16 561.624 1097.35 542.884 1098.38 534.183C1094.07 532.543 1089.65 531.238 1085.8 530.435C1082.39 529.732 1079.14 531.372 1077.17 531.606C1074.66 531.874 1072.18 530.502 1069.37 531.472C1067.46 532.108 1065.55 532.911 1063.65 533.848C1062.58 540.039 1061.1 551.383 1066.42 564.502Z" fill="#BBD3E6"/>
<path d="M1079.91 535.555C1079.91 535.555 1076.56 542.649 1075.73 544.189C1074.89 545.761 1079.38 562.126 1079.34 564.501C1077.5 566.576 1070.44 571.429 1070.44 571.429C1070.44 571.429 1066.93 566.041 1066.42 564.501C1066.02 559.08 1073.32 544.791 1072.82 542.448C1072.31 540.106 1070.17 534.45 1070.17 534.45L1074.22 531.573H1076.73L1079.91 535.555Z" fill="#064058"/>
<path d="M1090.72 525.515C1092.29 525.515 1095.07 532.61 1094.8 533.614C1094.43 535.12 1084.9 540.942 1082.39 540.942C1081.65 540.942 1076.56 532.476 1075.26 532.376C1073.95 532.242 1070.21 539.905 1068.83 539.47C1067.93 539.169 1065.82 534.584 1065.99 532.777C1066.16 530.97 1067.6 526.887 1068.27 526.754C1068.93 526.62 1073.05 530.97 1075.23 531.238C1077.8 531.572 1089.78 525.515 1090.72 525.515Z" fill="#A9C9E3"/>
<path d="M1071.01 689.357C1071.04 689.357 1071.11 689.357 1071.14 689.324C1071.38 689.257 1071.48 688.989 1071.41 688.788C1070.01 684.839 1069.37 663.322 1069.6 628.251C1069.8 600.442 1070.47 574.206 1070.71 573.068C1071.41 571.897 1085.53 566.677 1090.85 564.736C1093.56 563.732 1094.77 563.297 1095 563.163C1095.17 563.063 1095.27 562.929 1095.3 562.728C1095.41 562.192 1094.84 561.49 1093.6 560.051C1092.73 559.013 1090.92 556.905 1091.29 556.403C1091.69 555.868 1095.1 556.269 1097.15 556.503C1100.63 556.905 1101.86 557.005 1102.2 556.336C1102.37 556.035 1102.53 555.332 1102.87 553.86C1103.67 550.313 1105.21 543.687 1108.02 539.738C1108.16 539.537 1108.12 539.269 1107.92 539.135C1107.72 539.002 1107.45 539.035 1107.32 539.236C1104.41 543.319 1102.87 550.045 1102.03 553.659C1101.8 554.696 1101.56 555.7 1101.46 555.901C1101.13 556.068 1098.89 555.801 1097.25 555.633C1093.56 555.198 1091.26 554.998 1090.62 555.868C1089.85 556.905 1091.42 558.779 1092.96 560.586C1093.5 561.222 1094.23 562.092 1094.4 562.46C1093.87 562.694 1092.33 563.263 1090.55 563.899C1075.66 569.421 1070.24 571.73 1069.91 572.801C1069.6 573.704 1068.93 600.743 1068.73 627.916C1068.57 652.948 1068.73 683.835 1070.57 689.056C1070.67 689.257 1070.84 689.357 1071.01 689.357Z" fill="#A3C2DB"/>
<path d="M1069.14 571.864C1069.3 571.864 1069.47 571.763 1069.54 571.596C1069.64 571.395 1069.54 571.128 1069.34 571.027C1063.88 568.584 1057.96 559.08 1057.93 558.009C1058.03 557.708 1059.43 556.403 1060.33 555.533C1062.14 553.826 1062.61 553.358 1062.64 552.956C1062.64 552.823 1062.58 552.655 1062.48 552.555C1062.14 552.254 1061.37 552.354 1058.43 552.856C1056.89 553.124 1054.55 553.525 1054.04 553.391C1053.57 552.454 1054.08 545.293 1055.48 541.077C1055.55 540.842 1055.45 540.608 1055.21 540.541C1054.98 540.474 1054.75 540.575 1054.68 540.809C1053.34 544.758 1052.44 553.224 1053.51 554.061C1053.94 554.429 1055.11 554.295 1058.56 553.693C1059.53 553.525 1060.77 553.325 1061.47 553.258C1061.07 553.693 1060.33 554.362 1059.73 554.897C1058.03 556.504 1057.19 557.307 1057.06 557.809C1056.69 559.181 1063.58 569.387 1068.97 571.797C1069.04 571.83 1069.1 571.864 1069.14 571.864Z" fill="#A3C2DB"/>
<path d="M1162.81 790.142C1163.23 790.505 1172.79 790.307 1182.04 789.811C1183.13 789.745 1186.14 787.894 1187.2 787.828C1188.26 787.762 1187.36 789.514 1188.35 789.448C1194.57 789.018 1199.43 788.522 1199.43 787.993C1199.2 782.077 1196.65 776.293 1195.53 774.64C1193.28 775.301 1187.43 774.905 1187.16 774.277C1183.53 777.913 1178.11 782.342 1176.75 783.102C1173.51 784.953 1163.37 786.242 1162.81 790.142Z" fill="#064058"/>
<path d="M1176.59 790.472C1176.98 790.869 1186.5 791.497 1194.96 790.373C1196.06 790.241 1199.2 788.753 1200.25 788.787C1201.31 788.82 1200.29 790.472 1201.28 790.472C1207.49 790.505 1212.42 790.34 1212.42 789.844C1212.65 783.928 1210.5 777.946 1209.51 776.26C1207.23 776.756 1201.41 775.929 1201.21 775.268C1197.31 778.64 1191.56 782.639 1190.17 783.3C1186.8 784.886 1177.41 786.605 1176.59 790.472Z" fill="#064058"/>
<path d="M1181.48 509.63C1181.48 497.203 1193.61 491.617 1201.84 496.079C1205.54 498.062 1208.62 504.011 1206.83 507.978C1212.02 503.945 1218.96 507.515 1218.93 514.687C1218.89 521.198 1210.23 532.172 1198.73 528.106C1192.06 525.726 1181.48 517.232 1181.48 509.63Z" fill="#064058"/>
<path d="M1185.02 774.673C1185.31 767.534 1177.84 719.047 1172.26 696.109C1169.55 684.971 1156.95 639.557 1173.81 608.885C1175.13 606.439 1192.02 603.233 1197.28 600.787C1199.46 609.183 1205.87 616.983 1207.62 625.51C1209.87 636.417 1193.15 695.878 1192.39 695.944C1196.12 702.091 1203 710.751 1204.32 718.022C1206.47 729.789 1201.91 759.998 1195.99 775.698C1195.76 776.26 1185.08 776.921 1185.02 774.673Z" fill="#7FC6D7"/>
<path d="M1199.13 776.69C1199.49 769.55 1193.01 719.179 1187.66 696.175C1185.05 685.004 1168.92 627.46 1183.2 608.488C1184.85 606.274 1204.68 608.852 1209.97 606.439C1212.09 614.867 1222.73 626.039 1224.25 634.633C1227.19 651.291 1210.47 679.881 1211.92 696.836C1212.48 703.083 1218.23 711.148 1219.49 718.452C1221.54 730.219 1216.15 762.213 1210.07 777.879C1209.87 778.408 1199.16 778.937 1199.13 776.69Z" fill="#7FC6D7"/>
<path d="M1200.22 540.17C1203.46 541.624 1214.13 549.094 1215.75 552.796C1219.79 562.05 1207.82 591.103 1207.82 601.382C1207.82 607.993 1223.13 624.353 1224.58 630.864C1226.5 639.458 1165.32 641.144 1165.15 639.755C1162.08 611.794 1172.65 604.787 1171.04 586.443C1170.64 581.749 1166.84 573.288 1166.84 567.967C1166.84 557.225 1184.06 545.524 1186.83 542.021C1189.41 538.815 1191.63 536.303 1200.22 540.17Z" fill="#6FB6C8"/>
<path d="M1199.26 519.447C1199.76 527.015 1203.43 540.567 1203.86 543.607C1204.42 547.375 1184.45 554.085 1182.74 553.226C1181.71 552.697 1185.88 544.268 1186.6 542.748C1187.23 541.459 1189.84 531.973 1190.7 521.826C1191.4 513.762 1199.06 516.373 1199.26 519.447Z" fill="#F2C5A4"/>
<path d="M1185.28 503.185C1178.51 514.324 1181.78 529.627 1186.44 531.114C1190.24 532.304 1202.57 527.61 1201.94 518.752C1205.14 518.719 1206.37 515.216 1205.61 513.563C1204.45 511.084 1202.7 513.464 1201.77 513.596C1199.49 505.631 1185.28 503.185 1185.28 503.185Z" fill="#F1C8A9"/>
<path d="M1224.05 582.311C1223.62 597.449 1220.81 609.91 1218.17 617.743C1215.52 625.51 1193.84 649.308 1192.78 650.332C1191.73 651.357 1191.99 642.565 1191.99 642.565C1191.99 642.565 1198.27 616.024 1202.76 609.645C1204.75 606.836 1207.09 572.363 1207.09 572.363L1224.05 582.311Z" fill="#F1C8A9"/>
<path d="M1211.89 548.83C1223.16 551.209 1227.22 579.7 1226.6 582.576C1225.08 589.517 1201.24 589.913 1199.59 585.352C1197.71 580.031 1201.15 546.582 1211.89 548.83Z" fill="#7FC6D7"/>
<path d="M1196.49 646.267C1197.94 654.794 1192.49 656.414 1192.52 658.232C1192.55 660.016 1192.98 664.545 1192.12 665.999C1191.03 667.817 1185.02 659.223 1185.02 656.315C1184.98 650.927 1192.02 642.532 1192.02 642.532L1196.49 646.267Z" fill="#F1C8A9"/>
<path d="M131.333 333.408C63.5258 325.513 -22.3275 433.021 22.0654 582.757C34.9507 626.19 61.1171 652.096 89.8064 664.059C119.377 676.39 151.628 673.908 174.779 660.535C227.563 630.037 253.549 514.995 217.954 462.978C200.63 437.668 179.561 437.668 171.891 410.825C167.29 394.809 175.455 338.506 131.333 333.408Z" fill="#F7FAFC"/>
<path d="M131.333 333.408C63.5258 325.513 -22.3275 433.021 22.0654 582.757C34.9507 626.19 61.1171 652.096 89.8064 664.059C119.377 676.39 151.628 673.908 174.779 660.535C227.563 630.037 253.549 514.995 217.954 462.978C200.63 437.668 179.561 437.668 171.891 410.825C167.29 394.809 175.455 338.506 131.333 333.408Z" fill="#F7FAFC"/>
<path d="M87.6113 659.55C90.8596 625.849 52.4669 591.472 52.4669 572.704C52.4669 553.936 83.6412 493.843 64.7382 460.053C54.024 440.855 30.6989 444.407 14.3064 455C6.9761 506.809 24.8064 637 87.0609 663.5C87.2993 662.187 87.4841 660.869 87.6113 659.55Z" fill="url(#paint0_linear_101_7)"/>
<path d="M143.993 829.725C143.677 829.725 143.316 829.635 143 829.5C141.872 828.958 141.376 827.56 141.917 826.432C168.67 770.67 136.341 698.567 125.288 608.112C117.077 540.846 108.595 471.279 115.543 411.096C115.678 409.832 116.851 408.93 118.069 409.065C119.333 409.201 120.235 410.374 120.1 411.592C113.197 471.234 121.679 540.53 129.844 607.525C140.943 698.657 173.362 771.437 146.023 828.372C145.662 829.229 144.85 829.725 143.993 829.725Z" fill="#C4DCEB"/>
<path d="M117.122 510.619C116.626 510.619 116.084 510.438 115.633 510.077L47.6002 453.729C46.6077 452.917 46.4724 451.473 47.2844 450.481C48.0965 449.488 49.5402 449.353 50.5327 450.165L118.566 506.513C119.558 507.325 119.694 508.769 118.882 509.761C118.43 510.348 117.799 510.619 117.122 510.619Z" fill="#C4DCEB"/>
<path d="M125.874 586.592C125.198 586.592 124.566 586.321 124.07 585.735C123.258 584.742 123.393 583.299 124.386 582.487L206.675 515.356C207.667 514.544 209.111 514.679 209.923 515.672C210.735 516.664 210.6 518.108 209.607 518.92L127.363 586.051C126.912 586.457 126.416 586.592 125.874 586.592Z" fill="#C4DCEB"/>
<path d="M130.07 630.398C129.889 630.398 129.664 630.353 129.483 630.308L79.3159 616.909C78.0978 616.593 77.376 615.33 77.6918 614.112C78.0076 612.894 79.2708 612.172 80.4889 612.488L130.656 625.887C131.875 626.203 132.596 627.466 132.281 628.684C132.01 629.721 131.062 630.398 130.07 630.398Z" fill="#C4DCEB"/>
<path d="M183.576 539.537C182.403 539.537 181.365 538.635 181.275 537.417L176.764 481.655C176.673 480.392 177.621 479.264 178.884 479.174C180.147 479.084 181.275 480.031 181.365 481.294L185.877 537.056C185.967 538.319 185.02 539.447 183.756 539.537C183.711 539.492 183.621 539.537 183.576 539.537Z" fill="#C4DCEB"/>
<path d="M-4.46222 472.407C-39.9675 513.641 -17.4101 584.426 -19.0793 610.503C-20.7035 636.579 -47.9077 666.806 -29.8167 693.784C-11.7257 720.763 16.877 728.117 25.0428 733.034C33.2085 737.952 74.0825 705.605 77.3308 671.904C80.5791 638.203 42.1864 603.826 42.1864 585.058C42.1864 566.29 73.3607 506.197 54.4577 472.407C41.239 448.721 11.8693 453.413 -4.46222 472.407Z" fill="#F7FAFC"/>
<path d="M18.376 830.718C18.2407 830.718 18.1053 830.718 18.0151 830.673C17.1128 830.448 16.5714 829.59 16.797 828.688C16.9775 827.966 24.4564 767.818 23.4638 733.08C23.1932 723.515 22.1104 709.845 20.757 692.567C17.0576 646.008 11.5084 575.674 14.6665 496.814C14.7116 495.911 15.4786 495.19 16.3809 495.235C17.2831 495.28 18.005 496.047 17.9599 496.949C14.8018 575.629 20.351 645.873 24.0053 692.296C25.3588 709.62 26.4414 723.335 26.7572 732.989C27.7498 768.179 20.1805 828.733 20.0001 829.5C19.7745 830.177 19.0979 830.718 18.376 830.718Z" fill="#C4DCEB"/>
<path d="M451.339 525.583C450.934 525.24 450.685 524.804 450.654 524.274L449.906 516.643C449.844 516.144 450 515.615 450.342 515.241C450.685 514.836 451.121 514.587 451.651 514.556L458.036 513.933C458.535 513.87 459.064 514.026 459.438 514.369C459.843 514.711 460.092 515.147 460.123 515.677L460.871 523.309C460.933 523.807 460.778 524.337 460.435 524.71C460.092 525.115 459.656 525.365 459.127 525.396L452.741 526.019C452.679 526.019 452.616 526.019 452.554 526.019C452.118 526.019 451.682 525.863 451.339 525.583ZM459.002 524.087C459.158 524.056 459.314 523.994 459.407 523.869C459.5 523.745 459.563 523.589 459.532 523.402L458.784 515.77C458.753 515.615 458.691 515.459 458.566 515.366C458.441 515.272 458.286 515.21 458.099 515.241L451.713 515.864C451.557 515.895 451.402 515.957 451.308 516.082C451.215 516.207 451.152 516.362 451.184 516.549L451.931 524.181C451.962 524.337 452.025 524.492 452.149 524.586C452.274 524.679 452.43 524.742 452.616 524.71L459.002 524.087Z" fill="#132145"/>
<path d="M380.567 787.582C379.135 789.357 379.384 794.123 380.412 794.933C382.374 796.428 428.476 796.553 427.728 793.874C426.98 791.195 418.383 787.582 414.739 786.99C406.328 785.651 385.925 780.916 380.567 787.582Z" fill="#375173"/>
<path d="M420.781 787.987C419.536 789.98 419.629 794.559 421.311 795.307C423.211 796.148 470.496 796.241 469.531 793.656C468.534 791.071 459.532 788.298 455.949 787.115C442.898 782.909 426.046 779.67 420.781 787.987Z" fill="#375173"/>
<path d="M383.402 633.08C378.2 643.297 373.964 657.345 375.708 667.033C377.484 676.72 383.371 690.208 384.087 691.828C384.399 692.513 384.555 710.393 382.997 730.422C382.592 735.718 374.4 739.487 374.119 745.468C372.967 770.886 380.536 787.675 380.536 787.675L414.77 786.99L419.473 747.337L427.51 726.871L463.145 636.039L383.402 633.08Z" fill="url(#paint1_radial_101_7)"/>
<path d="M394.585 630.899C390.504 641.615 387.451 655.414 390.255 664.852C393.058 674.291 413.337 691.672 414.24 693.199C414.614 693.853 416.794 724.255 417.293 731.668C417.511 735.064 409.941 741.013 410.097 747.555C410.596 771.197 420.782 787.956 420.782 787.956L455.949 787.083C455.949 787.083 454.049 755.093 455.389 744.533C456.074 739.082 460.092 732.696 461.183 723.32C463.83 700.363 462.989 630.868 462.989 630.868H394.585V630.899Z" fill="#486C9A"/>
<path d="M442.898 504.775C434.986 501.66 425.765 506.207 424.395 515.708C422.962 525.645 427.697 537.637 434.238 542.372C438.942 545.767 447.165 547.512 450.872 545.518C463.176 538.852 457.663 510.568 442.898 504.775Z" fill="url(#paint2_radial_101_7)"/>
<path d="M425.298 529.632C427.011 546.951 415.019 563.336 418.726 569.223C422.432 575.079 448.629 572.276 450.81 569.784C452.99 567.261 441.683 550.128 445.795 527.514C448.255 514.213 425.298 529.632 425.298 529.632Z" fill="#E5B48F"/>
<path d="M383.402 636.569C381.876 635.105 379.789 572.681 419.1 549.443C425.049 545.923 440.25 553.711 445.795 556.888C462.834 566.638 479.717 630.931 466.322 646.163C452.554 661.831 398.51 650.96 383.402 636.569Z" fill="#0D4862"/>
<path d="M450.031 525.271C450.031 522.966 448.006 514.431 446.262 514.088C442.088 513.31 442.15 516.611 433.646 517.266C427.105 517.764 424.551 514.742 423.523 517.172C420.377 524.555 423.803 534.709 428.818 537.918C433.74 538.946 440.344 533.619 442.929 529.071C439.44 526.361 441.932 517.39 447.072 525.178C447.913 526.392 450.031 526.237 450.031 525.271Z" fill="white"/>
<path d="M462.46 655.414C464.111 655.289 469.998 657.501 473.829 660.18C477.661 662.89 481.087 664.852 479.125 665.569C477.91 666.005 475.511 664.26 473.705 663.637C471.929 663.015 470.839 662.983 470.59 663.669C470.34 664.354 480.059 672.484 479.467 673.855C478.439 676.191 474.016 671.331 471.929 670.833C469.842 670.335 476.757 676.814 474.951 678.652C474.11 679.493 470.278 674.696 469.78 674.851C469.313 674.976 471.711 678.558 469.936 679.025C468.316 679.43 464.079 672.733 463.02 672.515C461.712 672.235 465.014 676.471 463.425 676.814C460.933 677.406 454.735 663.855 454.703 661.395C454.703 657.47 460.03 655.601 462.46 655.414Z" fill="#E5B48F"/>
<path d="M439.658 560.377C454.361 560.75 449.844 592.492 453.052 621.025C455.544 643.359 463.207 654.729 463.207 657.221C463.207 660.273 454.454 666.192 450.374 667.625C447.539 668.621 421.093 659.277 417.137 633.703C413.025 607.194 423.678 559.972 439.658 560.377Z" fill="#0D4862"/>
<path d="M459.625 648.873C459.812 648.873 460.03 648.81 460.186 648.717C460.746 648.405 460.964 647.689 460.653 647.097C456.604 639.808 455.918 626.445 455.171 612.272C454.112 591.775 452.99 570.594 441.527 563.554C440.966 563.211 440.25 563.398 439.907 563.928C439.565 564.488 439.752 565.205 440.281 565.547C450.716 571.964 451.775 592.492 452.803 612.365C453.551 626.788 454.267 640.431 458.597 648.218C458.815 648.655 459.22 648.873 459.625 648.873Z" fill="#5C55B5"/>
<path d="M422.152 648.873C422.339 648.873 422.557 648.81 422.744 648.717C423.305 648.405 423.492 647.658 423.18 647.097C417.947 638.064 417.355 624.732 417.293 620.869C417.293 620.215 416.763 619.717 416.109 619.717C416.109 619.717 416.109 619.717 416.078 619.717C415.424 619.717 414.894 620.277 414.925 620.9C414.988 624.919 415.611 638.718 421.124 648.281C421.342 648.686 421.747 648.873 422.152 648.873Z" fill="#5C55B5"/>
<path d="M440.904 529.881C440.967 529.881 441.029 529.881 441.06 529.85C441.403 529.757 441.621 529.383 441.527 529.04C441.185 527.763 440.593 524.118 441.808 522.499C442.555 521.658 451.495 518.792 459.656 516.487C459.999 516.393 460.217 516.02 460.124 515.677C460.03 515.334 459.656 515.116 459.314 515.21C455.233 516.362 441.901 520.194 440.78 521.689C438.911 524.15 440.219 529.165 440.281 529.383C440.344 529.694 440.593 529.881 440.904 529.881Z" fill="#132145"/>
<path d="M647.831 770.948C647.925 770.948 647.987 770.948 648.08 770.917C649.17 770.792 649.918 769.795 649.793 768.705C645.09 732.167 642.909 702.481 641.321 680.77C639.109 650.586 637.988 635.416 632.817 631.117C631.602 630.121 630.138 629.684 628.581 629.871C626.961 630.058 625.528 630.899 624.406 632.332C620.855 636.942 621.385 646.754 621.634 648.499C621.79 649.589 622.787 650.306 623.877 650.15C624.967 649.994 625.684 648.997 625.528 647.907C625.279 646.1 625.092 637.846 627.521 634.7C628.113 633.921 628.643 633.796 629.017 633.734C629.515 633.672 629.889 633.796 630.294 634.108C632.817 636.195 634.032 644.917 634.406 647.782C635.527 655.788 636.337 666.908 637.365 680.988C638.953 702.73 641.165 732.509 645.869 769.141C646.024 770.232 646.865 770.948 647.831 770.948Z" fill="#5E88AF"/>
<path d="M580.236 700.955C587.37 730.111 593.475 786.741 593.475 786.741L587.525 787.457C587.525 787.457 553.946 742.695 554.382 728.678C554.818 714.661 561.111 699.242 561.111 699.242L580.236 700.955Z" fill="#E5B48F"/>
<path d="M545.442 698.245C549.056 728.055 545.38 788.953 545.38 788.953H539.399C539.399 788.953 511.396 740.515 513.483 726.653C515.57 712.792 523.669 698.214 523.669 698.214H545.442V698.245Z" fill="#E5B48F"/>
<path d="M575.595 624.171C582.261 652.829 591.886 718.492 592.416 724.629C592.914 730.765 512.517 732.79 511.583 727.681C510.648 722.573 497.752 665.943 500.867 651.645C501.771 647.471 509.62 637.69 509.62 637.69L575.595 624.171Z" fill="#486C9A"/>
<path d="M545.473 534.492C548.557 544.023 552.575 556.047 560.394 556.452C578.087 557.355 576.062 536.983 568.088 522.001C566.188 518.418 543.262 527.67 545.473 534.492Z" fill="url(#paint3_radial_101_7)"/>
<path d="M551.174 544.335C553.23 555.704 529.431 565.766 532.609 571.653C535.786 577.54 570.424 583.303 572.698 581.029C574.972 578.755 556.563 565.485 561.827 540.971C564.568 528.262 551.174 544.335 551.174 544.335Z" fill="#E5B48F"/>
<path d="M569.209 523.06C566.624 513.964 549.897 511.16 543.231 517.39C539.711 520.692 534.135 539.974 553.292 548.851C558.12 548.571 561.889 543.681 563.198 538.821C558.556 534.336 563.198 527.171 566.094 534.18C569.085 531.781 569.926 525.583 569.209 523.06Z" fill="white"/>
<path d="M545.255 518.481C545.941 512.033 539.461 492.564 529.712 497.922C524.011 501.068 522.236 518.574 537.032 527.483C540.583 529.601 544.85 522.281 545.255 518.481Z" fill="white"/>
<path d="M509.62 637.721C510.43 628.065 507.627 572.712 545.286 556.483C545.286 556.483 552.575 561.249 562.886 562.028C573.975 568.133 579.053 589.906 589.924 608.004C594.908 616.321 612.819 627.566 621.354 629.716C623.036 630.152 624.469 637.815 623.472 638.905C618.675 644.231 591.45 639.123 582.136 631.18C582.199 634.793 579.271 637.721 575.688 637.721H509.62Z" fill="#AE376E"/>
<path d="M618.8 630.931C625.279 626.788 628.176 627.193 629.453 627.38C630.73 627.566 633.689 628.812 635.838 628.968C637.988 629.124 636.399 630.899 635.683 631.242C636.461 631.211 638.299 631.709 638.393 633.828C638.517 636.569 634.811 640.369 633.097 641.085C631.353 641.833 623.285 641.241 620.544 638.344C619.08 636.818 618.8 630.931 618.8 630.931Z" fill="#E5B48F"/>
<path d="M580.423 630.619C580.859 630.619 581.233 630.37 581.389 629.934C581.607 629.404 581.327 628.781 580.797 628.563C571.265 624.888 560.456 615.823 555.691 607.444C555.41 606.945 554.756 606.759 554.258 607.039C553.759 607.319 553.572 607.973 553.853 608.472C558.837 617.225 570.113 626.694 580.049 630.495C580.174 630.588 580.299 630.619 580.423 630.619Z" fill="#902F5C"/>
<path d="M539.275 788.703C537.935 789.545 536.315 793.874 537.406 794.715C538.402 795.463 553.479 796.148 555.659 794.466C556.594 793.75 548.838 788.953 545.442 788.33C543.916 788.08 540.552 787.894 539.275 788.703Z" fill="#375173"/>
<path d="M587.557 787.457C586.311 788.33 584.94 792.348 586.093 793.376C586.934 794.154 604.004 794.902 604.253 793.064C604.502 791.226 596.59 787.146 593.506 786.741C592.011 786.554 588.803 786.616 587.557 787.457Z" fill="#375173"/>
<path d="M580.423 595.732C580.641 595.732 580.859 595.669 581.046 595.514C581.513 595.171 581.607 594.517 581.233 594.05C580.579 593.208 579.645 591.589 578.43 589.502C573.352 580.749 564.817 566.139 554.631 567.074C554.04 567.136 553.635 567.635 553.697 568.227C553.759 568.818 554.258 569.223 554.849 569.161C563.727 568.32 572.106 582.773 576.623 590.53C577.869 592.648 578.835 594.33 579.551 595.296C579.8 595.607 580.112 595.732 580.423 595.732Z" fill="#902F5C"/>
<defs>
<linearGradient id="paint0_linear_101_7" x1="40.0001" y1="446" x2="85.0001" y2="674" gradientUnits="userSpaceOnUse">
<stop stop-color="#C4DCEB"/>
<stop offset="1" stop-color="#C4DCEB" stop-opacity="0"/>
</linearGradient>
<radialGradient id="paint1_radial_101_7" cx="0" cy="0" r="1" gradientUnits="userSpaceOnUse" gradientTransform="translate(424.561 733.959) rotate(-177.874) scale(62.7384 94.6067)">
<stop stop-color="#365683"/>
<stop offset="1" stop-color="#486C9A"/>
</radialGradient>
<radialGradient id="paint2_radial_101_7" cx="0" cy="0" r="1" gradientUnits="userSpaceOnUse" gradientTransform="translate(442.692 545.103) rotate(175.94) scale(10.747 10.747)">
<stop stop-color="#DE9E87"/>
<stop offset="1" stop-color="#E5B48F"/>
</radialGradient>
<radialGradient id="paint3_radial_101_7" cx="0" cy="0" r="1" gradientUnits="userSpaceOnUse" gradientTransform="translate(561.495 555.774) rotate(165.647) scale(9.82684 9.82684)">
<stop stop-color="#DE9E87"/>
<stop offset="1" stop-color="#E5B48F"/>
</radialGradient>
<clipPath id="clip0_101_7">
<rect width="1444" height="825.143" fill="white" transform="matrix(-1 0 0 1 2274 0)"/>
</clipPath>
</defs>
</svg>
