<svg width="650" height="492" viewBox="0 0 650 492" fill="none" xmlns="http://www.w3.org/2000/svg">
<path d="M131.333 0.408071C63.5258 -7.48701 -22.3275 100.021 22.0654 249.757C34.9507 293.19 61.1171 319.096 89.8064 331.059C119.377 343.39 151.628 340.908 174.779 327.535C227.563 297.037 253.549 181.995 217.954 129.978C200.63 104.668 179.561 104.668 171.891 77.825C167.29 61.8092 175.455 5.50604 131.333 0.408071Z" fill="#F7FAFC"/>
<path d="M131.333 0.408071C63.5258 -7.48701 -22.3275 100.021 22.0654 249.757C34.9507 293.19 61.1171 319.096 89.8064 331.059C119.377 343.39 151.628 340.908 174.779 327.535C227.563 297.037 253.549 181.995 217.954 129.978C200.63 104.668 179.561 104.668 171.891 77.825C167.29 61.8092 175.455 5.50604 131.333 0.408071Z" fill="#F7FAFC"/>
<path d="M87.6113 326.55C90.8596 292.849 52.4669 258.472 52.4669 239.704C52.4669 220.936 83.6412 160.843 64.7382 127.053C54.024 107.855 30.6989 111.407 14.3064 122C6.9761 173.809 24.8064 304 87.0609 330.5C87.2993 329.187 87.4841 327.869 87.6113 326.55Z" fill="url(#paint0_linear_101_9)"/>
<path d="M143.993 496.725C143.677 496.725 143.316 496.635 143 496.5C141.872 495.958 141.376 494.56 141.917 493.432C168.67 437.67 136.341 365.567 125.288 275.112C117.077 207.846 108.595 138.279 115.543 78.0956C115.678 76.8324 116.851 75.9301 118.069 76.0654C119.333 76.2008 120.235 77.3738 120.1 78.5919C113.197 138.234 121.679 207.53 129.844 274.525C140.943 365.657 173.362 438.437 146.023 495.372C145.662 496.229 144.85 496.725 143.993 496.725Z" fill="#C4DCEB"/>
<path d="M117.122 177.619C116.626 177.619 116.084 177.438 115.633 177.077L47.6002 120.729C46.6077 119.917 46.4724 118.473 47.2844 117.481C48.0965 116.488 49.5402 116.353 50.5327 117.165L118.566 173.513C119.558 174.325 119.694 175.769 118.882 176.761C118.43 177.348 117.799 177.619 117.122 177.619Z" fill="#C4DCEB"/>
<path d="M125.874 253.592C125.198 253.592 124.566 253.321 124.07 252.735C123.258 251.742 123.393 250.299 124.386 249.487L206.675 182.356C207.667 181.544 209.111 181.679 209.923 182.672C210.735 183.664 210.6 185.108 209.607 185.92L127.363 253.051C126.912 253.457 126.416 253.592 125.874 253.592Z" fill="#C4DCEB"/>
<path d="M130.07 297.398C129.889 297.398 129.664 297.353 129.483 297.308L79.3159 283.909C78.0978 283.593 77.376 282.33 77.6918 281.112C78.0076 279.894 79.2708 279.172 80.4889 279.488L130.656 292.887C131.875 293.203 132.596 294.466 132.281 295.684C132.01 296.721 131.062 297.398 130.07 297.398Z" fill="#C4DCEB"/>
<path d="M183.576 206.537C182.403 206.537 181.365 205.635 181.275 204.417L176.764 148.655C176.673 147.392 177.621 146.264 178.884 146.174C180.147 146.084 181.275 147.031 181.365 148.294L185.877 204.056C185.967 205.319 185.02 206.447 183.756 206.537C183.711 206.492 183.621 206.537 183.576 206.537Z" fill="#C4DCEB"/>
<path d="M-4.46222 139.407C-39.9675 180.641 -17.4101 251.426 -19.0793 277.503C-20.7035 303.579 -47.9077 333.806 -29.8167 360.784C-11.7257 387.763 16.877 395.117 25.0428 400.034C33.2085 404.952 74.0825 372.605 77.3308 338.904C80.5791 305.203 42.1864 270.826 42.1864 252.058C42.1864 233.29 73.3607 173.197 54.4577 139.407C41.239 115.721 11.8693 120.413 -4.46222 139.407Z" fill="#F7FAFC"/>
<path d="M18.376 497.718C18.2407 497.718 18.1053 497.718 18.0151 497.673C17.1128 497.448 16.5714 496.59 16.797 495.688C16.9775 494.966 24.4564 434.818 23.4638 400.08C23.1932 390.515 22.1104 376.845 20.757 359.567C17.0576 313.008 11.5084 242.674 14.6665 163.814C14.7116 162.911 15.4786 162.19 16.3809 162.235C17.2831 162.28 18.005 163.047 17.9599 163.949C14.8018 242.629 20.351 312.873 24.0053 359.296C25.3588 376.62 26.4414 390.335 26.7572 399.989C27.7498 435.179 20.1805 495.733 20.0001 496.5C19.7745 497.177 19.0979 497.718 18.376 497.718Z" fill="#C4DCEB"/>
<path d="M451.339 192.583C450.934 192.24 450.685 191.804 450.654 191.274L449.906 183.643C449.844 183.144 450 182.615 450.342 182.241C450.685 181.836 451.121 181.587 451.651 181.556L458.036 180.933C458.535 180.87 459.064 181.026 459.438 181.369C459.843 181.711 460.092 182.147 460.123 182.677L460.871 190.309C460.933 190.807 460.778 191.337 460.435 191.71C460.092 192.115 459.656 192.365 459.127 192.396L452.741 193.019C452.679 193.019 452.616 193.019 452.554 193.019C452.118 193.019 451.682 192.863 451.339 192.583ZM459.002 191.087C459.158 191.056 459.314 190.994 459.407 190.869C459.5 190.745 459.563 190.589 459.532 190.402L458.784 182.77C458.753 182.615 458.691 182.459 458.566 182.366C458.441 182.272 458.286 182.21 458.099 182.241L451.713 182.864C451.557 182.895 451.402 182.957 451.308 183.082C451.215 183.207 451.152 183.362 451.184 183.549L451.931 191.181C451.962 191.337 452.025 191.492 452.149 191.586C452.274 191.679 452.43 191.742 452.616 191.71L459.002 191.087Z" fill="#132145"/>
<path d="M380.567 454.582C379.135 456.357 379.384 461.123 380.412 461.933C382.374 463.428 428.476 463.553 427.728 460.874C426.98 458.195 418.383 454.582 414.739 453.99C406.328 452.651 385.925 447.916 380.567 454.582Z" fill="#375173"/>
<path d="M420.781 454.987C419.536 456.98 419.629 461.559 421.311 462.307C423.211 463.148 470.496 463.241 469.531 460.656C468.534 458.071 459.532 455.298 455.949 454.115C442.898 449.909 426.046 446.67 420.781 454.987Z" fill="#375173"/>
<path d="M383.402 300.08C378.2 310.297 373.964 324.345 375.708 334.033C377.484 343.72 383.371 357.208 384.087 358.828C384.399 359.513 384.555 377.393 382.997 397.422C382.592 402.718 374.4 406.487 374.119 412.468C372.967 437.886 380.536 454.675 380.536 454.675L414.77 453.99L419.473 414.337L427.51 393.871L463.145 303.039L383.402 300.08Z" fill="url(#paint1_radial_101_9)"/>
<path d="M394.585 297.899C390.504 308.615 387.451 322.414 390.255 331.852C393.058 341.291 413.337 358.672 414.24 360.199C414.614 360.853 416.794 391.255 417.293 398.668C417.511 402.064 409.941 408.013 410.097 414.555C410.596 438.197 420.782 454.956 420.782 454.956L455.949 454.083C455.949 454.083 454.049 422.093 455.389 411.533C456.074 406.082 460.092 399.696 461.183 390.32C463.83 367.363 462.989 297.868 462.989 297.868H394.585V297.899Z" fill="#486C9A"/>
<path d="M442.898 171.775C434.986 168.66 425.765 173.207 424.395 182.708C422.962 192.645 427.697 204.637 434.238 209.372C438.942 212.767 447.165 214.512 450.872 212.518C463.176 205.852 457.663 177.568 442.898 171.775Z" fill="url(#paint2_radial_101_9)"/>
<path d="M425.298 196.632C427.011 213.951 415.019 230.336 418.726 236.223C422.432 242.079 448.629 239.276 450.81 236.784C452.99 234.261 441.683 217.128 445.795 194.514C448.255 181.213 425.298 196.632 425.298 196.632Z" fill="#E5B48F"/>
<path d="M383.402 303.569C381.876 302.105 379.789 239.681 419.1 216.443C425.049 212.923 440.25 220.711 445.795 223.888C462.834 233.638 479.717 297.931 466.322 313.163C452.554 328.831 398.51 317.96 383.402 303.569Z" fill="#0D4862"/>
<path d="M450.031 192.271C450.031 189.966 448.006 181.431 446.262 181.088C442.088 180.31 442.15 183.611 433.646 184.266C427.105 184.764 424.551 181.742 423.523 184.172C420.377 191.555 423.803 201.709 428.818 204.918C433.74 205.946 440.344 200.619 442.929 196.071C439.44 193.361 441.932 184.39 447.072 192.178C447.913 193.392 450.031 193.237 450.031 192.271Z" fill="white"/>
<path d="M462.46 322.414C464.111 322.289 469.998 324.501 473.829 327.18C477.661 329.89 481.087 331.852 479.125 332.569C477.91 333.005 475.511 331.26 473.705 330.637C471.929 330.015 470.839 329.983 470.59 330.669C470.34 331.354 480.059 339.484 479.467 340.855C478.439 343.191 474.016 338.331 471.929 337.833C469.842 337.335 476.757 343.814 474.951 345.652C474.11 346.493 470.278 341.696 469.78 341.851C469.313 341.976 471.711 345.558 469.936 346.025C468.316 346.43 464.079 339.733 463.02 339.515C461.712 339.235 465.014 343.471 463.425 343.814C460.933 344.406 454.735 330.855 454.703 328.395C454.703 324.47 460.03 322.601 462.46 322.414Z" fill="#E5B48F"/>
<path d="M439.658 227.377C454.361 227.75 449.844 259.492 453.052 288.025C455.544 310.359 463.207 321.729 463.207 324.221C463.207 327.273 454.454 333.192 450.374 334.625C447.539 335.621 421.093 326.277 417.137 300.703C413.025 274.194 423.678 226.972 439.658 227.377Z" fill="#0D4862"/>
<path d="M459.625 315.873C459.812 315.873 460.03 315.81 460.186 315.717C460.746 315.405 460.964 314.689 460.653 314.097C456.604 306.808 455.918 293.445 455.171 279.272C454.112 258.775 452.99 237.594 441.527 230.554C440.966 230.211 440.25 230.398 439.907 230.928C439.565 231.488 439.752 232.205 440.281 232.547C450.716 238.964 451.775 259.492 452.803 279.365C453.551 293.788 454.267 307.431 458.597 315.218C458.815 315.655 459.22 315.873 459.625 315.873Z" fill="#5C55B5"/>
<path d="M422.152 315.873C422.339 315.873 422.557 315.81 422.744 315.717C423.305 315.405 423.492 314.658 423.18 314.097C417.947 305.064 417.355 291.732 417.293 287.869C417.293 287.215 416.763 286.717 416.109 286.717C416.109 286.717 416.109 286.717 416.078 286.717C415.424 286.717 414.894 287.277 414.925 287.9C414.988 291.919 415.611 305.718 421.124 315.281C421.342 315.686 421.747 315.873 422.152 315.873Z" fill="#5C55B5"/>
<path d="M440.904 196.881C440.967 196.881 441.029 196.881 441.06 196.85C441.403 196.757 441.621 196.383 441.527 196.04C441.185 194.763 440.593 191.118 441.808 189.499C442.555 188.658 451.495 185.792 459.656 183.487C459.999 183.393 460.217 183.02 460.124 182.677C460.03 182.334 459.656 182.116 459.314 182.21C455.233 183.362 441.901 187.194 440.78 188.689C438.911 191.15 440.219 196.165 440.281 196.383C440.344 196.694 440.593 196.881 440.904 196.881Z" fill="#132145"/>
<path d="M647.831 437.948C647.925 437.948 647.987 437.948 648.08 437.917C649.17 437.792 649.918 436.795 649.793 435.705C645.09 399.167 642.909 369.481 641.321 347.77C639.109 317.586 637.988 302.416 632.817 298.117C631.602 297.121 630.138 296.684 628.581 296.871C626.961 297.058 625.528 297.899 624.406 299.332C620.855 303.942 621.385 313.754 621.634 315.499C621.79 316.589 622.787 317.306 623.877 317.15C624.967 316.994 625.684 315.997 625.528 314.907C625.279 313.1 625.092 304.846 627.521 301.7C628.113 300.921 628.643 300.796 629.017 300.734C629.515 300.672 629.889 300.796 630.294 301.108C632.817 303.195 634.032 311.917 634.406 314.782C635.527 322.788 636.337 333.908 637.365 347.988C638.953 369.73 641.165 399.509 645.869 436.141C646.024 437.232 646.865 437.948 647.831 437.948Z" fill="#5E88AF"/>
<path d="M580.236 367.955C587.37 397.111 593.475 453.741 593.475 453.741L587.525 454.457C587.525 454.457 553.946 409.695 554.382 395.678C554.818 381.661 561.111 366.242 561.111 366.242L580.236 367.955Z" fill="#E5B48F"/>
<path d="M545.442 365.245C549.056 395.055 545.38 455.953 545.38 455.953H539.399C539.399 455.953 511.396 407.515 513.483 393.653C515.57 379.792 523.669 365.214 523.669 365.214H545.442V365.245Z" fill="#E5B48F"/>
<path d="M575.595 291.171C582.261 319.829 591.886 385.492 592.416 391.629C592.914 397.765 512.517 399.79 511.583 394.681C510.648 389.573 497.752 332.943 500.867 318.645C501.771 314.471 509.62 304.69 509.62 304.69L575.595 291.171Z" fill="#486C9A"/>
<path d="M545.473 201.492C548.557 211.023 552.575 223.047 560.394 223.452C578.087 224.355 576.062 203.983 568.088 189.001C566.188 185.418 543.262 194.67 545.473 201.492Z" fill="url(#paint3_radial_101_9)"/>
<path d="M551.174 211.335C553.23 222.704 529.431 232.766 532.609 238.653C535.786 244.54 570.424 250.303 572.698 248.029C574.972 245.755 556.563 232.485 561.827 207.971C564.568 195.262 551.174 211.335 551.174 211.335Z" fill="#E5B48F"/>
<path d="M569.209 190.06C566.624 180.964 549.897 178.16 543.231 184.39C539.711 187.692 534.135 206.974 553.292 215.851C558.12 215.571 561.889 210.681 563.198 205.821C558.556 201.336 563.198 194.171 566.094 201.18C569.085 198.781 569.926 192.583 569.209 190.06Z" fill="white"/>
<path d="M545.255 185.481C545.941 179.033 539.461 159.564 529.712 164.922C524.011 168.068 522.236 185.574 537.032 194.483C540.583 196.601 544.85 189.281 545.255 185.481Z" fill="white"/>
<path d="M509.62 304.721C510.43 295.065 507.627 239.712 545.286 223.483C545.286 223.483 552.575 228.249 562.886 229.028C573.975 235.133 579.053 256.906 589.924 275.004C594.908 283.321 612.819 294.566 621.354 296.716C623.036 297.152 624.469 304.815 623.472 305.905C618.675 311.231 591.45 306.123 582.136 298.18C582.199 301.793 579.271 304.721 575.688 304.721H509.62Z" fill="#AE376E"/>
<path d="M618.8 297.931C625.279 293.788 628.176 294.193 629.453 294.38C630.73 294.566 633.689 295.812 635.838 295.968C637.988 296.124 636.399 297.899 635.683 298.242C636.461 298.211 638.299 298.709 638.393 300.828C638.517 303.569 634.811 307.369 633.097 308.085C631.353 308.833 623.285 308.241 620.544 305.344C619.08 303.818 618.8 297.931 618.8 297.931Z" fill="#E5B48F"/>
<path d="M580.423 297.619C580.859 297.619 581.233 297.37 581.389 296.934C581.607 296.404 581.327 295.781 580.797 295.563C571.265 291.888 560.456 282.823 555.691 274.444C555.41 273.945 554.756 273.759 554.258 274.039C553.759 274.319 553.572 274.973 553.853 275.472C558.837 284.225 570.113 293.694 580.049 297.495C580.174 297.588 580.299 297.619 580.423 297.619Z" fill="#902F5C"/>
<path d="M539.275 455.703C537.935 456.545 536.315 460.874 537.406 461.715C538.402 462.463 553.479 463.148 555.659 461.466C556.594 460.75 548.838 455.953 545.442 455.33C543.916 455.08 540.552 454.894 539.275 455.703Z" fill="#375173"/>
<path d="M587.557 454.457C586.311 455.33 584.94 459.348 586.093 460.376C586.934 461.154 604.004 461.902 604.253 460.064C604.502 458.226 596.59 454.146 593.506 453.741C592.011 453.554 588.803 453.616 587.557 454.457Z" fill="#375173"/>
<path d="M580.423 262.732C580.641 262.732 580.859 262.669 581.046 262.514C581.513 262.171 581.607 261.517 581.233 261.05C580.579 260.208 579.645 258.589 578.43 256.502C573.352 247.749 564.817 233.139 554.631 234.074C554.04 234.136 553.635 234.635 553.697 235.227C553.759 235.818 554.258 236.223 554.849 236.161C563.727 235.32 572.106 249.773 576.623 257.53C577.869 259.648 578.835 261.33 579.551 262.296C579.8 262.607 580.112 262.732 580.423 262.732Z" fill="#902F5C"/>
<defs>
<linearGradient id="paint0_linear_101_9" x1="40.0001" y1="113" x2="85.0001" y2="341" gradientUnits="userSpaceOnUse">
<stop stop-color="#C4DCEB"/>
<stop offset="1" stop-color="#C4DCEB" stop-opacity="0"/>
</linearGradient>
<radialGradient id="paint1_radial_101_9" cx="0" cy="0" r="1" gradientUnits="userSpaceOnUse" gradientTransform="translate(424.561 400.959) rotate(-177.874) scale(62.7384 94.6067)">
<stop stop-color="#365683"/>
<stop offset="1" stop-color="#486C9A"/>
</radialGradient>
<radialGradient id="paint2_radial_101_9" cx="0" cy="0" r="1" gradientUnits="userSpaceOnUse" gradientTransform="translate(442.692 212.103) rotate(175.94) scale(10.747 10.747)">
<stop stop-color="#DE9E87"/>
<stop offset="1" stop-color="#E5B48F"/>
</radialGradient>
<radialGradient id="paint3_radial_101_9" cx="0" cy="0" r="1" gradientUnits="userSpaceOnUse" gradientTransform="translate(561.495 222.774) rotate(165.647) scale(9.82684 9.82684)">
<stop stop-color="#DE9E87"/>
<stop offset="1" stop-color="#E5B48F"/>
</radialGradient>
</defs>
</svg>
