<svg width="142" height="62" viewBox="0 0 142 62" fill="none" xmlns="http://www.w3.org/2000/svg">
<path d="M51.7187 32.4736C51.7534 31.9869 51.7708 31.4957 51.771 30.9999C51.7716 29.6801 51.6471 28.3632 51.3992 27.0669C47.7535 27.3964 44.3875 27.0644 41.4617 26.3066C42.1393 28.2188 43.4774 29.7538 45.1675 30.8153C47.0542 32.0018 49.3794 32.597 51.7187 32.4736ZM28.545 51.6267C30.5109 51.8576 32.4995 51.8099 34.4521 51.485C36.0636 48.0438 32.7315 46.4999 28.7682 44.664C27.1988 43.9367 25.5358 43.1663 24.0211 42.2232C23.7533 44.0291 24.0537 46.1286 24.8693 47.9184C25.6463 49.6208 26.8881 51.0349 28.545 51.6267ZM18.5253 47.6079C20.9363 49.424 23.7157 50.6901 26.6682 51.3174C25.6493 50.5283 24.8506 49.4264 24.2844 48.1872C23.3756 46.1915 23.0684 43.8282 23.4312 41.8415C19.6575 39.3015 17.0698 35.5162 19.7335 28.3094C19.2822 28.4159 18.8251 28.4959 18.3645 28.549C15.9742 31.0198 14.9662 34.2179 14.9796 37.4415C14.994 41.1516 16.3589 44.8937 18.5253 47.6079ZM16.3137 45.6871C16.4374 45.8108 16.5626 45.9329 16.6894 46.0534C15.2252 43.5179 14.3475 40.47 14.3346 37.4433C14.322 34.282 15.2484 31.1407 17.4257 28.6189L17.1682 28.626C14.32 28.6712 11.9259 27.7207 10.6099 27.0255C10.3571 28.3352 10.2303 29.666 10.2313 30.9999C10.2295 36.7357 12.5549 41.9283 16.3137 45.6871ZM31.0008 52.4175C25.0864 52.4175 19.732 50.0194 15.8563 46.1445C11.9807 42.2696 9.58301 36.9139 9.58301 30.9999C9.58301 25.0858 11.9812 19.7314 15.8566 15.8552C19.732 11.9791 25.0867 9.58196 31.001 9.58196C36.9154 9.58196 42.2698 11.9801 46.1457 15.8552C47.4065 17.1161 48.5056 18.5289 49.4175 20.0611L49.4216 20.0684C51.3886 23.3747 52.4241 27.1517 52.4183 30.9989C52.4183 31.6062 52.393 32.2073 52.3425 32.802V32.8101C51.9076 38.0019 49.621 42.6669 46.1452 46.143C42.2688 50.0204 36.9148 52.4175 31.0008 52.4175ZM29.7169 35.6634C30.2022 35.8354 30.7201 35.8957 31.232 35.8396C31.7439 35.7836 32.2365 35.6127 32.6731 35.3397C32.5945 35.2956 32.5118 35.2591 32.4263 35.2307C32.2137 35.1606 31.9878 35.1403 31.7661 35.1711C31.7192 35.1779 31.6738 35.1863 31.6311 35.1964C31.5942 35.2052 31.5576 35.2156 31.5218 35.2272L31.4965 35.236C31.3766 35.2779 31.2969 35.309 31.2355 35.3332C31.077 35.3955 30.9947 35.4281 30.8596 35.4236C30.7248 35.4281 30.6423 35.3955 30.484 35.3332C30.4222 35.3079 30.3429 35.2779 30.2227 35.236C30.1808 35.2214 30.1354 35.2085 30.0877 35.1966C30.0471 35.187 30.0016 35.1782 29.9531 35.1714C29.7315 35.1405 29.5058 35.1609 29.2933 35.231C29.2077 35.2592 29.125 35.2958 29.0464 35.34C29.2573 35.472 29.4822 35.5805 29.7169 35.6634ZM30.8596 36.5063C29.9277 36.5052 29.0244 36.1844 28.3004 35.5975C28.2674 35.5708 28.2401 35.5378 28.2198 35.5005C28.1996 35.4632 28.187 35.4223 28.1826 35.38C28.1782 35.3378 28.1822 35.2952 28.1944 35.2545C28.2066 35.2138 28.2267 35.176 28.2535 35.1431L28.276 35.1179C28.5053 34.8908 28.7839 34.7197 29.0901 34.6178C29.3963 34.5159 29.7218 34.4859 30.0415 34.5302C30.1036 34.5388 30.1692 34.5516 30.2379 34.5681H30.2394C30.3046 34.5837 30.369 34.6026 30.4323 34.6249V34.6236C30.5497 34.6642 30.6446 34.7013 30.7188 34.7306C30.7975 34.7617 30.8374 34.7771 30.8415 34.7771H30.8768C30.8811 34.7771 30.9207 34.7617 30.9995 34.7306C31.0737 34.7013 31.1686 34.6642 31.2863 34.6236L31.3143 34.6153C31.3691 34.5971 31.4241 34.5815 31.4791 34.5686C31.5442 34.552 31.6102 34.5392 31.6768 34.5302C31.9967 34.4857 32.3225 34.5155 32.629 34.6174C32.9355 34.7194 33.2143 34.8906 33.4438 35.1179C33.4738 35.1478 33.4975 35.1833 33.5137 35.2224C33.5299 35.2616 33.5383 35.3035 33.5383 35.3458C33.5383 35.3881 33.5299 35.4301 33.5137 35.4692C33.4975 35.5083 33.4738 35.5438 33.4438 35.5738C33.4337 35.5841 33.4228 35.5936 33.4113 35.6023C32.6884 36.1854 31.7879 36.5037 30.8591 36.5045L30.8596 36.5063ZM29.6432 37.8709C29.6068 37.8476 29.5754 37.8171 29.551 37.7814C29.5267 37.7457 29.5097 37.7054 29.5012 37.663C29.4927 37.6206 29.4928 37.5769 29.5016 37.5345C29.5103 37.4922 29.5275 37.452 29.5521 37.4164C29.5767 37.3808 29.6082 37.3505 29.6447 37.3274C29.6812 37.3042 29.7221 37.2887 29.7647 37.2816C29.8074 37.2745 29.8511 37.2762 29.8931 37.2863C29.9351 37.2965 29.9747 37.315 30.0094 37.3408C30.2445 37.5034 30.5499 37.5849 30.8596 37.5849C31.1694 37.5849 31.4748 37.5034 31.7096 37.3408C31.7443 37.3145 31.784 37.2956 31.8262 37.285C31.8684 37.2745 31.9124 37.2726 31.9553 37.2795C31.9983 37.2863 32.0394 37.3019 32.0763 37.3251C32.1131 37.3483 32.1449 37.3787 32.1696 37.4145C32.1944 37.4503 32.2117 37.4907 32.2204 37.5333C32.2291 37.576 32.2291 37.6199 32.2204 37.6626C32.2117 37.7052 32.1945 37.7457 32.1697 37.7815C32.145 37.8173 32.1132 37.8477 32.0764 37.8709C31.7295 38.1112 31.2926 38.2314 30.8596 38.2314C30.4267 38.2314 29.9892 38.1097 29.6432 37.8697V37.8709ZM38.7112 26.0822C38.7449 26.1097 38.7726 26.1438 38.7927 26.1823C38.8129 26.2209 38.825 26.2631 38.8284 26.3065C38.8317 26.3499 38.8263 26.3935 38.8123 26.4347C38.7984 26.4759 38.7763 26.5138 38.7473 26.5462C38.7183 26.5787 38.683 26.6049 38.6436 26.6233C38.6042 26.6417 38.5615 26.6519 38.518 26.6534C38.4745 26.6549 38.4312 26.6475 38.3906 26.6317C38.3501 26.616 38.3131 26.5922 38.282 26.5618C37.5672 25.9219 36.6414 25.568 35.6819 25.568C34.7225 25.568 33.7967 25.9219 33.0818 26.5618C33.0505 26.591 33.0137 26.6136 32.9735 26.6283C32.9333 26.6431 32.8906 26.6497 32.8479 26.6477C32.8051 26.6458 32.7632 26.6353 32.7245 26.6169C32.6859 26.5986 32.6512 26.5727 32.6227 26.5408C32.5942 26.5089 32.5723 26.4716 32.5583 26.4312C32.5444 26.3907 32.5386 26.3479 32.5414 26.3052C32.5442 26.2625 32.5555 26.2208 32.5746 26.1825C32.5937 26.1442 32.6203 26.1101 32.6527 26.0822C33.4847 25.3348 34.5636 24.9214 35.6819 24.9214C36.8003 24.9214 37.8792 25.3348 38.7112 26.0822ZM33.6624 28.8418C33.5776 28.8543 33.4913 28.8325 33.4224 28.7813C33.3536 28.7301 33.308 28.6537 33.2955 28.5688C33.2831 28.4839 33.3048 28.3976 33.356 28.3288C33.4072 28.26 33.4837 28.2143 33.5685 28.2019C33.8498 28.1607 34.2062 28.2271 34.6149 28.3041C35.4436 28.4589 36.5294 28.6623 37.166 27.9002C37.2217 27.8369 37.2999 27.7979 37.384 27.7915C37.468 27.785 37.5513 27.8117 37.6159 27.8658C37.6806 27.9199 37.7216 27.9971 37.7301 28.081C37.7386 28.1648 37.714 28.2487 37.6616 28.3147C36.7828 29.3669 35.4858 29.124 34.4965 28.939C34.1464 28.8729 33.8422 28.8145 33.6637 28.8405L33.6624 28.8418ZM28.4292 28.2019C28.514 28.2143 28.5905 28.26 28.6417 28.3288C28.6929 28.3976 28.7146 28.4839 28.7022 28.5688C28.6897 28.6537 28.6441 28.7301 28.5753 28.7813C28.5065 28.8325 28.4201 28.8543 28.3353 28.8418C28.1586 28.8166 27.8526 28.8731 27.5022 28.9385C26.5129 29.1235 25.2159 29.3664 24.3369 28.3142C24.2824 28.2484 24.2562 28.1637 24.264 28.0786C24.2718 27.9935 24.313 27.915 24.3785 27.8602C24.4441 27.8054 24.5287 27.7788 24.6138 27.7862C24.6989 27.7936 24.7776 27.8344 24.8327 27.8997C25.4699 28.6623 26.5551 28.4589 27.3823 28.3036C27.7928 28.2261 28.1492 28.1595 28.4304 28.2006L28.4292 28.2019ZM35.8942 38.496C35.8357 38.9606 35.8066 39.4284 35.8072 39.8967C35.816 42.0308 36.4804 43.8738 37.6196 45.24C38.7523 46.5986 40.3606 47.4892 42.2615 47.7258C42.5829 47.7661 42.9064 47.7877 43.2303 47.7904C43.8073 47.3688 44.3624 46.9183 44.8936 46.4404C44.753 45.6719 44.3587 44.8679 43.8399 44.1624C43.249 43.3581 42.502 42.6899 41.7927 42.3529C41.7153 42.3164 41.6556 42.2506 41.6267 42.17C41.5978 42.0894 41.6021 42.0007 41.6387 41.9233C41.6753 41.8459 41.7411 41.7862 41.8216 41.7573C41.9022 41.7284 41.991 41.7327 42.0683 41.7693C42.8744 42.1512 43.7092 42.8936 44.361 43.7804C44.8464 44.4418 45.2349 45.188 45.4381 45.9315C45.5214 45.8514 45.6045 45.7701 45.686 45.6884C47.095 44.2801 48.2946 42.677 49.2482 40.9279C48.2859 41.3513 47.3667 41.4936 46.5019 41.4075C45.478 41.3066 44.5387 40.886 43.6998 40.2355C42.8751 39.5956 42.1481 38.733 41.5354 37.7341C40.3856 35.8595 39.6316 33.4894 39.3847 31.2069C39.1944 31.8969 38.9845 32.5576 38.7551 33.189C38.171 35.2115 38.1106 37.3961 38.4522 39.3048C38.8006 41.2531 39.5629 42.901 40.6088 43.7729C40.6423 43.7996 40.6702 43.8328 40.6907 43.8704C40.7113 43.9081 40.7241 43.9495 40.7285 43.9921C40.7329 44.0348 40.7287 44.0779 40.7162 44.119C40.7037 44.16 40.6831 44.1981 40.6557 44.2311C40.6282 44.2641 40.5945 44.2913 40.5564 44.311C40.5183 44.3308 40.4767 44.3428 40.4339 44.3463C40.3912 44.3497 40.3481 44.3446 40.3074 44.3313C40.2666 44.3179 40.2289 44.2965 40.1965 44.2684C39.0328 43.298 38.1919 41.51 37.8178 39.4189C37.6054 38.212 37.547 36.9831 37.6439 35.7616C37.2798 36.4762 36.8658 37.1643 36.4049 37.8207C36.2383 38.0553 36.0685 38.2799 35.8955 38.4947L35.8942 38.496ZM26.9292 39.4194C26.8906 40.0853 26.8055 40.7598 26.6727 41.3492C26.5526 41.8819 26.3905 42.3532 26.184 42.7008C27.1329 43.1956 28.1025 43.6451 29.0383 44.0786C33.1783 45.9971 36.6816 47.62 35.2137 51.3439C37.7623 50.8181 40.1886 49.8154 42.365 48.3887C42.3041 48.3821 42.2438 48.3755 42.1832 48.368C40.115 48.11 38.3628 47.1378 37.1239 45.6517C35.891 44.1732 35.172 42.1888 35.1627 39.8995V39.898C35.1627 39.7033 35.167 39.5073 35.1756 39.3101C33.8813 40.6437 32.4566 41.4212 31.024 41.5386C31.0072 41.5397 30.9903 41.5397 30.9735 41.5386H30.9634C29.576 41.4189 28.1932 40.6818 26.9305 39.4181L26.9292 39.4194ZM14.0716 47.9282C18.4032 52.2603 24.3884 54.9396 30.9987 54.9396C37.609 54.9396 43.5953 52.2603 47.9259 47.9282C52.2564 43.5962 54.9378 37.6117 54.9378 31.0011C54.9378 24.3906 52.258 18.4046 47.9259 14.0738C43.5938 9.74301 37.6106 7.0624 31 7.0624C24.3894 7.0624 18.4034 9.74175 14.0728 14.0735C9.74229 18.4053 7.06116 24.3903 7.06116 31.0009C7.06116 37.6114 9.74078 43.5954 14.0728 47.927L14.0716 47.9282ZM27.3099 17.7066C27.4532 17.5464 27.6048 17.3939 27.7643 17.2497C28.7311 16.3806 29.8633 15.9454 30.9977 15.9454C32.1322 15.9454 33.2644 16.3806 34.2312 17.2497C34.3911 17.3938 34.5432 17.5463 34.6868 17.7066L34.8812 17.9222L34.6868 18.1383C34.5433 18.2986 34.3912 18.451 34.2312 18.5949C33.2644 19.4641 32.1322 19.8993 30.9977 19.8993C29.8633 19.8993 28.7311 19.4641 27.7643 18.5949C27.6048 18.4509 27.4531 18.2985 27.3099 18.1383L27.1155 17.9222L27.3099 17.7066ZM31.6861 17.2356C31.5274 17.0764 31.3184 16.9771 31.0947 16.9548C30.871 16.9325 30.6465 16.9885 30.4594 17.1132C30.2724 17.2379 30.1344 17.4236 30.0689 17.6386C30.0035 17.8537 30.0147 18.0848 30.1006 18.2926C30.1865 18.5003 30.3418 18.6718 30.54 18.7779C30.7382 18.8839 30.9671 18.918 31.1875 18.8741C31.408 18.8303 31.6065 18.7114 31.7491 18.5376C31.8917 18.3638 31.9697 18.146 31.9696 17.9212C31.9698 17.7939 31.9448 17.6678 31.8962 17.5501C31.8475 17.4325 31.7762 17.3256 31.6861 17.2356ZM29.8734 19.0811L29.857 19.0647C29.7066 18.9146 29.5874 18.7364 29.506 18.5402C29.4246 18.344 29.3828 18.1337 29.3828 17.9213C29.3828 17.7089 29.4246 17.4986 29.506 17.3024C29.5874 17.1062 29.7066 16.928 29.857 16.7779L29.8739 16.7615C29.2855 16.9415 28.7159 17.2638 28.199 17.7293C28.1303 17.7907 28.0624 17.8555 27.997 17.9212C28.0634 17.9881 28.1313 18.0522 28.199 18.1135C28.7159 18.5785 29.2854 18.9019 29.8734 19.0811ZM32.1266 16.7615L32.1433 16.7779C32.2936 16.928 32.4129 17.1062 32.4942 17.3024C32.5756 17.4986 32.6175 17.7089 32.6175 17.9213C32.6175 18.1337 32.5756 18.344 32.4942 18.5402C32.4129 18.7364 32.2936 18.9146 32.1433 19.0647L32.1266 19.0811C32.7148 18.9014 33.284 18.5788 33.8013 18.1135C33.8697 18.0522 33.9376 17.9873 34.0032 17.9212C33.9368 17.8548 33.8689 17.7907 33.8013 17.7293C33.284 17.2636 32.7148 16.9412 32.1256 16.7612L32.1266 16.7615ZM36.1992 17.9212L30.999 12.721L25.7988 17.9212L30.999 23.1213L36.1992 17.9212ZM25.2954 18.3311C23.854 19.1922 22.0895 19.5668 20.28 19.5067C18.3628 19.4368 16.489 18.916 14.8107 17.9866C12.8373 20.4352 11.4479 23.3014 10.748 26.3674C11.9597 27.0339 14.323 28.0262 17.1576 27.981C17.4744 27.9764 17.7967 27.9579 18.1247 27.9252C18.1642 27.9128 18.2057 27.9084 18.2469 27.9121C19.8559 27.7323 21.5816 27.1896 23.3133 26.0592C23.5724 25.8298 23.8568 25.6307 24.161 25.4657C24.8043 24.9833 25.4142 24.458 25.9866 23.8933C26.8078 23.0824 27.5575 22.2023 28.2275 21.2627L26.8643 19.8995C25.6809 21.1539 24.3496 22.0768 22.8579 22.6839C21.318 23.3114 19.609 23.6 17.718 23.5674C17.6325 23.5661 17.5511 23.5309 17.4915 23.4695C17.432 23.4081 17.3993 23.3256 17.4006 23.2401C17.4019 23.1546 17.4371 23.0732 17.4985 23.0136C17.5599 22.9541 17.6424 22.9214 17.7279 22.9227C19.5293 22.9537 21.1542 22.6798 22.6153 22.0846C24.0254 21.5101 25.2853 20.6344 26.4079 19.4418L25.2954 18.3311ZM27.7208 15.0863C26.8694 14.2533 25.562 13.6871 24.1544 13.416C22.557 13.1077 20.8447 13.1837 19.5265 13.684C18.3705 14.4513 17.294 15.332 16.313 16.3132C15.9378 16.6883 15.5772 17.0776 15.231 17.4812C16.7924 18.3244 18.5269 18.797 20.3002 18.8623C22.066 18.9206 23.7763 18.5422 25.1359 17.6715L27.7208 15.0863ZM33.4459 21.5901C35.3106 23.2488 38.0448 24.7185 41.3903 25.6192C44.2847 26.399 47.6323 26.7511 51.2664 26.4313C50.8104 24.4008 50.0499 22.451 49.0109 20.648C47.3831 21.3548 44.93 21.7105 42.3718 21.3775C40.2334 21.0998 38.0145 20.3413 36.1308 18.9062L35.3439 19.693L34.9277 20.1073L34.5427 20.492L33.6137 21.4207L33.4459 21.5901ZM45.8117 16.4381C43.2598 16.9824 40.2894 16.4707 37.7449 15.3176C35.1761 14.1528 33.0286 12.3267 32.162 10.2618C31.7773 10.2404 31.3902 10.2296 31.0008 10.2295C27.6159 10.2243 24.2814 11.0502 21.2903 12.6347C22.2875 12.5418 23.2929 12.5911 24.2763 12.7811C25.8013 13.0747 27.2299 13.7017 28.1778 14.6307L31.0008 11.8069L31.2297 12.0359L37.1148 17.9212L36.592 18.4447C38.3636 19.7723 40.4454 20.4766 42.4546 20.7384C44.856 21.0506 47.1459 20.7318 48.6774 20.0878C47.8607 18.7685 46.8996 17.5445 45.8117 16.4381ZM32.8953 10.315C33.7733 12.101 35.7087 13.6853 38.0099 14.7284C40.2973 15.7654 42.9342 16.2609 45.248 15.8868C41.96 12.7856 37.6595 10.7459 32.8953 10.315ZM30.6271 6.41692V0H31.3728V6.41667C32.2064 6.42979 33.0291 6.48306 33.8409 6.57646L34.3337 2.83183L35.07 2.928L34.5773 6.67289C35.394 6.79156 36.2042 6.95165 37.0047 7.15251L38.6637 0.959761L39.3827 1.15237L37.7234 7.34462C38.5174 7.57004 39.2994 7.83561 40.0665 8.1403L41.51 4.65492L42.1978 4.93689L40.7532 8.42555C41.5109 8.7531 42.2516 9.11884 42.9723 9.52137L46.1783 3.96779L46.8215 4.33735L43.6155 9.89271C44.3244 10.3178 45.0098 10.7767 45.6719 11.2692L47.9716 8.27232L48.5628 8.72343L46.2613 11.7226C46.9077 12.2348 47.528 12.7792 48.1198 13.3536L52.6576 8.81581L53.1847 9.34265L48.6471 13.8802C49.221 14.4721 49.7646 15.0917 50.2778 15.7391L53.2768 13.4379L53.7284 14.0291L50.7302 16.3288C51.2232 16.9907 51.6825 17.6771 52.1065 18.3852L57.6619 15.1792L58.0314 15.8229L52.4778 19.0289C52.8806 19.7496 53.2465 20.4904 53.5742 21.2483L57.0623 19.8038L57.3446 20.4912L53.8604 21.9334C54.1649 22.7004 54.4302 23.4823 54.6553 24.2762L60.8484 22.6165L61.0407 23.3357L54.8475 24.9952C55.048 25.7957 55.2081 26.6059 55.3271 27.4226L59.0722 26.9291L59.1684 27.6654L55.4235 28.1587C55.5178 28.9782 55.5709 29.8019 55.5828 30.6268H62V31.372H55.5828C55.5709 32.197 55.5178 33.0208 55.4235 33.8405L59.1684 34.3333L59.0722 35.0699L55.3268 34.5779C55.2082 35.3945 55.0481 36.2045 54.8472 37.0048L61.0405 38.6643L60.8481 39.3835L54.6556 37.7238C54.4302 38.5179 54.1645 39.3 53.8597 40.0671L57.3456 41.5108L57.0633 42.1982L53.5752 40.7537C53.2476 41.5114 52.8819 42.252 52.4793 42.9726L58.033 46.1786L57.6621 46.821L52.1085 43.6136C51.6843 44.3217 51.2248 45.0081 50.7317 45.6702L53.7289 47.9699L53.2765 48.5628L50.2771 46.2614C49.7646 46.9081 49.2211 47.5277 48.6463 48.1201L53.1839 52.6576L52.6573 53.1847L48.119 48.6466C47.5271 49.2211 46.9069 49.7655 46.2606 50.2779L48.562 53.2768L47.9708 53.7284L45.6711 50.7313C45.0094 51.2241 44.3232 51.6833 43.6153 52.107L46.8212 57.6606L46.178 58.0335L42.9721 52.4799C42.2513 52.8823 41.5108 53.248 40.7532 53.5757L42.1978 57.0629L41.5102 57.3451L40.0668 53.8597C39.2998 54.1644 38.5177 54.4298 37.7237 54.6549L39.3834 60.8471L38.6645 61.0395L37.0047 54.8467C36.2042 55.0474 35.394 55.2074 34.5773 55.3264L35.07 59.0722L34.3337 59.1679L33.8422 55.4233C33.0302 55.5167 32.2071 55.5698 31.3728 55.5826V62H30.6304V55.5826C29.7969 55.5703 28.9738 55.5172 28.1611 55.4233L27.6678 59.1682L26.9312 59.0725L27.4245 55.3266C26.6079 55.2077 25.7978 55.0476 24.9973 54.847L23.3385 61.0402L22.6193 60.8479L24.2781 54.6551C23.484 54.43 22.7019 54.1645 21.935 53.8594L20.4883 57.3451L19.8014 57.0629L21.2458 53.575C20.4883 53.247 19.7477 52.8811 19.0269 52.4786L15.821 58.0322L15.1775 57.6621L18.3835 52.1068C17.6746 51.6817 16.9893 51.2229 16.3274 50.7305L14.0272 53.7277L13.4365 53.2761L15.7379 50.2771C15.0912 49.7642 14.4716 49.2204 13.8792 48.6459L9.34168 53.1839L8.81484 52.6573L13.3521 48.1193C12.7783 47.5273 12.2347 46.9077 11.7214 46.2606L8.72472 48.5628L8.27311 47.9714L11.2705 45.6717C10.7777 45.0099 10.3186 44.3236 9.89477 43.6156L4.3399 46.821L3.96705 46.1773L9.52066 42.9701C9.11799 42.2497 8.75216 41.5093 8.42457 40.7517L4.93817 42.1977L4.65544 41.5103L8.14109 40.0666C7.83669 39.2994 7.57137 38.5173 7.34616 37.7232L1.15162 39.3835L0.960018 38.6638L7.1528 37.0043C6.95217 36.2039 6.79209 35.3939 6.67317 34.5774L2.927 35.0701L2.83108 34.3335L6.57648 33.8408C6.48308 33.029 6.4299 32.2057 6.41694 31.371H0V30.6285H6.4172C6.42948 29.7945 6.48266 28.9713 6.57674 28.159L2.83133 27.6657L2.92726 26.9293L6.67342 27.4221C6.79239 26.6056 6.95247 25.7956 7.15305 24.9952L0.959765 23.3364L1.15187 22.6175L7.3449 24.2762C7.56989 23.4822 7.83538 22.7003 8.14033 21.9334L4.65468 20.4892L4.93691 19.8023L8.42483 21.2468C8.75275 20.489 9.11866 19.7483 9.52116 19.0273L3.96755 15.8214L4.33712 15.178L9.89275 18.3839C10.3179 17.6745 10.7766 16.9891 11.269 16.3275L8.27261 14.0296L8.72371 13.4389L11.7232 15.7401C12.2355 15.0937 12.7799 14.4735 13.3544 13.8817L8.8161 9.34416L9.34294 8.81733L13.881 13.3546C14.4727 12.7807 15.0923 12.2371 15.7397 11.7236L13.4382 8.72443L14.0294 8.27282L16.3294 11.2702C16.9898 10.7785 17.675 10.3198 18.3852 9.89422L15.1793 4.34064L15.8227 3.96779L19.0287 9.52137C19.7492 9.11873 20.4897 8.75306 21.2474 8.4258L19.8024 4.93764L20.4898 4.65517L21.9332 8.14105C22.7003 7.83648 23.4824 7.57091 24.2763 7.34538L22.6166 1.15313L23.3358 0.961025L24.9955 7.15403C25.7961 6.95365 26.6061 6.79357 27.4227 6.6744L26.93 2.92901L27.6663 2.83283L28.1593 6.57797C28.9705 6.48356 29.7931 6.43005 30.6271 6.41692ZM50.22 38.89C50.2131 38.7084 50.1842 38.5283 50.1342 38.3536C49.8951 37.5041 49.184 36.717 48.2488 36.1392C47.2953 35.5503 46.1172 35.1835 44.9671 35.187C44.5359 35.1863 44.1066 35.2443 43.691 35.3594C43.6094 35.38 43.5229 35.3678 43.4501 35.3256C43.3773 35.2834 43.3238 35.2144 43.3011 35.1333C43.2784 35.0523 43.2882 34.9655 43.3284 34.8916C43.3687 34.8177 43.4362 34.7624 43.5166 34.7374C43.989 34.6072 44.477 34.5416 44.9671 34.5423C46.2378 34.5385 47.5376 34.9424 48.5868 35.5909C49.5231 36.1695 50.267 36.947 50.6277 37.8124C51.1537 36.2952 51.501 34.7219 51.6627 33.1244C49.2219 33.2347 46.798 32.6028 44.8217 31.3621C42.8918 30.1504 41.3885 28.3551 40.7145 26.1021C37.4816 25.16 34.8272 23.6941 32.9864 22.048L30.9982 24.0362L28.6882 21.7261C28.0126 22.6634 27.2596 23.5424 26.4372 24.354C26.2284 24.5598 26.0176 24.7582 25.8049 24.9492C26.442 24.8768 27.0873 24.9402 27.6981 25.1352C28.309 25.3303 28.8716 25.6526 29.3488 26.0809C29.3632 26.0936 29.3764 26.1076 29.3882 26.1228C29.9358 26.8266 30.264 27.7306 30.3727 28.8347C30.4757 29.8854 30.3786 31.1189 30.0814 32.5354C30.1513 32.6983 30.2417 32.8055 30.351 32.8558C30.4843 32.9179 30.6678 32.9115 30.9016 32.8366C30.9421 32.8231 30.9849 32.8178 31.0275 32.8209C31.0701 32.8241 31.1116 32.8357 31.1497 32.855C31.1878 32.8744 31.2217 32.9011 31.2493 32.9336C31.277 32.9661 31.298 33.0038 31.311 33.0445C31.3241 33.0852 31.3289 33.128 31.3252 33.1706C31.3216 33.2131 31.3095 33.2545 31.2897 33.2924C31.27 33.3302 31.2429 33.3638 31.21 33.3911C31.1772 33.4184 31.1393 33.439 31.0985 33.4515C30.7047 33.5772 30.3653 33.5743 30.0804 33.4427C29.7914 33.3081 29.5795 33.0535 29.4445 32.6791C29.4217 32.6209 29.4165 32.5572 29.4296 32.4961C29.7288 31.1023 29.8291 29.9022 29.7305 28.8958C29.6356 27.929 29.3562 27.143 28.8924 26.5378C28.3009 26.018 27.5659 25.6894 26.784 25.5952C26.0022 25.501 25.2102 25.6456 24.5121 26.01C24.2366 26.2153 23.9595 26.4088 23.6806 26.5906C22.6125 27.2901 21.5455 27.777 20.5027 28.0984C17.7196 35.2042 20.2374 38.9049 23.9305 41.3795C23.9596 41.3933 23.9865 41.4113 24.0103 41.433C24.5275 41.7756 25.067 42.0949 25.6173 42.3961C25.791 42.1204 25.9333 41.7001 26.0447 41.2059C26.2128 40.4604 26.3004 39.5675 26.3095 38.7418C26.0653 38.4542 25.827 38.1465 25.5946 37.8187C24.0986 35.7063 22.8627 32.7657 22.1377 29.2106C22.1081 29.0672 22.0834 28.9387 22.0637 28.8249C22.0423 28.7022 22.0216 28.5725 22.0029 28.4402C21.9969 28.3982 21.9993 28.3554 22.0098 28.3144C22.0203 28.2733 22.0389 28.2347 22.0643 28.2008C22.0898 28.1668 22.1217 28.1383 22.1582 28.1167C22.1947 28.0951 22.2351 28.0809 22.277 28.0749C22.319 28.0689 22.3618 28.0713 22.4029 28.0818C22.4439 28.0923 22.4825 28.1109 22.5165 28.1363C22.5504 28.1618 22.579 28.1937 22.6005 28.2302C22.6221 28.2667 22.6363 28.3071 22.6423 28.349C22.6592 28.4626 22.6787 28.5842 22.7009 28.7138C22.7244 28.8489 22.7473 28.9716 22.7696 29.0811C23.4764 32.5465 24.6744 35.4036 26.1209 37.4458C27.5871 39.5158 29.3016 40.7391 31 40.8883C32.6992 40.7391 34.4129 39.5168 35.8793 37.4458C36.7376 36.2341 37.5086 34.7357 38.1409 32.9936L38.1422 32.9896L38.1488 32.9711C38.6034 31.7025 38.965 30.4024 39.2304 29.0811C39.2529 28.971 39.2764 28.8481 39.2996 28.7115C39.3216 28.5868 39.3408 28.4657 39.3579 28.3483C39.3632 28.3057 39.377 28.2647 39.3983 28.2275C39.4197 28.1903 39.4482 28.1577 39.4823 28.1317C39.5163 28.1057 39.5552 28.0867 39.5967 28.0759C39.6382 28.065 39.6814 28.0626 39.7239 28.0686C39.7663 28.0747 39.8072 28.0891 39.844 28.1111C39.8808 28.1331 39.9128 28.1622 39.9382 28.1967C39.9637 28.2312 39.982 28.2705 39.9921 28.3121C40.0022 28.3538 40.0039 28.3971 39.9971 28.4394V28.4417C39.7171 31.3101 40.5169 34.8341 42.0878 37.3948C42.6611 38.3288 43.3356 39.1328 44.0954 39.7218C44.8419 40.3004 45.6709 40.674 46.5668 40.7623C47.5447 40.8595 48.613 40.6187 49.754 39.9381C49.9183 39.5943 50.0736 39.2451 50.22 38.89Z" fill="white"/>
<path d="M71.0123 41L74.2253 23.99H78.5093L81.6803 41H78.2153L77.6483 37.409H75.1493L74.5613 41H71.0123ZM75.4853 35.162H77.2913L76.3883 28.526L75.4853 35.162ZM83.3977 41V23.99H87.8287C88.5567 23.99 89.2427 24.046 89.8867 24.158C90.5447 24.27 91.1257 24.487 91.6297 24.809C92.1337 25.117 92.5257 25.565 92.8057 26.153C93.0997 26.727 93.2467 27.49 93.2467 28.442C93.2467 29.128 93.1417 29.709 92.9317 30.185C92.7357 30.647 92.4487 31.018 92.0707 31.298C91.7067 31.578 91.2657 31.767 90.7477 31.865C91.4057 31.949 91.9587 32.166 92.4067 32.516C92.8547 32.852 93.1907 33.307 93.4147 33.881C93.6527 34.455 93.7717 35.148 93.7717 35.96C93.7717 36.842 93.6527 37.605 93.4147 38.249C93.1907 38.879 92.8617 39.397 92.4277 39.803C91.9937 40.209 91.4547 40.51 90.8107 40.706C90.1807 40.902 89.4527 41 88.6267 41H83.3977ZM87.1567 38.375H87.9547C88.7807 38.375 89.3477 38.165 89.6557 37.745C89.9777 37.325 90.1387 36.709 90.1387 35.897C90.1387 35.253 90.0687 34.742 89.9287 34.364C89.7887 33.986 89.5577 33.713 89.2357 33.545C88.9137 33.363 88.4797 33.272 87.9337 33.272H87.1567V38.375ZM87.1567 30.794H87.8917C88.4657 30.794 88.8997 30.71 89.1937 30.542C89.4877 30.36 89.6837 30.101 89.7817 29.765C89.8937 29.429 89.9497 29.023 89.9497 28.547C89.9497 28.099 89.8657 27.728 89.6977 27.434C89.5437 27.126 89.3057 26.895 88.9837 26.741C88.6757 26.587 88.2837 26.51 87.8077 26.51H87.1567V30.794ZM95.7434 41V23.99H101.455C102.477 23.99 103.317 24.186 103.975 24.578C104.633 24.956 105.123 25.516 105.445 26.258C105.767 26.986 105.928 27.875 105.928 28.925C105.928 30.241 105.711 31.249 105.277 31.949C104.843 32.635 104.255 33.111 103.513 33.377C102.771 33.643 101.938 33.776 101.014 33.776H99.5024V41H95.7434ZM99.5024 31.151H100.762C101.224 31.151 101.574 31.067 101.812 30.899C102.05 30.731 102.204 30.479 102.274 30.143C102.358 29.807 102.4 29.38 102.4 28.862C102.4 28.428 102.365 28.05 102.295 27.728C102.239 27.392 102.092 27.126 101.854 26.93C101.616 26.734 101.245 26.636 100.741 26.636H99.5024V31.151ZM112.612 41.252C111.338 41.252 110.33 41.028 109.588 40.58C108.846 40.132 108.314 39.488 107.992 38.648C107.67 37.808 107.509 36.807 107.509 35.645V29.324C107.509 28.148 107.67 27.147 107.992 26.321C108.314 25.495 108.846 24.865 109.588 24.431C110.33 23.983 111.338 23.759 112.612 23.759C113.9 23.759 114.915 23.983 115.657 24.431C116.413 24.865 116.952 25.495 117.274 26.321C117.596 27.147 117.757 28.148 117.757 29.324V35.645C117.757 36.807 117.596 37.808 117.274 38.648C116.952 39.488 116.413 40.132 115.657 40.58C114.915 41.028 113.9 41.252 112.612 41.252ZM112.612 38.585C113.004 38.585 113.291 38.487 113.473 38.291C113.655 38.095 113.774 37.843 113.83 37.535C113.886 37.227 113.914 36.912 113.914 36.59V28.4C113.914 28.064 113.886 27.749 113.83 27.455C113.774 27.147 113.655 26.895 113.473 26.699C113.291 26.503 113.004 26.405 112.612 26.405C112.248 26.405 111.975 26.503 111.793 26.699C111.611 26.895 111.492 27.147 111.436 27.455C111.38 27.749 111.352 28.064 111.352 28.4V36.59C111.352 36.912 111.373 37.227 111.415 37.535C111.471 37.843 111.583 38.095 111.751 38.291C111.933 38.487 112.22 38.585 112.612 38.585ZM120.045 41V23.99H125.757C126.779 23.99 127.619 24.186 128.277 24.578C128.935 24.956 129.425 25.516 129.747 26.258C130.069 26.986 130.23 27.875 130.23 28.925C130.23 30.241 130.013 31.249 129.579 31.949C129.145 32.635 128.557 33.111 127.815 33.377C127.073 33.643 126.24 33.776 125.316 33.776H123.804V41H120.045ZM123.804 31.151H125.064C125.526 31.151 125.876 31.067 126.114 30.899C126.352 30.731 126.506 30.479 126.576 30.143C126.66 29.807 126.702 29.38 126.702 28.862C126.702 28.428 126.667 28.05 126.597 27.728C126.541 27.392 126.394 27.126 126.156 26.93C125.918 26.734 125.547 26.636 125.043 26.636H123.804V31.151ZM130.875 41L134.088 23.99H138.372L141.543 41H138.078L137.511 37.409H135.012L134.424 41H130.875ZM135.348 35.162H137.154L136.251 28.526L135.348 35.162Z" fill="white"/>
</svg>
