<svg width="180" height="69" viewBox="0 0 180 69" fill="none" xmlns="http://www.w3.org/2000/svg">
<path d="M57.558 36.14C57.5965 35.5983 57.6159 35.0516 57.6161 34.4999C57.6168 33.0311 57.4783 31.5655 57.2023 30.1229C53.145 30.4895 49.399 30.1201 46.1429 29.2767C46.8969 31.4048 48.3862 33.1132 50.2671 34.2945C52.3668 35.6149 54.9545 36.2773 57.558 36.14ZM31.7679 57.4555C33.9557 57.7125 36.1688 57.6595 38.3418 57.2979C40.1353 53.4681 36.427 51.7499 32.0162 49.7067C30.2696 48.8973 28.4188 48.0399 26.7332 46.9903C26.4351 49.0001 26.7694 51.3367 27.6771 53.3285C28.5419 55.2231 29.923 56.797 31.767 57.4555H31.7679ZM20.6169 52.983C23.3001 55.0041 26.3932 56.4132 29.6791 57.1113C28.5452 56.2331 27.6564 55.0068 27.0262 53.6277C26.0148 51.4066 25.6729 48.7765 26.0766 46.5655C21.8769 43.7387 18.997 39.5261 21.9615 31.5056C21.4593 31.6241 20.9505 31.7131 20.4379 31.7722C17.7777 34.522 16.656 38.0812 16.6708 41.6688C16.6869 45.7977 18.205 49.9623 20.6161 52.983H20.6169ZM18.1556 50.8453C18.2933 50.983 18.4326 51.1189 18.5736 51.253C16.9442 48.4312 15.9674 45.0392 15.953 41.6708C15.939 38.1526 16.97 34.6566 19.3931 31.8501L19.1066 31.8579C15.9368 31.9082 13.2723 30.8505 11.8078 30.0768C11.5264 31.5343 11.3853 33.0154 11.3864 34.4999C11.3844 40.8833 13.9716 46.6622 18.1548 50.8453H18.1556ZM34.5008 58.3356C27.9188 58.3356 21.9598 55.6667 17.6465 51.3544C13.3333 47.042 10.665 41.0816 10.665 34.4999C10.665 27.9181 13.3339 21.9591 17.6468 17.6453C21.9598 13.3316 27.919 10.6638 34.5011 10.6638C41.0832 10.6638 47.0422 13.3327 51.3557 17.6453C52.7589 19.0485 53.982 20.6208 54.9969 22.326L55.0014 22.3342C57.1905 26.0138 58.3429 30.2172 58.3365 34.4987C58.3365 35.1747 58.3084 35.8436 58.2522 36.5055V36.5145C57.7681 42.2925 55.2234 47.4842 51.3551 51.3527C47.0411 55.6679 41.0818 58.3356 34.5 58.3356H34.5008ZM33.072 39.6899C33.6121 39.8813 34.1885 39.9484 34.7582 39.886C35.3279 39.8237 35.8761 39.6335 36.3621 39.3297C36.2745 39.2806 36.1825 39.24 36.0873 39.2084C35.8507 39.1304 35.5994 39.1077 35.3526 39.1421C35.3004 39.1496 35.2498 39.1589 35.2023 39.1701C35.1613 39.18 35.1206 39.1915 35.0807 39.2044L35.0526 39.2143C34.9192 39.2609 34.8304 39.2954 34.7621 39.3224C34.5857 39.3918 34.4941 39.428 34.3438 39.423C34.1938 39.428 34.1019 39.3918 33.9258 39.3224C33.8569 39.2943 33.7687 39.2609 33.635 39.2143C33.5884 39.198 33.5378 39.1836 33.4847 39.1704C33.4395 39.1598 33.3889 39.1499 33.3349 39.1423C33.0883 39.108 32.8371 39.1307 32.6006 39.2086C32.5053 39.2401 32.4133 39.2808 32.3258 39.33C32.5606 39.477 32.8108 39.5976 33.072 39.6899ZM34.3438 40.6279C33.3066 40.6267 32.3013 40.2697 31.4956 39.6166C31.4589 39.5868 31.4285 39.5502 31.4059 39.5086C31.3834 39.4671 31.3694 39.4216 31.3645 39.3746C31.3596 39.3276 31.3641 39.2801 31.3777 39.2348C31.3912 39.1896 31.4135 39.1475 31.4434 39.1109L31.4684 39.0828C31.7236 38.8301 32.0337 38.6397 32.3744 38.5262C32.7152 38.4128 33.0775 38.3795 33.4333 38.4288C33.5024 38.4383 33.5754 38.4526 33.6518 38.4709H33.6535C33.7261 38.4883 33.7978 38.5094 33.8682 38.5341V38.5327C33.9988 38.5779 34.1044 38.6192 34.187 38.6518C34.2747 38.6864 34.3191 38.7035 34.3236 38.7035H34.3629C34.3677 38.7035 34.4118 38.6864 34.4994 38.6518C34.582 38.6192 34.6877 38.5779 34.8186 38.5327L34.8498 38.5234C34.9108 38.5032 34.972 38.4859 35.0332 38.4715C35.1057 38.4531 35.1791 38.4388 35.2532 38.4288C35.6092 38.3792 35.9719 38.4124 36.3129 38.5259C36.654 38.6393 36.9643 38.8299 37.2198 39.0828C37.2531 39.1161 37.2795 39.1556 37.2975 39.1992C37.3156 39.2427 37.3248 39.2893 37.3248 39.3365C37.3248 39.3836 37.3156 39.4302 37.2975 39.4738C37.2795 39.5173 37.2531 39.5568 37.2198 39.5901C37.2085 39.6016 37.1964 39.6123 37.1835 39.6219C36.379 40.2708 35.3768 40.6251 34.3432 40.626L34.3438 40.6279ZM32.99 42.1467C32.9494 42.1207 32.9146 42.0868 32.8875 42.047C32.8603 42.0073 32.8415 41.9624 32.832 41.9152C32.8225 41.868 32.8227 41.8194 32.8324 41.7723C32.8421 41.7251 32.8612 41.6804 32.8886 41.6408C32.916 41.6012 32.951 41.5675 32.9917 41.5418C33.0323 41.516 33.0778 41.4987 33.1253 41.4908C33.1728 41.483 33.2213 41.4848 33.2681 41.4961C33.3149 41.5074 33.3589 41.528 33.3976 41.5567C33.6591 41.7376 33.9991 41.8284 34.3438 41.8284C34.6885 41.8284 35.0284 41.7376 35.2897 41.5567C35.3283 41.5275 35.3725 41.5063 35.4195 41.4946C35.4665 41.4829 35.5154 41.4808 35.5632 41.4884C35.611 41.4961 35.6568 41.5134 35.6978 41.5392C35.7388 41.565 35.7741 41.5988 35.8017 41.6387C35.8293 41.6785 35.8485 41.7235 35.8582 41.771C35.8679 41.8184 35.8679 41.8674 35.8582 41.9148C35.8485 41.9623 35.8293 42.0073 35.8018 42.0471C35.7742 42.087 35.7389 42.1208 35.6979 42.1467C35.3119 42.4141 34.8256 42.5478 34.3438 42.5478C33.862 42.5478 33.3751 42.4124 32.99 42.1453V42.1467ZM43.0818 29.0269C43.1193 29.0576 43.1501 29.0955 43.1726 29.1384C43.195 29.1813 43.2085 29.2283 43.2122 29.2766C43.216 29.3249 43.2099 29.3734 43.1944 29.4192C43.1789 29.4651 43.1542 29.5073 43.122 29.5434C43.0897 29.5795 43.0504 29.6086 43.0066 29.6291C42.9627 29.6496 42.9152 29.661 42.8668 29.6627C42.8184 29.6643 42.7702 29.6561 42.7251 29.6386C42.6799 29.621 42.6388 29.5946 42.6042 29.5607C41.8086 28.8485 40.7783 28.4548 39.7105 28.4548C38.6428 28.4548 37.6125 28.8485 36.8169 29.5607C36.782 29.5932 36.741 29.6183 36.6963 29.6348C36.6516 29.6512 36.6041 29.6585 36.5565 29.6563C36.5089 29.6541 36.4623 29.6425 36.4192 29.6221C36.3762 29.6016 36.3377 29.5728 36.3059 29.5373C36.2742 29.5019 36.2498 29.4604 36.2343 29.4154C36.2187 29.3703 36.2123 29.3227 36.2154 29.2751C36.2185 29.2276 36.2311 29.1812 36.2524 29.1386C36.2736 29.0959 36.3032 29.058 36.3393 29.0269C37.2652 28.1952 38.4659 27.7351 39.7105 27.7351C40.9552 27.7351 42.1559 28.1952 43.0818 29.0269ZM37.463 32.0981C37.3686 32.112 37.2725 32.0878 37.1959 32.0308C37.1194 31.9738 37.0686 31.8887 37.0547 31.7943C37.0408 31.6999 37.0651 31.6038 37.1221 31.5272C37.179 31.4506 37.2641 31.3998 37.3585 31.386C37.6715 31.3402 38.0682 31.414 38.523 31.4997C39.4454 31.6719 40.6537 31.8984 41.3622 31.0502C41.4242 30.9798 41.5112 30.9364 41.6047 30.9292C41.6983 30.9221 41.7909 30.9517 41.8629 31.0119C41.9349 31.0721 41.9805 31.1581 41.9899 31.2514C41.9994 31.3447 41.972 31.4381 41.9137 31.5115C40.9357 32.6825 39.4923 32.4122 38.3913 32.2063C38.0016 32.1327 37.6631 32.0678 37.4645 32.0967L37.463 32.0981ZM31.6389 31.386C31.7334 31.3998 31.8184 31.4506 31.8754 31.5272C31.9324 31.6038 31.9566 31.6999 31.9428 31.7943C31.9289 31.8887 31.8781 31.9738 31.8015 32.0308C31.7249 32.0878 31.6289 32.112 31.5344 32.0981C31.3378 32.07 30.9973 32.133 30.6073 32.2057C29.5063 32.4117 28.0629 32.6819 27.0846 31.511C27.024 31.4377 26.9948 31.3435 27.0035 31.2488C27.0122 31.1541 27.058 31.0667 27.1309 31.0057C27.2039 30.9447 27.298 30.9151 27.3928 30.9234C27.4875 30.9316 27.5751 30.977 27.6364 31.0497C28.3455 31.8984 29.5532 31.6719 30.4739 31.4992C30.9307 31.4129 31.3274 31.3388 31.6403 31.3846L31.6389 31.386ZM39.9468 42.8423C39.8816 43.3593 39.8493 43.88 39.8499 44.4012C39.8597 46.7762 40.5992 48.8273 41.867 50.3478C43.1276 51.8598 44.9175 52.8509 47.0329 53.1142C47.3906 53.159 47.7506 53.183 48.1111 53.1861C48.7532 52.7169 49.3711 52.2155 49.9623 51.6836C49.8058 50.8285 49.3669 49.9337 48.7896 49.1485C48.1319 48.2534 47.3006 47.5098 46.5112 47.1347C46.4251 47.094 46.3586 47.0208 46.3265 46.9311C46.2944 46.8414 46.2992 46.7427 46.3398 46.6565C46.3805 46.5704 46.4538 46.504 46.5434 46.4718C46.6331 46.4397 46.7319 46.4445 46.818 46.4852C47.715 46.9102 48.6441 47.7365 49.3695 48.7234C49.9097 49.4595 50.3421 50.2899 50.5682 51.1173C50.6609 51.0282 50.7534 50.9377 50.8441 50.8467C52.4122 49.2795 53.7472 47.4953 54.8084 45.5488C53.7375 46.0199 52.7146 46.1784 51.7521 46.0826C50.6126 45.9702 49.5673 45.5022 48.6337 44.7782C47.7159 44.066 46.9068 43.1061 46.2249 41.9944C44.9453 39.9082 44.1061 37.2705 43.8313 34.7302C43.6195 35.4981 43.386 36.2334 43.1307 36.9361C42.4806 39.187 42.4135 41.6182 42.7936 43.7424C43.1813 45.9107 44.0297 47.7446 45.1936 48.715C45.2309 48.7447 45.262 48.7816 45.2849 48.8235C45.3077 48.8654 45.322 48.9115 45.3269 48.959C45.3318 49.0065 45.3271 49.0545 45.3132 49.1001C45.2992 49.1458 45.2763 49.1882 45.2458 49.2249C45.2153 49.2617 45.1777 49.2919 45.1353 49.3139C45.093 49.3359 45.0466 49.3492 44.999 49.3531C44.9515 49.357 44.9036 49.3513 44.8582 49.3364C44.8128 49.3215 44.7709 49.2977 44.7348 49.2664C43.4397 48.1865 42.5039 46.1967 42.0876 43.8694C41.8512 42.5263 41.7861 41.1586 41.894 39.7992C41.4888 40.5945 41.028 41.3602 40.5152 42.0908C40.3297 42.3518 40.1408 42.6019 39.9482 42.8409L39.9468 42.8423ZM29.9696 43.8699C29.9266 44.611 29.8319 45.3617 29.6842 46.0177C29.5504 46.6105 29.3701 47.135 29.1403 47.5218C30.1963 48.0725 31.2754 48.5728 32.3168 49.0552C36.9242 51.1903 40.8231 52.9964 39.1894 57.1408C42.0258 56.5556 44.7261 55.4398 47.1481 53.8519C47.0804 53.8446 47.0132 53.8373 46.9458 53.8289C44.6441 53.5417 42.6941 52.4599 41.3153 50.806C39.9432 49.1605 39.1431 46.9521 39.1327 44.4043V44.4026C39.1327 44.1859 39.1374 43.9678 39.147 43.7483C37.7066 45.2325 36.121 46.0978 34.5267 46.2284C34.508 46.2297 34.4892 46.2297 34.4705 46.2284H34.4593C32.9152 46.0952 31.3763 45.2749 29.971 43.8685L29.9696 43.8699ZM15.6603 53.3395C20.4809 58.1606 27.142 61.1425 34.4986 61.1425C41.8552 61.1425 48.5174 58.1606 53.3369 53.3395C58.1564 48.5183 61.1405 41.8582 61.1405 34.5013C61.1405 27.1444 58.158 20.4825 53.3369 15.6628C48.5157 10.843 41.8569 7.85976 34.5 7.85976C27.1431 7.85976 20.4812 10.8416 15.6617 15.6625C10.8422 20.4834 7.85839 27.1441 7.85839 34.501C7.85839 41.8579 10.8405 48.5175 15.6617 53.3381L15.6603 53.3395ZM30.3933 19.7057C30.5527 19.5274 30.7215 19.3577 30.8989 19.1972C31.9749 18.23 33.2349 17.7456 34.4975 17.7456C35.76 17.7456 37.02 18.23 38.096 19.1972C38.274 19.3576 38.4433 19.5273 38.6031 19.7057L38.8194 19.9457L38.6031 20.1861C38.4433 20.3645 38.274 20.5342 38.096 20.6944C37.02 21.6616 35.76 22.146 34.4975 22.146C33.2349 22.146 31.9749 21.6616 30.8989 20.6944C30.7214 20.5341 30.5526 20.3644 30.3933 20.1861L30.1769 19.9457L30.3933 19.7057ZM35.2636 19.1815C35.0869 19.0043 34.8543 18.8939 34.6054 18.8691C34.3564 18.8442 34.1066 18.9065 33.8984 19.0453C33.6902 19.1841 33.5366 19.3907 33.4638 19.6301C33.391 19.8694 33.4034 20.1267 33.499 20.3579C33.5946 20.5891 33.7674 20.7799 33.988 20.898C34.2086 21.016 34.4633 21.0539 34.7087 21.0051C34.9541 20.9563 35.175 20.824 35.3337 20.6306C35.4924 20.4372 35.5791 20.1947 35.5791 19.9445C35.5793 19.8028 35.5515 19.6625 35.4974 19.5316C35.4432 19.4006 35.3638 19.2817 35.2636 19.1815ZM33.2462 21.2354L33.2279 21.2172C33.0606 21.0502 32.9279 20.8518 32.8373 20.6335C32.7468 20.4151 32.7002 20.1811 32.7002 19.9447C32.7002 19.7083 32.7468 19.4742 32.8373 19.2559C32.9279 19.0375 33.0606 18.8392 33.2279 18.6722L33.2467 18.6539C32.5919 18.8542 31.9581 19.213 31.3827 19.731C31.3063 19.7993 31.2307 19.8715 31.158 19.9445C31.2318 20.019 31.3074 20.0903 31.3827 20.1586C31.9581 20.6761 32.5919 21.0357 33.2462 21.2352V21.2354ZM35.7538 18.6539L35.7724 18.6722C35.9397 18.8392 36.0724 19.0375 36.1629 19.2559C36.2535 19.4742 36.3001 19.7083 36.3001 19.9447C36.3001 20.1811 36.2535 20.4151 36.1629 20.6335C36.0724 20.8518 35.9397 21.0502 35.7724 21.2172L35.7538 21.2354C36.4084 21.0354 37.0419 20.6764 37.6176 20.1586C37.6937 20.0903 37.7693 20.0181 37.8423 19.9445C37.7684 19.8706 37.6929 19.7993 37.6176 19.731C37.0419 19.2127 36.4084 18.8539 35.7527 18.6536L35.7538 18.6539ZM40.2862 19.9445L34.4989 14.1572L28.7116 19.9445L34.4989 25.7318L40.2862 19.9445ZM28.1514 20.4008C26.5472 21.359 24.5835 21.776 22.5697 21.7091C20.436 21.6313 18.3507 21.0517 16.4829 20.0173C14.2867 22.7424 12.7404 25.9322 11.9615 29.3444C13.31 30.0861 15.9401 31.1904 19.0948 31.1401C19.4473 31.1351 19.806 31.1144 20.171 31.078C20.215 31.0643 20.2612 31.0593 20.307 31.0634C22.0977 30.8634 24.0182 30.2594 25.9454 29.0014C26.2338 28.7461 26.5503 28.5245 26.8888 28.3409C27.6048 27.804 28.2836 27.2194 28.9206 26.5909C29.8345 25.6885 30.6688 24.709 31.4145 23.6633L29.8974 22.1462C28.5804 23.5422 27.0987 24.5693 25.4386 25.245C23.7249 25.9434 21.823 26.2645 19.7185 26.2282C19.6233 26.2268 19.5326 26.1876 19.4664 26.1193C19.4001 26.051 19.3637 25.9592 19.3652 25.864C19.3666 25.7689 19.4058 25.6782 19.4741 25.6119C19.5424 25.5457 19.6343 25.5093 19.7294 25.5107C21.7342 25.5453 23.5426 25.2405 25.1687 24.578C26.738 23.9386 28.1401 22.964 29.3895 21.6369L28.1514 20.4008ZM30.8506 16.7896C29.903 15.8625 28.448 15.2324 26.8815 14.9307C25.1038 14.5876 23.1982 14.6722 21.7311 15.229C20.4446 16.0829 19.2465 17.0631 18.1548 18.155C17.7373 18.5724 17.3359 19.0057 16.9507 19.4549C18.6883 20.3933 20.6186 20.9192 22.5922 20.9919C24.5573 21.0568 26.4607 20.6356 27.9738 19.6667L30.8506 16.7896ZM37.222 24.0277C39.2973 25.8737 42.3401 27.5093 46.0634 28.5117C49.2846 29.3795 53.0101 29.7714 57.0545 29.4155C56.547 27.1558 55.7007 24.9858 54.5443 22.9792C52.7329 23.7658 50.0027 24.1617 47.1557 23.7911C44.7759 23.4821 42.3064 22.6379 40.2101 21.0407L39.3344 21.9164L38.8711 22.3774L38.4427 22.8056L37.4088 23.8392L37.222 24.0277ZM50.984 18.294C48.144 18.8997 44.8382 18.3303 42.0064 17.047C39.1476 15.7507 36.7576 13.7184 35.7932 11.4204C35.365 11.3966 34.9342 11.3846 34.5008 11.3844C30.7338 11.3787 27.0229 12.2978 23.694 14.0612C24.8039 13.9578 25.9228 14.0127 27.0172 14.2241C28.7144 14.5508 30.3042 15.2487 31.3591 16.2825L34.5008 13.14L34.7557 13.3948L41.3052 19.9445L40.7233 20.5272C42.695 22.0046 45.0118 22.7885 47.2478 23.0798C49.9204 23.4273 52.4688 23.0725 54.1732 22.3558C53.2644 20.8875 52.1947 19.5251 50.984 18.2938V18.294ZM36.6093 11.4796C37.5864 13.4673 39.7403 15.2304 42.3014 16.3912C44.8469 17.5453 47.7816 18.0968 50.3567 17.6805C46.6975 14.2292 41.9114 11.9589 36.6093 11.4794V11.4796ZM34.0851 7.14141V0H34.9149V7.14113C35.8426 7.15574 36.7582 7.21501 37.6617 7.31896L38.2101 3.15155L39.0296 3.25858L38.4812 7.42628C39.3901 7.55835 40.2918 7.73651 41.1827 7.96006L43.029 1.06812L43.8291 1.28248L41.9825 8.17385C42.8661 8.42472 43.7365 8.72027 44.5902 9.05936L46.1966 5.18047L46.9621 5.49428L45.3543 9.37682C46.1976 9.74135 47.0219 10.1484 47.824 10.5964L51.3919 4.41576L52.1078 4.82705L48.5399 11.0096C49.3287 11.4827 50.0916 11.9934 50.8284 12.5416L53.3877 9.20629L54.0457 9.70833L51.4844 13.0461C52.2037 13.6162 52.894 14.222 53.5526 14.8613L58.6028 9.81115L59.1894 10.3975L54.1395 15.4473C54.7782 16.106 55.3831 16.7956 55.9544 17.5161L59.2919 14.9551L59.7945 15.6131L56.4578 18.1724C57.0064 18.9091 57.5176 19.6729 57.9895 20.4609L64.1721 16.893L64.5834 17.6094L58.4027 21.1773C58.851 21.9794 59.2582 22.8038 59.6229 23.6473L63.5049 22.0398L63.8189 22.8047L59.9414 24.4097C60.2803 25.2633 60.5756 26.1336 60.8261 27.0171L67.7184 25.17L67.9324 25.9703L61.0399 27.8172C61.2631 28.7082 61.4413 29.6098 61.5737 30.5187L65.7417 29.9695L65.8487 30.789L61.681 31.3379C61.7859 32.25 61.8451 33.1667 61.8583 34.0846H69V34.914H61.8583C61.8451 35.8321 61.7859 36.749 61.681 37.6612L65.8487 38.2096L65.7417 39.0294L61.5734 38.4819C61.4413 39.3906 61.2632 40.2921 61.0396 41.1828L67.9322 43.0297L67.7181 43.83L60.8264 41.9829C60.5755 42.8666 60.2799 43.7371 59.9406 44.5908L63.8201 46.1975L63.506 46.9625L59.624 45.355C59.2594 46.1982 58.8524 47.0224 58.4044 47.8244L64.5851 51.3923L64.1724 52.1073L57.9917 48.5377C57.5196 49.3258 57.0082 50.0897 56.4595 50.8265L59.7951 53.3858L59.2916 54.0457L55.9535 51.4844C55.3832 52.2042 54.7783 52.8937 54.1387 53.553L59.1885 58.6028L58.6025 59.1894L53.5518 54.139C52.8931 54.7783 52.2028 55.3842 51.4835 55.9544L54.0448 59.292L53.3869 59.7945L50.8275 56.459C50.0911 57.0075 49.3275 57.5185 48.5396 57.9901L52.1075 64.1707L51.3917 64.5856L47.8237 58.405C47.0216 58.8528 46.1975 59.2599 45.3543 59.6246L46.9621 63.5054L46.1968 63.8195L44.5904 59.9406C43.7368 60.2797 42.8665 60.5751 41.9828 60.8256L43.8299 67.717L43.0298 67.931L41.1827 61.0391C40.2917 61.2624 39.3901 61.4405 38.4812 61.5729L39.0296 65.7417L38.2101 65.8482L37.6631 61.6808C36.7594 61.7847 35.8433 61.8438 34.9149 61.858V69H34.0887V61.858C33.161 61.8444 32.245 61.7853 31.3406 61.6808L30.7916 65.8484L29.9718 65.742L30.5208 61.5732C29.612 61.4408 28.7104 61.2627 27.8196 61.0394L25.9735 67.9319L25.1731 67.7178L27.0192 60.8259C26.1354 60.5754 25.2651 60.2798 24.4115 59.9404L22.8015 63.8195L22.037 63.5054L23.6446 59.6237C22.8015 59.2587 21.9773 58.8515 21.1751 58.4036L17.6072 64.5842L16.8911 64.1724L20.459 57.9898C19.6701 57.5167 18.9074 57.0062 18.1708 56.4581L15.6109 59.7937L14.9535 59.2911L17.5148 55.9536C16.795 55.3827 16.1055 54.7776 15.4462 54.1382L10.3964 59.1886L9.81006 58.6025L14.8596 53.5521C14.221 52.8932 13.616 52.2037 13.0448 51.4836L9.70977 54.0457L9.20717 53.3875L12.543 50.8282C11.9946 50.0916 11.4836 49.3279 11.0119 48.5399L4.82988 52.1073L4.41494 51.3909L10.5956 47.8216C10.1474 47.0198 9.74031 46.1958 9.37574 45.3527L5.4957 46.9619L5.18106 46.1969L9.06024 44.5903C8.72147 43.7365 8.4262 42.866 8.17557 41.9823L1.28164 43.83L1.06841 43.0291L7.96037 41.1822C7.73709 40.2915 7.55894 39.39 7.42659 38.4813L3.25747 39.0297L3.15072 38.2099L7.31899 37.6615C7.21504 36.758 7.15586 35.8418 7.14144 34.9128H0V34.0866H7.14172C7.15539 33.1584 7.21458 32.2423 7.31927 31.3382L3.151 30.7892L3.25775 29.9698L7.42687 30.5181C7.55927 29.6094 7.73742 28.708 7.96065 27.8172L1.06813 25.9712L1.28192 25.1711L8.17416 27.0171C8.42456 26.1334 8.72003 25.2632 9.0594 24.4097L5.18021 22.8025L5.4943 22.0381L9.37602 23.6456C9.74096 22.8023 10.1482 21.9779 10.5961 21.1756L4.4155 17.6077L4.82679 16.8916L11.0097 20.4595C11.4828 19.6701 11.9933 18.9072 12.5413 18.171L9.20661 15.6136L9.70865 14.9562L13.0468 17.5172C13.6169 16.7979 14.2228 16.1076 14.8622 15.449L9.81147 10.3991L10.3978 9.81284L15.4482 14.8624C16.1067 14.2237 16.7962 13.6187 17.5168 13.0473L14.9554 9.70945L15.6134 9.20685L18.173 12.5427C18.908 11.9954 19.6706 11.485 20.461 11.0113L16.8931 4.83071L17.6092 4.41576L21.1771 10.5964C21.9789 10.1483 22.803 9.74131 23.6463 9.3771L22.0382 5.49512L22.8032 5.18075L24.4096 9.06021C25.2633 8.72124 26.1336 8.42569 27.0172 8.17469L25.1701 1.28332L25.9704 1.06953L27.8176 7.96174C28.7085 7.73873 29.6101 7.56058 30.5188 7.42796L29.9704 3.25971L30.7899 3.15267L31.3386 7.32065C32.2413 7.21558 33.1568 7.15574 34.0851 7.14113V7.14141ZM55.89 43.2808C55.8823 43.0787 55.8502 42.8783 55.7945 42.6838C55.5285 41.7385 54.7371 40.8625 53.6962 40.2194C52.6351 39.564 51.324 39.1558 50.044 39.1598C49.5641 39.1589 49.0863 39.2235 48.6239 39.3516C48.533 39.3745 48.4368 39.361 48.3558 39.314C48.2747 39.267 48.2152 39.1902 48.19 39.1C48.1647 39.0098 48.1756 38.9133 48.2203 38.831C48.2651 38.7487 48.3403 38.6871 48.4297 38.6594C48.9556 38.5145 49.4986 38.4414 50.044 38.4422C51.4582 38.438 52.9048 38.8875 54.0724 39.6092C55.1144 40.2532 55.9423 41.1184 56.3438 42.0815C56.9291 40.393 57.3156 38.6422 57.4956 36.8642C54.7792 36.987 52.0816 36.2838 49.8822 34.903C47.7344 33.5545 46.0614 31.5565 45.3113 29.0491C41.7134 28.0007 38.7593 26.3693 36.7107 24.5373L34.498 26.7499L31.9272 24.1791C31.1753 25.2222 30.3373 26.2005 29.422 27.1036C29.1896 27.3327 28.955 27.5535 28.7183 27.7661C29.4274 27.6854 30.1455 27.756 30.8253 27.9731C31.5052 28.1902 32.1313 28.5489 32.6624 29.0255C32.6784 29.0397 32.6931 29.0553 32.7062 29.0722C33.3157 29.8554 33.6809 30.8614 33.8019 32.0903C33.9165 33.2595 33.8084 34.6324 33.4777 36.2088C33.5555 36.39 33.6561 36.5094 33.7777 36.5653C33.926 36.6344 34.1303 36.6273 34.3904 36.544C34.4355 36.5289 34.4832 36.523 34.5306 36.5265C34.578 36.5301 34.6242 36.543 34.6666 36.5645C34.709 36.586 34.7467 36.6157 34.7775 36.6519C34.8083 36.6881 34.8317 36.73 34.8461 36.7753C34.8606 36.8206 34.866 36.8683 34.8619 36.9156C34.8579 36.963 34.8444 37.0091 34.8224 37.0512C34.8004 37.0933 34.7703 37.1307 34.7338 37.1611C34.6972 37.1915 34.655 37.2143 34.6096 37.2283C34.1713 37.3682 33.7936 37.3649 33.4765 37.2185C33.155 37.0686 32.9191 36.7854 32.7689 36.3686C32.7435 36.3039 32.7377 36.233 32.7523 36.165C33.0853 34.6138 33.1969 33.2782 33.0872 32.1582C32.9815 31.0823 32.6706 30.2075 32.1544 29.534C31.4961 28.9555 30.6781 28.5898 29.8081 28.485C28.938 28.3801 28.0565 28.5411 27.2796 28.9466C26.973 29.1751 26.6646 29.3905 26.3542 29.5927C25.1656 30.3712 23.978 30.9131 22.8175 31.2708C19.7201 39.1789 22.5222 43.2974 26.6323 46.0514C26.6647 46.0667 26.6947 46.0868 26.7211 46.111C27.2968 46.4922 27.8971 46.8476 28.5096 47.1827C28.7028 46.876 28.8613 46.4082 28.9852 45.8581C29.1723 45.0285 29.2698 44.0348 29.2799 43.1159C29.0081 42.7958 28.7429 42.4534 28.4843 42.0885C26.8194 39.7376 25.444 36.465 24.6371 32.5086C24.6042 32.349 24.5767 32.2059 24.5548 32.0793C24.5309 31.9428 24.5079 31.7984 24.4871 31.6512C24.4804 31.6044 24.483 31.5569 24.4948 31.5111C24.5065 31.4654 24.5271 31.4225 24.5555 31.3847C24.5838 31.347 24.6193 31.3152 24.6599 31.2911C24.7005 31.2671 24.7455 31.2513 24.7922 31.2446C24.8389 31.238 24.8865 31.2406 24.9322 31.2523C24.9779 31.2641 25.0209 31.2847 25.0586 31.313C25.0964 31.3413 25.1282 31.3768 25.1522 31.4174C25.1763 31.4581 25.1921 31.503 25.1987 31.5497C25.2174 31.6762 25.2392 31.8115 25.2639 31.9557C25.29 32.106 25.3156 32.2425 25.3403 32.3645C26.1269 36.2212 27.4603 39.4008 29.07 41.6736C30.7017 43.9773 32.6098 45.3387 34.5 45.5047C36.391 45.3387 38.2983 43.9784 39.9302 41.6736C40.8854 40.3251 41.7434 38.6574 42.4472 36.7187L42.4486 36.7142L42.4559 36.6937C42.9619 35.2818 43.3642 33.8349 43.6597 32.3645C43.6847 32.242 43.7108 32.1052 43.7367 31.9532C43.7611 31.8144 43.7825 31.6795 43.8016 31.5489C43.8075 31.5015 43.8228 31.4559 43.8465 31.4145C43.8703 31.3731 43.902 31.3368 43.9399 31.3079C43.9779 31.2789 44.0212 31.2578 44.0673 31.2457C44.1135 31.2336 44.1616 31.2309 44.2088 31.2376C44.2561 31.2444 44.3015 31.2605 44.3425 31.2849C44.3834 31.3094 44.4191 31.3418 44.4474 31.3802C44.4757 31.4186 44.4961 31.4623 44.5073 31.5087C44.5186 31.5551 44.5205 31.6032 44.5129 31.6503V31.6528C44.2013 34.8451 45.0914 38.767 46.8396 41.6168C47.4776 42.6563 48.2283 43.5511 49.0739 44.2065C49.9047 44.8504 50.8273 45.2662 51.8243 45.3645C52.9127 45.4727 54.1016 45.2047 55.3714 44.4473C55.5542 44.0646 55.7271 43.6757 55.89 43.2805V43.2808Z" fill="white"/>
<path d="M78.589 47L83.179 22.7H89.299L93.829 47H88.879L88.069 41.87H84.499L83.659 47H78.589ZM84.979 38.66H87.559L86.269 29.18L84.979 38.66ZM96.2824 47V22.7H102.612C103.652 22.7 104.632 22.78 105.552 22.94C106.492 23.1 107.322 23.41 108.042 23.87C108.762 24.31 109.322 24.95 109.722 25.79C110.142 26.61 110.352 27.7 110.352 29.06C110.352 30.04 110.202 30.87 109.902 31.55C109.622 32.21 109.212 32.74 108.672 33.14C108.152 33.54 107.522 33.81 106.782 33.95C107.722 34.07 108.512 34.38 109.152 34.88C109.792 35.36 110.272 36.01 110.592 36.83C110.932 37.65 111.102 38.64 111.102 39.8C111.102 41.06 110.932 42.15 110.592 43.07C110.272 43.97 109.802 44.71 109.182 45.29C108.562 45.87 107.792 46.3 106.872 46.58C105.972 46.86 104.932 47 103.752 47H96.2824ZM101.652 43.25H102.792C103.972 43.25 104.782 42.95 105.222 42.35C105.682 41.75 105.912 40.87 105.912 39.71C105.912 38.79 105.812 38.06 105.612 37.52C105.412 36.98 105.082 36.59 104.622 36.35C104.162 36.09 103.542 35.96 102.762 35.96H101.652V43.25ZM101.652 32.42H102.702C103.522 32.42 104.142 32.3 104.562 32.06C104.982 31.8 105.262 31.43 105.402 30.95C105.562 30.47 105.642 29.89 105.642 29.21C105.642 28.57 105.522 28.04 105.282 27.62C105.062 27.18 104.722 26.85 104.262 26.63C103.822 26.41 103.262 26.3 102.582 26.3H101.652V32.42ZM113.919 47V22.7H122.079C123.539 22.7 124.739 22.98 125.679 23.54C126.619 24.08 127.319 24.88 127.779 25.94C128.239 26.98 128.469 28.25 128.469 29.75C128.469 31.63 128.159 33.07 127.539 34.07C126.919 35.05 126.079 35.73 125.019 36.11C123.959 36.49 122.769 36.68 121.449 36.68H119.289V47H113.919ZM119.289 32.93H121.089C121.749 32.93 122.249 32.81 122.589 32.57C122.929 32.33 123.149 31.97 123.249 31.49C123.369 31.01 123.429 30.4 123.429 29.66C123.429 29.04 123.379 28.5 123.279 28.04C123.199 27.56 122.989 27.18 122.649 26.9C122.309 26.62 121.779 26.48 121.059 26.48H119.289V32.93ZM138.018 47.36C136.198 47.36 134.758 47.04 133.698 46.4C132.638 45.76 131.878 44.84 131.418 43.64C130.958 42.44 130.728 41.01 130.728 39.35V30.32C130.728 28.64 130.958 27.21 131.418 26.03C131.878 24.85 132.638 23.95 133.698 23.33C134.758 22.69 136.198 22.37 138.018 22.37C139.858 22.37 141.308 22.69 142.368 23.33C143.448 23.95 144.218 24.85 144.678 26.03C145.138 27.21 145.368 28.64 145.368 30.32V39.35C145.368 41.01 145.138 42.44 144.678 43.64C144.218 44.84 143.448 45.76 142.368 46.4C141.308 47.04 139.858 47.36 138.018 47.36ZM138.018 43.55C138.578 43.55 138.988 43.41 139.248 43.13C139.508 42.85 139.678 42.49 139.758 42.05C139.838 41.61 139.878 41.16 139.878 40.7V29C139.878 28.52 139.838 28.07 139.758 27.65C139.678 27.21 139.508 26.85 139.248 26.57C138.988 26.29 138.578 26.15 138.018 26.15C137.498 26.15 137.108 26.29 136.848 26.57C136.588 26.85 136.418 27.21 136.338 27.65C136.258 28.07 136.218 28.52 136.218 29V40.7C136.218 41.16 136.248 41.61 136.308 42.05C136.388 42.49 136.548 42.85 136.788 43.13C137.048 43.41 137.458 43.55 138.018 43.55ZM148.636 47V22.7H156.796C158.256 22.7 159.456 22.98 160.396 23.54C161.336 24.08 162.036 24.88 162.496 25.94C162.956 26.98 163.186 28.25 163.186 29.75C163.186 31.63 162.876 33.07 162.256 34.07C161.636 35.05 160.796 35.73 159.736 36.11C158.676 36.49 157.486 36.68 156.166 36.68H154.006V47H148.636ZM154.006 32.93H155.806C156.466 32.93 156.966 32.81 157.306 32.57C157.646 32.33 157.866 31.97 157.966 31.49C158.086 31.01 158.146 30.4 158.146 29.66C158.146 29.04 158.096 28.5 157.996 28.04C157.916 27.56 157.706 27.18 157.366 26.9C157.026 26.62 156.496 26.48 155.776 26.48H154.006V32.93ZM164.107 47L168.697 22.7H174.817L179.347 47H174.397L173.587 41.87H170.017L169.177 47H164.107ZM170.497 38.66H173.077L171.787 29.18L170.497 38.66Z" fill="white"/>
</svg>
