<svg width="61" height="61" viewBox="0 0 61 61" fill="none" xmlns="http://www.w3.org/2000/svg">
<path d="M50.8846 31.9498C50.9187 31.471 50.9358 30.9877 50.936 30.4999C50.9366 29.2014 50.8141 27.9057 50.5702 26.6304C46.9833 26.9545 43.6716 26.6279 40.793 25.8823C41.4596 27.7636 42.7762 29.2739 44.439 30.3183C46.2953 31.4856 48.583 32.0713 50.8846 31.9498ZM28.0846 50.794C30.0188 51.0212 31.9754 50.9743 33.8964 50.6546C35.482 47.2689 32.2035 45.7499 28.3042 43.9436C26.7601 43.228 25.1239 42.47 23.6337 41.5422C23.3702 43.319 23.6657 45.3846 24.4682 47.1455C25.2327 48.8205 26.4544 50.2118 28.0846 50.794ZM18.2265 46.84C20.5986 48.6268 23.3331 49.8726 26.2381 50.4897C25.2357 49.7133 24.4498 48.6292 23.8927 47.41C22.9986 45.4464 22.6964 43.1212 23.0533 41.1666C19.3405 38.6676 16.7945 34.9434 19.4152 27.8528C18.9712 27.9576 18.5215 28.0363 18.0683 28.0885C15.7166 30.5195 14.7248 33.666 14.738 36.8376C14.7522 40.4878 16.0951 44.1696 18.2265 46.84ZM16.0506 44.9502C16.1723 45.0719 16.2955 45.192 16.4202 45.3106C14.9797 42.816 14.1161 39.8173 14.1034 36.8394C14.091 33.7291 15.0025 30.6385 17.1447 28.1573L16.8913 28.1643C14.089 28.2087 11.7335 27.2736 10.4388 26.5896C10.19 27.8782 10.0653 29.1876 10.0662 30.4999C10.0645 36.1432 12.3524 41.2521 16.0506 44.9502ZM30.5007 51.5721C24.6818 51.5721 19.4137 49.2126 15.6006 45.4002C11.7874 41.5878 9.42844 36.3186 9.42844 30.4999C9.42844 24.6812 11.7879 19.4131 15.6008 15.5995C19.4137 11.7859 24.682 9.42741 30.501 9.42741C36.3199 9.42741 41.588 11.7869 45.4014 15.5995C46.6419 16.84 47.7232 18.23 48.6205 19.7375L48.6245 19.7447C50.5597 22.9977 51.5785 26.7138 51.5728 30.4989C51.5728 31.0964 51.548 31.6878 51.4983 32.2729V32.2809C51.0704 37.389 48.8207 41.9788 45.4009 45.3987C41.587 49.2136 36.3194 51.5721 30.5007 51.5721ZM29.2376 35.0882C29.7151 35.2574 30.2247 35.3167 30.7283 35.2616C31.2319 35.2064 31.7166 35.0383 32.1462 34.7698C32.0688 34.7264 31.9875 34.6904 31.9033 34.6625C31.6941 34.5935 31.4719 34.5735 31.2538 34.6038C31.2076 34.6106 31.1629 34.6187 31.1209 34.6287C31.0847 34.6374 31.0486 34.6476 31.0134 34.659L30.9885 34.6677C30.8706 34.7089 30.7921 34.7395 30.7317 34.7633C30.5758 34.8246 30.4948 34.8567 30.3619 34.8522C30.2293 34.8567 30.1481 34.8246 29.9923 34.7633C29.9315 34.7385 29.8535 34.7089 29.7353 34.6677C29.6941 34.6533 29.6494 34.6406 29.6024 34.6289C29.5624 34.6195 29.5177 34.6108 29.47 34.6041C29.252 34.5737 29.0299 34.5938 28.8208 34.6627C28.7366 34.6905 28.6552 34.7265 28.5779 34.77C28.7855 34.8999 29.0067 35.0066 29.2376 35.0882ZM30.3619 35.9174C29.445 35.9164 28.5562 35.6008 27.844 35.0233C27.8115 34.9971 27.7846 34.9646 27.7647 34.9279C27.7448 34.8912 27.7323 34.8509 27.728 34.8094C27.7237 34.7679 27.7277 34.7259 27.7397 34.6859C27.7516 34.6459 27.7714 34.6086 27.7978 34.5763L27.8199 34.5514C28.0455 34.3281 28.3196 34.1597 28.6209 34.0594C28.9221 33.9591 29.2425 33.9297 29.557 33.9733C29.6181 33.9817 29.6826 33.9944 29.7502 34.0105H29.7517C29.8158 34.0259 29.8792 34.0445 29.9414 34.0664V34.0651C30.0569 34.1051 30.1503 34.1416 30.2233 34.1705C30.3008 34.201 30.3401 34.2161 30.344 34.2161H30.3788C30.383 34.2161 30.422 34.201 30.4995 34.1705C30.5725 34.1416 30.6659 34.1051 30.7816 34.0651L30.8092 34.0569C30.8632 34.0391 30.9173 34.0237 30.9714 34.011C31.0355 33.9948 31.1004 33.9822 31.1659 33.9733C31.4806 33.9294 31.8012 33.9588 32.1027 34.0591C32.4043 34.1594 32.6786 34.3279 32.9044 34.5514C32.9339 34.5809 32.9572 34.6159 32.9732 34.6543C32.9891 34.6928 32.9973 34.7341 32.9973 34.7757C32.9973 34.8174 32.9891 34.8586 32.9732 34.8971C32.9572 34.9356 32.9339 34.9705 32.9044 35C32.8945 35.0101 32.8838 35.0195 32.8724 35.0281C32.1612 35.6017 31.2752 35.915 30.3614 35.9157L30.3619 35.9174ZM29.165 37.2601C29.1292 37.2371 29.0984 37.2071 29.0744 37.172C29.0504 37.1369 29.0338 37.0972 29.0254 37.0555C29.017 37.0138 29.0172 36.9708 29.0257 36.9291C29.0343 36.8874 29.0512 36.8479 29.0754 36.8129C29.0996 36.7779 29.1306 36.7481 29.1666 36.7253C29.2025 36.7025 29.2427 36.6872 29.2847 36.6803C29.3266 36.6733 29.3696 36.6749 29.411 36.6849C29.4523 36.6949 29.4912 36.7132 29.5254 36.7385C29.7566 36.8985 30.0572 36.9787 30.3619 36.9787C30.6667 36.9787 30.9672 36.8985 31.1982 36.7385C31.2323 36.7127 31.2713 36.694 31.3129 36.6836C31.3544 36.6733 31.3976 36.6714 31.4399 36.6782C31.4822 36.685 31.5227 36.7002 31.5589 36.723C31.5952 36.7459 31.6264 36.7758 31.6508 36.811C31.6751 36.8462 31.6921 36.886 31.7007 36.928C31.7093 36.9699 31.7093 37.0132 31.7007 37.0551C31.6922 37.0971 31.6752 37.1369 31.6508 37.1721C31.6265 37.2073 31.5953 37.2373 31.559 37.2601C31.2178 37.4965 30.7879 37.6148 30.3619 37.6148C29.936 37.6148 29.5055 37.4951 29.165 37.2589V37.2601ZM38.0868 25.6615C38.1199 25.6886 38.1472 25.7221 38.167 25.7601C38.1869 25.798 38.1988 25.8395 38.2021 25.8822C38.2054 25.9249 38.2001 25.9678 38.1863 26.0083C38.1726 26.0488 38.1509 26.0862 38.1223 26.1181C38.0938 26.15 38.0591 26.1758 38.0203 26.1939C37.9815 26.212 37.9395 26.2221 37.8967 26.2235C37.854 26.2249 37.8113 26.2177 37.7714 26.2022C37.7315 26.1867 37.6952 26.1633 37.6646 26.1334C36.9612 25.5038 36.0504 25.1557 35.1064 25.1557C34.1624 25.1557 33.2516 25.5038 32.5483 26.1334C32.5174 26.1621 32.4812 26.1843 32.4417 26.1988C32.4022 26.2134 32.3601 26.2198 32.3181 26.2179C32.276 26.216 32.2348 26.2057 32.1967 26.1876C32.1587 26.1696 32.1246 26.1441 32.0965 26.1127C32.0685 26.0813 32.0469 26.0447 32.0332 26.0049C32.0195 25.9651 32.0138 25.9229 32.0165 25.8809C32.0193 25.8389 32.0304 25.7978 32.0492 25.7602C32.068 25.7225 32.0941 25.6889 32.126 25.6615C32.9446 24.9262 34.0061 24.5194 35.1064 24.5194C36.2068 24.5194 37.2682 24.9262 38.0868 25.6615ZM33.1195 28.3766C33.036 28.3889 32.9511 28.3674 32.8834 28.3171C32.8157 28.2667 32.7708 28.1915 32.7585 28.108C32.7463 28.0245 32.7677 27.9396 32.8181 27.8719C32.8684 27.8042 32.9436 27.7593 33.0271 27.747C33.3038 27.7065 33.6545 27.7718 34.0566 27.8476C34.872 27.9998 35.9402 28.2 36.5666 27.4502C36.6214 27.3879 36.6983 27.3495 36.781 27.3432C36.8637 27.3369 36.9456 27.3631 37.0092 27.4163C37.0729 27.4696 37.1132 27.5455 37.1215 27.6281C37.1299 27.7106 37.1057 27.7931 37.0541 27.858C36.1896 28.8932 34.9134 28.6543 33.9401 28.4722C33.5956 28.4072 33.2963 28.3498 33.1208 28.3754L33.1195 28.3766ZM27.9707 27.747C28.0541 27.7593 28.1293 27.8042 28.1797 27.8719C28.2301 27.9396 28.2515 28.0245 28.2393 28.108C28.227 28.1915 28.1821 28.2667 28.1144 28.3171C28.0467 28.3674 27.9618 28.3889 27.8783 28.3766C27.7044 28.3518 27.4034 28.4074 27.0587 28.4717C26.0853 28.6538 24.8092 28.8927 23.9444 27.8575C23.8908 27.7928 23.865 27.7094 23.8727 27.6257C23.8803 27.542 23.9208 27.4648 23.9853 27.4109C24.0498 27.3569 24.133 27.3308 24.2168 27.338C24.3005 27.3453 24.378 27.3855 24.4322 27.4497C25.0591 28.2 26.1268 27.9998 26.9407 27.8471C27.3445 27.7708 27.6952 27.7053 27.9719 27.7458L27.9707 27.747ZM35.3153 37.875C35.2577 38.3322 35.2291 38.7925 35.2296 39.2532C35.2383 41.3529 35.892 43.1662 37.0129 44.5104C38.1273 45.847 39.7096 46.7233 41.5798 46.956C41.8961 46.9957 42.2143 47.0169 42.533 47.0196C43.1007 46.6048 43.6469 46.1615 44.1695 45.6913C44.0312 44.9353 43.6432 44.1443 43.1329 43.4501C42.5514 42.6588 41.8165 42.0014 41.1186 41.6698C41.0425 41.6338 40.9837 41.5691 40.9553 41.4898C40.9269 41.4106 40.9311 41.3232 40.9671 41.2471C41.0031 41.1709 41.0678 41.1122 41.1471 41.0838C41.2264 41.0554 41.3137 41.0596 41.3898 41.0956C42.1829 41.4714 43.0042 42.2018 43.6455 43.0743C44.1231 43.725 44.5053 44.4592 44.7053 45.1906C44.7872 45.1119 44.8689 45.0319 44.9491 44.9514C46.3354 43.5659 47.5157 41.9886 48.4538 40.2678C47.5071 40.6843 46.6028 40.8244 45.7519 40.7397C44.7445 40.6403 43.8203 40.2266 42.995 39.5865C42.1836 38.9569 41.4683 38.1083 40.8655 37.1255C39.7342 35.2811 38.9924 32.9492 38.7495 30.7035C38.5622 31.3824 38.3557 32.0324 38.13 32.6537C37.5553 34.6436 37.496 36.7929 37.832 38.6708C38.1747 40.5877 38.9248 42.209 39.9538 43.0669C39.9868 43.0932 40.0142 43.1258 40.0344 43.1628C40.0547 43.1999 40.0673 43.2406 40.0716 43.2826C40.0759 43.3246 40.0718 43.367 40.0595 43.4074C40.0472 43.4477 40.0269 43.4853 39.9999 43.5177C39.9729 43.5502 39.9397 43.5769 39.9023 43.5963C39.8648 43.6158 39.8238 43.6276 39.7818 43.631C39.7397 43.6344 39.6974 43.6294 39.6573 43.6162C39.6172 43.6031 39.5801 43.5821 39.5482 43.5544C38.4032 42.5997 37.5759 40.8405 37.2079 38.7831C36.9989 37.5957 36.9414 36.3866 37.0367 35.1848C36.6785 35.8879 36.2712 36.5649 35.8177 37.2107C35.6538 37.4415 35.4868 37.6625 35.3166 37.8738L35.3153 37.875ZM26.4949 38.7836C26.4569 39.4388 26.3732 40.1024 26.2425 40.6823C26.1243 41.2064 25.9648 41.6701 25.7617 42.0121C26.6953 42.4988 27.6493 42.9412 28.57 43.3676C32.6431 45.2552 36.09 46.8519 34.6457 50.5158C37.1533 49.9985 39.5404 49.012 41.6817 47.6082C41.6218 47.6017 41.5624 47.5953 41.5028 47.5878C39.468 47.334 37.7441 46.3776 36.5251 44.9154C35.3121 43.4608 34.6047 41.5084 34.5955 39.256V39.2545C34.5955 39.0629 34.5998 38.8701 34.6082 38.676C33.3348 39.9881 31.9331 40.7531 30.5236 40.8686C30.5071 40.8697 30.4905 40.8697 30.4739 40.8686H30.464C29.099 40.7509 27.7384 40.0256 26.4961 38.7823L26.4949 38.7836ZM13.8446 47.1552C18.1063 51.4174 23.9951 54.0535 30.4988 54.0535C37.0025 54.0535 42.8922 51.4174 47.1529 47.1552C51.4136 42.893 54.0517 37.005 54.0517 30.5011C54.0517 23.9972 51.4151 18.1077 47.1529 13.8468C42.8907 9.58587 37.0039 6.94849 30.5 6.94849C23.9961 6.94849 18.1066 9.58463 13.8459 13.8466C9.58516 18.1085 6.94727 23.997 6.94727 30.5009C6.94727 37.0048 9.58367 42.8923 13.8459 47.1539L13.8446 47.1552ZM26.8694 17.421C27.0104 17.2634 27.1596 17.1133 27.3165 16.9715C28.2677 16.1164 29.3816 15.6882 30.4978 15.6882C31.6139 15.6882 32.7278 16.1164 33.6791 16.9715C33.8364 17.1132 33.9861 17.2633 34.1274 17.421L34.3186 17.6331L34.1274 17.8457C33.9861 18.0034 33.8365 18.1534 33.6791 18.295C32.7278 19.1501 31.6139 19.5783 30.4978 19.5783C29.3816 19.5783 28.2677 19.1501 27.3165 18.295C27.1595 18.1533 27.0103 18.0033 26.8694 17.8457L26.6782 17.6331L26.8694 17.421ZM31.1751 16.9576C31.0189 16.8009 30.8132 16.7033 30.5932 16.6814C30.3731 16.6594 30.1522 16.7145 29.9681 16.8371C29.7841 16.9598 29.6483 17.1425 29.5839 17.3541C29.5196 17.5657 29.5306 17.7931 29.6151 17.9975C29.6996 18.2019 29.8524 18.3707 30.0474 18.475C30.2424 18.5794 30.4676 18.6128 30.6845 18.5697C30.9015 18.5266 31.0967 18.4096 31.237 18.2386C31.3774 18.0676 31.454 17.8533 31.454 17.6321C31.4541 17.5069 31.4296 17.3828 31.3817 17.2671C31.3339 17.1513 31.2636 17.0461 31.1751 16.9576ZM29.3915 18.7734L29.3754 18.7572C29.2275 18.6096 29.1102 18.4342 29.0301 18.2412C28.9501 18.0482 28.9088 17.8412 28.9088 17.6322C28.9088 17.4233 28.9501 17.2163 29.0301 17.0233C29.1102 16.8303 29.2275 16.6549 29.3754 16.5073L29.392 16.4911C28.8131 16.6682 28.2528 16.9854 27.7441 17.4434C27.6766 17.5037 27.6098 17.5675 27.5454 17.6321C27.6108 17.6979 27.6776 17.761 27.7441 17.8214C28.2528 18.2789 28.8131 18.597 29.3915 18.7734ZM31.6085 16.4911L31.6248 16.5073C31.7727 16.6549 31.8901 16.8303 31.9701 17.0233C32.0502 17.2163 32.0914 17.4233 32.0914 17.6322C32.0914 17.8412 32.0502 18.0482 31.9701 18.2412C31.8901 18.4342 31.7727 18.6096 31.6248 18.7572L31.6085 18.7734C32.1871 18.5965 32.7472 18.2791 33.2561 17.8214C33.3234 17.761 33.3902 17.6972 33.4548 17.6321C33.3895 17.5668 33.3227 17.5037 33.2561 17.4434C32.7472 16.9851 32.1871 16.668 31.6075 16.4909L31.6085 16.4911ZM35.6153 17.6321L30.499 12.5158L25.3827 17.6321L30.499 22.7484L35.6153 17.6321ZM24.8874 18.0355C23.4693 18.8826 21.7332 19.2512 19.9529 19.1921C18.0666 19.1233 16.2231 18.6109 14.5718 17.6964C12.6303 20.1056 11.2633 22.9256 10.5746 25.9421C11.7668 26.5978 14.092 27.5741 16.8809 27.5297C17.1925 27.5252 17.5097 27.5069 17.8324 27.4748C17.8712 27.4626 17.9121 27.4582 17.9526 27.4619C19.5357 27.285 21.2335 26.7511 22.9373 25.6389C23.1922 25.4132 23.472 25.2173 23.7713 25.055C24.4042 24.5804 25.0043 24.0635 25.5675 23.5079C26.3754 22.7101 27.113 21.8442 27.7722 20.9197L26.431 19.5786C25.2667 20.8127 23.9568 21.7207 22.4892 22.318C20.9742 22.9354 19.2928 23.2193 17.4323 23.1873C17.3481 23.186 17.268 23.1514 17.2094 23.091C17.1508 23.0306 17.1187 22.9494 17.1199 22.8653C17.1212 22.7812 17.1559 22.701 17.2163 22.6424C17.2766 22.5839 17.3578 22.5517 17.442 22.553C19.2143 22.5835 20.813 22.314 22.2505 21.7284C23.6379 21.1631 24.8775 20.3015 25.982 19.1283L24.8874 18.0355ZM27.2737 14.843C26.436 14.0234 25.1497 13.4663 23.7648 13.1996C22.1932 12.8963 20.5085 12.9711 19.2116 13.4633C18.0742 14.2182 17.0151 15.0847 16.0499 16.05C15.6808 16.4191 15.326 16.8022 14.9854 17.1992C16.5216 18.0288 18.2281 18.4938 19.9728 18.558C21.7101 18.6154 23.3928 18.2431 24.7305 17.3865L27.2737 14.843ZM32.9064 21.2418C34.7411 22.8739 37.4311 24.3198 40.7227 25.206C43.5705 25.9732 46.864 26.3197 50.4395 26.005C49.9908 24.0073 49.2427 22.0889 48.2204 20.315C46.6189 21.0104 44.2053 21.3603 41.6884 21.0327C39.5845 20.7595 37.4013 20.0132 35.548 18.6012L34.7739 19.3754L34.3643 19.783L33.9856 20.1615L33.0716 21.0752L32.9064 21.2418ZM45.0728 16.173C42.5621 16.7085 39.6396 16.205 37.1361 15.0705C34.6087 13.9245 32.4959 12.1279 31.6432 10.0963C31.2647 10.0752 30.8839 10.0646 30.5007 10.0645C27.1704 10.0594 23.8898 10.872 20.9469 12.4309C21.9281 12.3395 22.9173 12.388 23.8848 12.5749C25.3852 12.8638 26.7907 13.4807 27.7233 14.3947L30.5007 11.6165L30.726 11.8418L36.5162 17.6321L36.0018 18.1472C37.7448 19.4534 39.7931 20.1463 41.7698 20.4039C44.1325 20.7111 46.3854 20.3974 47.8923 19.7638C47.0888 18.4658 46.1431 17.2616 45.0728 16.173ZM32.3647 10.1487C33.2285 11.9058 35.1328 13.4646 37.3969 14.4908C39.6473 15.5111 42.2417 15.9986 44.5182 15.6306C41.2833 12.5794 37.0521 10.5726 32.3647 10.1487ZM30.1332 6.31342V0H30.8668V6.31317C31.6869 6.32609 32.4964 6.37849 33.2951 6.47039L33.7799 2.78615L34.5044 2.88078L34.0196 6.56526C34.8232 6.68202 35.6203 6.83952 36.4079 7.03715L38.0401 0.944281L38.7475 1.13378L37.115 7.22616C37.8962 7.44794 38.6656 7.70923 39.4203 8.009L40.8404 4.57984L41.5172 4.85726L40.0958 8.28965C40.8414 8.61192 41.5701 8.97176 42.2792 9.3678L45.4335 3.90379L46.0663 4.2674L42.9121 9.73315C43.6095 10.1514 44.2839 10.6028 44.9352 11.0875L47.1978 8.1389L47.7795 8.58272L45.5152 11.5335C46.1511 12.0375 46.7614 12.5731 47.3436 13.1382L51.8083 8.67362L52.3268 9.19196L47.8625 13.6563C48.4271 14.2386 48.9619 14.8483 49.4669 15.4853L52.4175 13.2212L52.8618 13.8028L49.912 16.0654C50.397 16.7167 50.8489 17.3919 51.2661 18.0886L56.7318 14.9344L57.0955 15.5677L51.6314 18.7219C52.0277 19.4311 52.3877 20.1599 52.7101 20.9056L56.142 19.4844L56.4197 20.1607L52.9917 21.5796C53.2913 22.3342 53.5523 23.1036 53.7738 23.8847L59.867 22.2517L60.0562 22.9593L53.9628 24.592C54.1602 25.3797 54.3177 26.1768 54.4347 26.9803L58.1195 26.4948L58.2141 27.2192L54.5296 27.7045C54.6223 28.5108 54.6746 29.3213 54.6863 30.1328H61V30.866H54.6863C54.6746 31.6777 54.6223 32.4883 54.5296 33.2947L58.2141 33.7795L58.1195 34.5043L54.4345 34.0202C54.3177 34.8236 54.1602 35.6205 53.9626 36.408L60.056 38.0407L59.8667 38.7483L53.7741 37.1153C53.5523 37.8966 53.2909 38.6661 52.991 39.4209L56.4206 40.8413L56.143 41.5176L52.7111 40.0964C52.3888 40.8419 52.0289 41.5705 51.6329 42.2795L57.0969 45.4338L56.7321 46.0659L51.2681 42.9101C50.8507 43.6069 50.3986 44.2822 49.9135 44.9336L52.8623 47.1962L52.4173 47.7796L49.4662 45.5152C48.962 46.1515 48.4272 46.7611 47.8617 47.3439L52.3261 51.8083L51.808 52.3269L47.3429 47.862C46.7606 48.4272 46.1503 48.9628 45.5144 49.467L47.7788 52.4175L47.1971 52.8618L44.9345 49.913C44.2834 50.3979 43.6083 50.8497 42.9118 51.2666L46.066 56.7306L45.4332 57.0975L42.279 51.6334C41.5699 52.0293 40.8412 52.3892 40.0958 52.7116L41.5172 56.1425L40.8407 56.4202L39.4205 52.991C38.6659 53.2908 37.8965 53.5519 37.1152 53.7733L38.7482 59.8657L38.0409 60.055L36.4079 53.9621C35.6202 54.1595 34.8231 54.317 34.0196 54.434L34.5044 58.1195L33.7799 58.2136L33.2963 54.5294C32.4974 54.6213 31.6876 54.6735 30.8668 54.6861V61H30.1364V54.6861C29.3163 54.674 28.5065 54.6218 27.7069 54.5294L27.2216 58.2139L26.4969 58.1197L26.9822 54.4342C26.1787 54.3172 25.3817 54.1597 24.5941 53.9623L22.9621 60.0557L22.2545 59.8665L23.8865 53.7736C23.1052 53.5521 22.3358 53.2909 21.5812 52.9907L20.1578 56.4202L19.482 56.1425L20.9032 52.7108C20.1578 52.3882 19.4292 52.0282 18.72 51.6322L15.5658 57.0962L14.9327 56.7321L18.087 51.2664C17.3895 50.8481 16.7152 50.3968 16.064 49.9123L13.8009 52.8611L13.2197 52.4168L15.4841 49.4662C14.8478 48.9615 14.2382 48.4266 13.6554 47.8613L9.191 52.3261L8.67267 51.808L13.1368 47.3432C12.5722 46.7607 12.0374 46.1511 11.5323 45.5145L8.584 47.7796L8.13968 47.1977L11.0888 44.9351C10.6039 44.2839 10.1521 43.6087 9.73517 42.9121L4.2699 46.0659L3.90306 45.4325L9.3671 42.2771C8.97093 41.5682 8.611 40.8398 8.28869 40.0944L4.85852 41.5171L4.58035 40.8408L8.00978 39.4204C7.71029 38.6656 7.44925 37.8961 7.22768 37.1148L1.13304 38.7483L0.944534 38.0402L7.03743 36.4075C6.84004 35.62 6.68254 34.8231 6.56554 34.0197L2.87979 34.5045L2.78542 33.7798L6.47041 33.295C6.37852 32.4962 6.32619 31.6862 6.31344 30.865H0V30.1345H6.31369C6.32578 29.3139 6.3781 28.504 6.47066 27.7048L2.78567 27.2195L2.88004 26.495L6.56578 26.9798C6.68283 26.1765 6.84033 25.3795 7.03768 24.592L0.944285 22.96L1.13329 22.2527L7.22644 23.8847C7.4478 23.1035 7.70901 22.3341 8.00903 21.5796L4.57961 20.1587L4.85728 19.4829L8.28894 20.9041C8.61158 20.1585 8.97159 19.4297 9.36759 18.7205L3.90356 15.5662L4.26716 14.9331L9.73319 18.0874C10.1514 17.3895 10.6028 16.7151 11.0873 16.0642L8.13918 13.8033L8.58301 13.2222L11.5341 15.4863C12.0381 14.8503 12.5738 14.24 13.139 13.6578L8.67391 9.19345L9.19225 8.67512L13.6571 13.1392C14.2393 12.5746 14.8488 12.0397 15.4858 11.5345L13.2215 8.58372L13.8031 8.13939L16.066 11.0885C16.7157 10.6047 17.39 10.1534 18.0887 9.73464L14.9345 4.27063L15.5675 3.90379L18.7218 9.3678C19.4306 8.97165 20.1592 8.61188 20.9047 8.2899L19.483 4.858L20.1593 4.58009L21.5795 8.00975C22.3342 7.71008 23.1036 7.4488 23.8848 7.2269L22.2518 1.13453L22.9594 0.945524L24.5924 7.03864C25.38 6.84149 26.177 6.68399 26.9804 6.56675L26.4956 2.88177L27.2201 2.78714L27.7051 6.47188C28.5032 6.37899 29.3126 6.32634 30.1332 6.31342ZM49.41 38.2627C49.4032 38.0841 49.3748 37.9069 49.3256 37.735C49.0904 36.8992 48.3907 36.1248 47.4706 35.5563C46.5325 34.9769 45.3734 34.616 44.2418 34.6195C43.8175 34.6188 43.3952 34.6758 42.9863 34.7891C42.906 34.8093 42.821 34.7974 42.7493 34.7558C42.6777 34.7143 42.6251 34.6464 42.6027 34.5667C42.5803 34.4869 42.59 34.4016 42.6296 34.3288C42.6692 34.2561 42.7356 34.2017 42.8147 34.1772C43.2796 34.049 43.7596 33.9844 44.2418 33.9852C45.4921 33.9814 46.7709 34.3788 47.8031 35.0169C48.7243 35.5861 49.4562 36.3511 49.8111 37.2025C50.3286 35.7098 50.6703 34.1619 50.8294 32.5901C48.428 32.6986 46.0432 32.077 44.0987 30.8563C42.2 29.6641 40.721 27.8978 40.0578 25.6811C36.877 24.7542 34.2655 23.312 32.4544 21.6924L30.4983 23.6485L28.2255 21.3757C27.5608 22.2979 26.8199 23.1627 26.0108 23.9612C25.8053 24.1637 25.5979 24.3589 25.3886 24.5468C26.0155 24.4755 26.6504 24.5379 27.2514 24.7298C27.8524 24.9217 28.4059 25.2388 28.8754 25.6602C28.8896 25.6727 28.9026 25.6866 28.9142 25.7015C29.453 26.3939 29.7759 27.2833 29.8828 28.3697C29.9841 29.4033 29.8886 30.617 29.5962 32.0107C29.665 32.1709 29.7539 32.2764 29.8615 32.3259C29.9926 32.3869 30.1732 32.3807 30.4031 32.307C30.443 32.2937 30.4851 32.2885 30.527 32.2916C30.5689 32.2947 30.6098 32.3061 30.6473 32.3251C30.6847 32.3441 30.7181 32.3704 30.7453 32.4024C30.7726 32.4344 30.7932 32.4715 30.806 32.5115C30.8188 32.5515 30.8236 32.5937 30.82 32.6356C30.8164 32.6774 30.8045 32.7182 30.7851 32.7554C30.7656 32.7927 30.739 32.8257 30.7067 32.8526C30.6743 32.8794 30.637 32.8996 30.5969 32.912C30.2094 33.0357 29.8755 33.0328 29.5952 32.9033C29.3109 32.7708 29.1024 32.5204 28.9696 32.152C28.9471 32.0947 28.942 32.0321 28.9549 31.9719C29.2493 30.6006 29.348 29.4199 29.251 28.4298C29.1576 27.4785 28.8827 26.7052 28.4264 26.1098C27.8444 25.5984 27.1213 25.2751 26.3521 25.1824C25.5828 25.0897 24.8036 25.232 24.1168 25.5905C23.8457 25.7925 23.573 25.9829 23.2986 26.1617C22.2478 26.8499 21.198 27.329 20.172 27.6452C17.4338 34.6364 19.9109 38.2774 23.5445 40.7121C23.5732 40.7256 23.5996 40.7434 23.623 40.7648C24.1319 41.1018 24.6627 41.416 25.2041 41.7123C25.375 41.4411 25.5151 41.0275 25.6246 40.5412C25.79 39.8078 25.8762 38.9294 25.8851 38.117C25.6449 37.834 25.4104 37.5312 25.1818 37.2087C23.7099 35.1304 22.4939 32.2372 21.7806 28.7395C21.7515 28.5984 21.7272 28.4719 21.7079 28.36C21.6868 28.2393 21.6664 28.1116 21.648 27.9815C21.6421 27.9402 21.6444 27.8981 21.6548 27.8577C21.6652 27.8173 21.6834 27.7793 21.7084 27.7459C21.7335 27.7125 21.7649 27.6844 21.8008 27.6632C21.8367 27.6419 21.8764 27.628 21.9177 27.6221C21.9591 27.6162 22.0011 27.6185 22.0415 27.6289C22.0819 27.6392 22.1199 27.6575 22.1533 27.6825C22.1867 27.7076 22.2148 27.7389 22.236 27.7748C22.2573 27.8108 22.2712 27.8505 22.2771 27.8918C22.2937 28.0036 22.3129 28.1232 22.3347 28.2507C22.3578 28.3836 22.3804 28.5043 22.4023 28.6121C23.0977 32.0216 24.2765 34.8326 25.6996 36.8419C27.1421 38.8784 28.829 40.082 30.5 40.2288C32.1717 40.082 33.8579 38.8794 35.3007 36.8419C36.1451 35.6497 36.9036 34.1754 37.5258 32.4615L37.527 32.4575L37.5335 32.4394C37.9808 31.1912 38.3365 29.912 38.5977 28.6121C38.6198 28.5038 38.6429 28.3828 38.6658 28.2485C38.6874 28.1258 38.7062 28.0065 38.7231 27.8911C38.7283 27.8492 38.7419 27.8088 38.7629 27.7722C38.7839 27.7356 38.8119 27.7036 38.8455 27.678C38.879 27.6524 38.9173 27.6337 38.9581 27.623C38.9989 27.6124 39.0414 27.6099 39.0832 27.6159C39.1249 27.6218 39.1651 27.6361 39.2013 27.6577C39.2375 27.6793 39.2691 27.708 39.2941 27.7419C39.3191 27.7759 39.3371 27.8145 39.3471 27.8555C39.357 27.8965 39.3587 27.9391 39.352 27.9807V27.983C39.0766 30.8051 39.8634 34.2723 41.4089 36.7917C41.973 37.7106 42.6366 38.5017 43.3842 39.0811C44.1186 39.6504 44.9342 40.0179 45.8157 40.1049C46.7779 40.2005 47.8289 39.9635 48.9516 39.294C49.1132 38.9557 49.266 38.6121 49.41 38.2627Z" fill="white"/>
</svg>
