<svg width="41" height="40" viewBox="0 0 41 40" fill="none" xmlns="http://www.w3.org/2000/svg">
<g clip-path="url(#clip0_14_1736)">
<path d="M40.0446 34.0014C40.0446 37.201 37.464 39.7946 34.2808 39.7946H6.21912C3.0359 39.7946 0.455444 37.201 0.455444 34.0014V5.99881C0.455444 2.79926 3.036 0.205566 6.21912 0.205566H34.2808C37.464 0.205566 40.0446 2.79936 40.0446 5.99881V34.0014Z" fill="#55ABCA"/>
<path d="M20.2277 5.97852C16.2634 5.97852 13.0498 9.20873 13.0498 13.1933C13.0498 17.1779 16.2634 20.4083 20.2277 20.4083C24.192 20.4083 27.4057 17.1779 27.4057 13.1933C27.4057 9.20873 24.192 5.97852 20.2277 5.97852ZM20.2277 16.1759C18.589 16.1759 17.2605 14.8405 17.2605 13.1934C17.2605 11.5463 18.589 10.211 20.2277 10.211C21.8664 10.211 23.1949 11.5463 23.1949 13.1934C23.1949 14.8405 21.8664 16.1759 20.2277 16.1759Z" fill="white"/>
<path d="M22.7618 26.1489C25.6354 25.5605 27.3575 24.1927 27.4486 24.1192C28.2895 23.4414 28.4245 22.2068 27.7502 21.3615C27.0759 20.5163 25.8477 20.3805 25.0066 21.0582C24.9888 21.0727 23.1522 22.4889 20.1302 22.4909C17.1084 22.4889 15.2329 21.0727 15.2151 21.0582C14.374 20.3805 13.1458 20.5163 12.4715 21.3615C11.7972 22.2068 11.9323 23.4414 12.7731 24.1192C12.8655 24.1937 14.6586 25.5971 17.6127 26.1717L13.4956 30.4966C12.7473 31.2765 12.7698 32.5184 13.5458 33.2704C13.9245 33.6375 14.4127 33.8199 14.9004 33.8199C15.4117 33.8199 15.9226 33.6191 16.3055 33.2198L20.1303 29.1245L24.3415 33.2464C25.1045 34.012 26.34 34.0108 27.1016 33.2442C27.8632 32.4775 27.8622 31.2354 27.0994 30.4699L22.7618 26.1489Z" fill="white"/>
</g>
<defs>
<clipPath id="clip0_14_1736">
<rect width="40" height="40" fill="white" transform="translate(0.25)"/>
</clipPath>
</defs>
</svg>
