<svg width="48" height="48" viewBox="0 0 48 48" fill="none" xmlns="http://www.w3.org/2000/svg">
<path d="M34.493 23.4927H25.6685V14.6627C25.6685 14.0588 25.1757 13.5677 24.5735 13.5677H12.1597C11.5544 13.5677 11.0648 14.0584 11.0648 14.6627V23.4927H2.2395C1.63521 23.4927 1.14453 23.9826 1.14453 24.588V36.9931C1.14453 37.5942 1.63521 38.0881 2.2395 38.0881H11.0644V46.9039C11.0644 47.5075 11.5544 47.9993 12.1594 47.9993H24.5732C25.1753 47.9993 25.6681 47.5075 25.6681 46.9039V38.0881H34.493C35.0941 38.0881 35.588 37.5942 35.588 36.9931V24.5884C35.5884 23.9783 35.0941 23.4927 34.493 23.4927ZM33.3981 35.8985H24.5732C23.9681 35.8985 23.4782 36.3863 23.4782 36.9935V45.8097H13.2547V36.9935C13.2547 36.3859 12.764 35.8985 12.1597 35.8985H3.33484V25.6833H12.1597C12.764 25.6833 13.2547 25.1894 13.2547 24.5887V15.7577H23.4782V24.588C23.4782 25.1887 23.9681 25.6826 24.5732 25.6826H33.3981V35.8985ZM36.3524 15.2894H28.2338C28.2338 14.1984 28.5099 13.2659 29.0592 12.4908C29.6092 11.7154 30.6463 10.7905 32.1625 9.72012C32.8449 9.24537 33.3218 8.81295 33.6001 8.41419C33.8784 8.02085 34.013 7.58011 34.013 7.09667C34.013 6.56837 33.8653 6.13848 33.5552 5.82222C33.2513 5.50234 32.8493 5.3377 32.3488 5.3377C31.814 5.3377 31.3971 5.53889 31.0997 5.93983C30.7961 6.34727 30.659 6.89476 30.685 7.58228H28.3901C28.3496 6.29263 28.6894 5.26786 29.4062 4.51195C30.122 3.75567 31.1037 3.375 32.3698 3.375C33.5418 3.375 34.5004 3.72347 35.2422 4.42185C35.9822 5.11805 36.352 6.01871 36.352 7.11585C36.352 8.02049 36.1425 8.76917 35.7191 9.3608C35.3001 9.95424 34.5062 10.6226 33.3472 11.3626C32.2754 12.0461 31.5441 12.6598 31.1504 13.2073L31.142 13.2265H36.352V15.2894H36.3524ZM42.2709 15.2894H44.5723V12.6703H45.9133V10.8064H44.5723V3.37934H43.2656H41.9564L37.5526 10.6414V11.651V12.666H42.2665L42.2709 15.2894ZM39.2783 10.8129L39.3811 10.6504L42.2683 5.85407V10.8151H39.278V10.8129H39.2783Z" fill="#0D4862"/>
</svg>
