<svg width="60" height="60" viewBox="0 0 60 60" fill="none" xmlns="http://www.w3.org/2000/svg">
<path d="M11.5526 43.6901C11.9944 43.6901 12.3526 43.3319 12.3526 42.8901C12.3526 42.4483 11.9944 42.0901 11.5526 42.0901C11.1108 42.0901 10.7526 42.4483 10.7526 42.8901C10.7526 43.3319 11.1108 43.6901 11.5526 43.6901Z" fill="#0D4862"/>
<path d="M46.7526 17.1924C47.1948 17.1924 47.5526 16.8342 47.5526 16.3924V15.2604C47.5526 14.8186 47.1948 14.4604 46.7526 14.4604C46.3104 14.4604 45.9526 14.8186 45.9526 15.2604V16.3924C45.9526 16.8342 46.3104 17.1924 46.7526 17.1924Z" fill="#0D4862"/>
<path d="M46.7526 21.7198C47.1948 21.7198 47.5526 21.3616 47.5526 20.9198V19.7878C47.5526 19.346 47.1948 18.9878 46.7526 18.9878C46.3104 18.9878 45.9526 19.346 45.9526 19.7878V20.9198C45.9526 21.3616 46.3104 21.7198 46.7526 21.7198Z" fill="#0D4862"/>
<path d="M43.9228 18.89H45.0548C45.497 18.89 45.8548 18.5318 45.8548 18.09C45.8548 17.6482 45.497 17.29 45.0548 17.29H43.9228C43.4806 17.29 43.1228 17.6482 43.1228 18.09C43.1228 18.5318 43.4806 18.89 43.9228 18.89Z" fill="#0D4862"/>
<path d="M48.4502 18.89H49.5822C50.0244 18.89 50.3822 18.5318 50.3822 18.09C50.3822 17.6482 50.0244 17.29 49.5822 17.29H48.4502C48.008 17.29 47.6502 17.6482 47.6502 18.09C47.6502 18.5318 48.008 18.89 48.4502 18.89Z" fill="#0D4862"/>
<path d="M53.0846 33.6209C52.9034 33.3807 52.6002 33.2631 52.3042 33.3147C52.2058 33.3323 49.8088 33.7163 47.0816 31.2651C43.9394 28.4425 42.3276 27.6425 42.2612 27.6097C42.2396 27.5991 42.0554 27.5115 41.6814 27.3739C41.7368 25.8693 41.5482 24.5263 41.0956 23.3929C39.7074 19.9221 40.2378 14.3835 40.3332 13.5069C41.209 12.1225 41.9528 10.2057 41.9528 7.69009C41.9528 7.38889 41.7818 7.11429 41.513 6.97789C41.2442 6.84269 40.9208 6.86969 40.6762 7.04749C40.5566 7.13509 37.6824 9.18149 32.5722 7.72089C26.9292 6.10849 24.455 6.09009 24.3526 6.09009C24.2502 6.09009 21.776 6.10849 16.133 7.72089C11.022 9.18069 8.1486 7.13489 8.0322 7.05009C7.79 6.86849 7.465 6.83829 7.1946 6.97429C6.9236 7.10989 6.7524 7.38669 6.7524 7.68989C6.7524 10.2055 7.4962 12.1223 8.372 13.5067C8.4674 14.3833 8.9978 19.9219 7.6096 23.3927C6.2002 26.9169 7.6056 31.4361 8.1908 33.0275C7.5838 33.6193 6.7526 34.8717 6.7526 37.2899C6.7526 37.5661 6.8964 37.8219 7.1308 37.9681C7.366 38.1145 7.659 38.1299 7.9074 38.0067C7.9378 37.9923 10.9964 36.5353 16.2394 37.2817C19.9936 37.8179 22.3128 37.9979 23.4658 38.0585C23.29 38.7939 23.1876 39.4507 23.1378 39.8915C22.5144 40.1373 21.6168 40.7443 20.887 42.2419C20.766 42.4895 20.783 42.7821 20.9292 43.0161C21.0752 43.2497 21.3338 43.3919 21.6096 43.3923C21.633 43.3923 23.9932 43.4181 27.0588 45.4959C30.4134 47.7681 31.9792 48.5389 32.044 48.5705C32.1096 48.6021 33.6816 49.3607 37.537 50.6029C41.062 51.7389 42.5362 53.5815 42.548 53.5963C42.7004 53.7951 42.9356 53.9099 43.1832 53.9099C43.2098 53.9099 43.2364 53.9087 43.2628 53.9059C43.5386 53.8781 43.7808 53.7099 43.9018 53.4605C44.633 51.9625 44.558 50.8813 44.3674 50.2387C45.326 49.2985 47.5284 46.8641 47.7244 44.1841C47.9112 41.6353 49.8704 38.3809 50.2682 37.7439C51.2822 37.1075 52.3714 36.0865 53.1682 34.4517C53.2994 34.1815 53.265 33.8613 53.0846 33.6209ZM16.4658 35.6983C12.669 35.1561 9.9212 35.6737 8.4416 36.1127C8.7096 34.4849 9.4862 34.0201 9.5104 34.0057C9.88939 33.8163 10.055 33.3643 9.8878 32.9749C9.8652 32.9221 7.6354 27.6373 9.0956 23.9873C10.137 21.3833 10.219 17.8955 10.1276 15.5955C10.6776 16.0915 11.0878 16.3439 11.1408 16.3759C11.4868 16.5829 11.9346 16.5009 12.183 16.1821C12.4314 15.8637 12.404 15.4099 12.1182 15.1243L9.9002 12.9063C9.2604 11.9673 8.6642 10.6961 8.4432 9.06089C9.9814 9.69329 12.765 10.3481 16.5722 9.25889C21.9526 7.72169 24.3316 7.68969 24.3504 7.68969C24.3738 7.68969 26.7528 7.72169 32.1332 9.25889C35.9418 10.3467 38.7262 9.69329 40.2636 9.06009C40.0472 10.6801 39.4676 11.9391 38.8386 12.8723L36.587 15.1243C36.301 15.4099 36.2738 15.8637 36.5222 16.1821C36.769 16.5009 37.2176 16.5829 37.5644 16.3759C37.6176 16.3439 38.0276 16.0915 38.5776 15.5955C38.4862 17.8955 38.5682 21.3833 39.6096 23.9869C39.9362 24.8043 40.093 25.7775 40.094 26.8745C39.1936 26.6271 37.9846 26.3429 36.412 26.0643C32.7988 25.4249 31.6284 23.3029 31.583 23.2189C31.4454 22.9493 31.1962 22.8037 30.8634 22.7837C30.5602 22.7869 30.2852 22.9607 30.1524 23.2333C29.3556 24.8669 29.222 26.3533 29.3446 27.5439C29.0906 28.2459 27.7384 31.7943 25.8392 33.5165C24.9544 34.3191 24.3634 35.4037 23.9542 36.4787C23.073 36.4445 20.6834 36.3009 16.4658 35.6983ZM49.2416 36.4975L47.115 37.2307C46.733 37.3623 46.5096 37.7581 46.5932 38.1533C46.6776 38.5483 47.0472 38.8251 47.4456 38.7837C47.4752 38.7813 47.6332 38.7657 47.8832 38.7145C47.1348 40.1763 46.2636 42.2293 46.1292 44.0673C45.9316 46.7641 42.9152 49.4091 42.8846 49.4353C42.5846 49.6959 42.5408 50.1673 42.755 50.5017C42.7682 50.5227 42.994 50.8907 42.8488 51.6567C41.9504 50.8961 40.3934 49.8423 38.0278 49.0801C34.338 47.8911 32.7888 47.1527 32.7458 47.1321C32.7044 47.1117 31.1692 46.3473 27.956 44.1711C25.899 42.7769 24.1092 42.1997 22.9568 41.9605C23.4686 41.3749 23.8912 41.3261 23.8936 41.3245C24.317 41.3203 24.6632 40.9867 24.685 40.5643C24.6866 40.5241 24.9116 36.5183 26.9146 34.7015C28.2802 33.4629 29.36 31.5109 30.0506 30.0211C30.1638 30.2501 30.2498 30.3843 30.2662 30.4093C30.4858 30.7475 30.9216 30.8703 31.288 30.6917C31.6504 30.5143 31.8248 30.0941 31.6926 29.7121L30.9606 27.5895C30.8676 26.9153 30.8746 26.0969 31.1192 25.1845C32.006 26.0721 33.5786 27.1877 36.1324 27.6399C40.0238 28.3285 41.548 29.0423 41.5566 29.0461C41.5714 29.0535 43.073 29.8145 46.0128 32.4555C47.9424 34.1887 49.7902 34.7407 51.0354 34.8919C50.4682 35.6463 49.8284 36.1553 49.2416 36.4975Z" fill="#0D4862"/>
<path d="M17.5526 46.0901C16.0088 46.0901 14.7526 47.3463 14.7526 48.8901C14.7526 50.4339 16.0088 51.6901 17.5526 51.6901C19.0964 51.6901 20.3526 50.4339 20.3526 48.8901C20.3526 47.3463 19.0964 46.0901 17.5526 46.0901ZM17.5526 50.0901C16.8908 50.0901 16.3526 49.5519 16.3526 48.8901C16.3526 48.2283 16.8908 47.6901 17.5526 47.6901C18.2144 47.6901 18.7526 48.2283 18.7526 48.8901C18.7526 49.5519 18.2142 50.0901 17.5526 50.0901Z" fill="#0D4862"/>
<path d="M12.6666 21.3549C12.262 21.1811 11.7908 21.3701 11.6174 21.7749C11.5128 22.0191 9.08619 27.8003 11.6666 32.1019C11.8166 32.3519 12.0814 32.4901 12.3534 32.4901C12.4932 32.4901 12.6354 32.4533 12.7644 32.3761C13.1434 32.1487 13.266 31.6573 13.0386 31.2785C10.8816 27.6839 13.066 22.4571 13.0886 22.4047C13.2612 21.9983 13.0728 21.5285 12.6666 21.3549Z" fill="#0D4862"/>
<path d="M44.6056 41.3311C44.1822 41.1893 43.7338 41.4183 43.5938 41.8369C43.211 42.9837 41.7484 46.3815 40.0992 46.9311C39.6804 47.0709 39.4538 47.5241 39.5938 47.9433C39.7056 48.2785 40.0172 48.4905 40.3524 48.4905C40.436 48.4905 40.5212 48.4773 40.6056 48.4491C43.3072 47.5487 44.9346 42.8733 45.111 42.3433C45.251 41.9241 45.0244 41.4709 44.6056 41.3311Z" fill="#0D4862"/>
</svg>
