<svg width="48" height="44" viewBox="0 0 48 44" fill="none" xmlns="http://www.w3.org/2000/svg">
<path d="M46.5736 19.3336C46.5792 19.3272 46.5808 19.3184 46.5864 19.3112C48.6336 17.0121 48.434 13.4898 46.14 11.4368L46.1336 11.428L46.1256 11.4216C46.3048 11.1629 46.4632 10.8903 46.5992 10.6064C46.6693 10.4716 46.7312 10.3326 46.7848 10.1904C47.0498 9.49008 47.1903 8.74878 47.2 8.00002C47.1965 4.68778 44.5123 2.00355 41.2 2.00002C41.056 2.00002 40.9032 2.00882 40.7504 2.01762C40.6104 2.02802 40.4792 2.04562 40.36 2.06322C40.029 2.10675 39.7024 2.17902 39.384 2.27922L39.3736 2.26642C39.3736 2.26642 39.3656 2.26162 39.3624 2.25762C37.5324 0.206909 34.4783 -0.198395 32.1768 1.30402C32.1536 1.31682 32.128 1.31842 32.1056 1.33362C32.0832 1.34882 32.0528 1.37522 32.0256 1.39442C32.0184 1.39922 32.0104 1.40242 32.004 1.40722C31.7331 1.21577 31.4446 1.05049 31.1424 0.913624C29.6773 0.238842 27.9925 0.228558 26.5193 0.885407C25.0461 1.54226 23.9276 2.80244 23.4504 4.34322C20.86 1.78696 17.3578 0.368253 13.7186 0.400983C10.0794 0.433713 6.60323 1.91518 4.05921 4.51762C-1.34733 10.0188 -1.34733 18.838 4.05921 24.3392L22.7592 43.2544C23.058 43.5481 23.4883 43.6647 23.8944 43.5621C24.3006 43.4594 24.6238 43.1524 24.7472 42.752C24.7552 42.7576 24.7616 42.7648 24.7696 42.7712C25.9765 43.7 27.6065 43.8616 28.9723 43.1881C30.3381 42.5145 31.2021 41.1229 31.2 39.6C34.2912 39.5961 36.796 37.0912 36.8 34C39.8912 33.9961 42.396 31.4912 42.4 28.4V28.3432C42.4184 28.3432 42.4368 28.3352 42.4552 28.3328C42.4736 28.3304 42.4968 28.3328 42.5192 28.3272C42.5416 28.3216 42.5456 28.3152 42.5608 28.312C45.2397 27.8435 47.1956 25.5195 47.2 22.8C47.1998 22.6178 47.1905 22.4357 47.172 22.2544C47.1143 21.6653 46.9642 21.0889 46.7272 20.5464C46.5878 20.2418 46.4288 19.9465 46.2512 19.6624C46.336 19.5824 46.4112 19.4952 46.4912 19.4104C46.5176 19.3832 46.5488 19.36 46.5736 19.3336ZM23.2 41.4248L5.20001 23.2144C0.406487 18.3375 0.406487 10.5185 5.20001 5.64162C7.47621 3.31251 10.5953 1.99949 13.852 1.99949C17.1087 1.99949 20.2278 3.31251 22.504 5.64162L23.2016 6.34882V41.4248H23.2ZM45.2656 21.2C45.4327 21.5864 45.5387 21.9963 45.58 22.4152V22.4256C45.5929 22.55 45.5996 22.675 45.6 22.8C45.5954 23.866 45.1673 24.8864 44.41 25.6366C43.6527 26.3868 42.6284 26.8053 41.5624 26.8C39.9428 26.7896 38.492 25.796 37.8968 24.2896C38.9735 24.0581 39.9371 23.4618 40.6248 22.6016C40.9009 22.2566 40.8451 21.753 40.5 21.4768C40.1549 21.2007 39.6514 21.2566 39.3752 21.6016C38.2713 22.9811 36.2584 23.2049 34.8784 22.1016C34.5331 21.8255 34.0294 21.8815 33.7532 22.2268C33.4771 22.5721 33.5331 23.0759 33.8784 23.352C34.5552 23.891 35.3662 24.2353 36.224 24.348C36.8218 26.4669 38.6144 28.033 40.7944 28.3408C40.7944 28.3624 40.8 28.3816 40.8 28.4032C40.7974 30.6113 39.008 32.4006 36.8 32.4032C36.7096 32.4032 36.64 32.3864 36.552 32.3816C36.0713 30.8164 34.9363 29.5362 33.44 28.8712C34.0635 28.0439 34.4005 27.036 34.4 26C34.4 25.5582 34.0418 25.2 33.6 25.2C33.1582 25.2 32.8 25.5582 32.8 26C32.8 27.7673 31.3673 29.2 29.6 29.2C29.1582 29.2 28.8 29.5582 28.8 30C28.8 30.4419 29.1582 30.8 29.6 30.8C30.4687 30.7995 31.3207 30.5616 32.064 30.112C34.0555 30.5492 35.3972 32.4173 35.1752 34.4441C34.9531 36.4709 33.2389 38.0044 31.2 38C30.9687 37.9971 30.7381 37.9752 30.5104 37.9344C29.9676 37.8417 29.4499 37.6371 28.9904 37.3336C28.6224 37.0891 28.1258 37.1892 27.8812 37.5572C27.6367 37.9253 27.7368 38.4219 28.1048 38.6664C28.5614 38.9704 29.0604 39.2052 29.5856 39.3632C29.5928 39.4432 29.6016 39.5184 29.6016 39.6032C29.6038 40.5187 29.0838 41.3552 28.262 41.7584C27.4401 42.1617 26.4603 42.0611 25.7376 41.4992C25.1406 41.0515 24.7924 40.3462 24.8 39.6V6.00002C24.7994 4.63485 25.495 3.36362 26.6451 2.62817C27.7953 1.89273 29.2411 1.79465 30.48 2.36802C30.5918 2.42275 30.7007 2.48309 30.8064 2.54882C30.1715 3.35077 29.7696 4.31202 29.6448 5.32722C29.0772 5.45034 28.5558 5.73125 28.1408 6.13762C27.9328 6.33848 27.8494 6.63593 27.9226 6.91563C27.9959 7.19533 28.2143 7.41377 28.494 7.48698C28.7737 7.56019 29.0711 7.47679 29.272 7.26883C29.9049 6.66417 30.9015 6.66417 31.5344 7.26883C31.7353 7.47679 32.0327 7.56019 32.3124 7.48698C32.5921 7.41377 32.8106 7.19533 32.8838 6.91563C32.957 6.63593 32.8736 6.33848 32.6656 6.13762C32.2755 5.75669 31.7908 5.48662 31.2616 5.35522C31.4074 4.45804 31.8557 3.63771 32.532 3.03042L32.5408 3.02482C33.2691 2.36479 34.2171 1.99948 35.2 2.00002C37.4064 2.00661 39.1934 3.79362 39.2 6.00002C39.2 6.44185 39.5582 6.80002 40 6.80002C40.4418 6.80002 40.8 6.44185 40.8 6.00002C40.7988 5.20747 40.6289 4.42424 40.3016 3.70242C40.3944 3.68402 40.4856 3.66002 40.5808 3.64802C40.676 3.63602 40.7664 3.62002 40.856 3.61442C40.9688 3.60722 41.0872 3.60002 41.2 3.60002C43.6288 3.60311 45.5969 5.57125 45.6 8.00002C45.591 8.56493 45.4827 9.12384 45.28 9.65123C45.244 9.74086 45.2032 9.82845 45.1576 9.91362C45.0514 10.1314 44.9267 10.3396 44.7848 10.536C43.1957 9.77996 41.3416 9.82601 39.792 10.66C39.1419 10.2298 38.3796 10.0003 37.6 10C37.1582 10 36.8 10.3582 36.8 10.8C36.8 11.2419 37.1582 11.6 37.6 11.6C38.9255 11.6 40 12.6745 40 14C40 14.4419 40.3582 14.8 40.8 14.8C41.2418 14.8 41.6 14.4419 41.6 14C41.5978 13.2494 41.3825 12.5147 40.9792 11.8816C42.3531 11.3747 43.8933 11.6421 45.016 12.5824C45.8405 13.2917 46.3387 14.3077 46.3946 15.3939C46.4506 16.4801 46.0593 17.5418 45.312 18.332C45.202 18.4486 45.0853 18.5587 44.9624 18.6616C44.9056 18.7088 44.8464 18.7544 44.7872 18.7992C44.2813 19.1804 43.692 19.4359 43.068 19.5448C42.6582 19.6141 42.3697 19.9857 42.4041 20.3999C42.4386 20.8141 42.7844 21.1329 43.2 21.1336C43.2445 21.1338 43.289 21.1301 43.3328 21.1224C43.8853 21.025 44.4199 20.8445 44.9184 20.5872C45.068 20.8368 45.2224 21.1096 45.2656 21.2Z" fill="#0D4862"/>
<path d="M32.8 13.2C29.7089 13.2039 27.204 15.7088 27.2 18.8C27.2 19.2418 27.5582 19.6 28 19.6C28.4418 19.6 28.8 19.2418 28.8 18.8C28.8027 16.5919 30.592 14.8026 32.8 14.8C33.2418 14.8 33.6 14.4418 33.6 14C33.6 13.5581 33.2418 13.2 32.8 13.2Z" fill="#0D4862"/>
<path d="M13.8496 3.60011C11.0176 3.59644 8.30487 4.73955 6.32959 6.76891C4.42636 8.69511 3.31183 11.2632 3.20479 13.9689C3.19636 14.1813 3.27276 14.3882 3.41714 14.5442C3.56153 14.7001 3.76202 14.7922 3.97439 14.8001H4.00879C4.43783 14.8005 4.79077 14.4624 4.80879 14.0337C4.90002 11.7257 5.85078 9.53507 7.47439 7.89211C9.14867 6.17058 11.4482 5.1996 13.8496 5.20011C14.2914 5.20011 14.6496 4.84193 14.6496 4.40011C14.6496 3.95828 14.2914 3.60011 13.8496 3.60011Z" fill="#0D4862"/>
<path d="M5.152 16.9832C5.0822 16.6995 4.86328 16.4764 4.58093 16.4012C4.29857 16.3261 3.9977 16.4108 3.7961 16.6223C3.59449 16.8338 3.52422 17.1384 3.6128 17.4168C3.69493 17.7085 3.78933 17.9968 3.896 18.2816C4.01328 18.5935 4.31159 18.8 4.6448 18.8C4.74088 18.7997 4.83617 18.7826 4.9264 18.7496C5.12518 18.6749 5.28612 18.5243 5.37376 18.3308C5.46139 18.1374 5.46853 17.9171 5.3936 17.7184C5.3024 17.4768 5.2224 17.2304 5.152 16.9832Z" fill="#0D4862"/>
</svg>
