<svg width="48" height="48" viewBox="0 0 48 48" fill="none" xmlns="http://www.w3.org/2000/svg">
<g clip-path="url(#clip0_1_368)">
<path d="M22.8078 5.30885H23.3078V5.81349C23.3078 6.20168 23.6155 6.51223 24.0001 6.51223C24.3848 6.51223 24.6925 6.20168 24.6925 5.81349V5.30885H25.1155C25.5001 5.30885 25.8078 4.9983 25.8078 4.61012C25.8078 4.22193 25.5001 3.9502 25.1155 3.9502H24.6155V3.44556C24.6155 3.05737 24.3078 2.74683 23.9232 2.74683C23.5386 2.74683 23.2309 3.05737 23.2309 3.44556V3.9502H22.8078C22.4232 3.9502 22.1155 4.26075 22.1155 4.64894C22.1155 5.03712 22.4232 5.30885 22.8078 5.30885Z" fill="#0D4862"/>
<path d="M13.9232 35.0827C13.1924 35.5873 12.5771 36.2472 12.0386 36.946C11.8078 37.2565 11.8848 37.6835 12.1924 37.8776C12.5001 38.1105 12.9232 38.0329 13.1155 37.7612C13.577 37.1401 14.1155 36.6354 14.6924 36.1696C15.0001 35.9367 15.077 35.5485 14.8463 35.238C14.6155 34.9274 14.2309 34.8498 13.9232 35.0827Z" fill="#0D4862"/>
<path d="M29.6924 31.1232C29.4232 31.0844 29.1155 31.0844 28.8462 31.0844C28.6924 31.0844 28.3462 30.9679 28.3078 30.6186C29.9232 30.5021 32.6924 29.9198 36.3077 27.9013C36.5 27.7848 36.6539 27.5519 36.6539 27.319V16.1004C36.6539 11.7139 35.1923 8.25907 32.3847 6.0076L33.4616 1.85401C33.5385 1.46582 33.3462 1 32.8077 1H15.1156C14.731 1 14.3464 1.34937 14.4617 1.85401C14.731 2.90211 15.5771 6.0076 15.5771 6.0076C12.7694 8.22025 11.3079 11.7139 11.3079 16.1004V27.2802C11.3079 27.5131 11.4233 27.746 11.6541 27.8624C15.231 29.9198 18.0002 30.4633 19.654 30.5797C19.6155 30.8515 19.3848 31.0456 19.1156 31.0456C18.8079 31.0456 18.2309 31.0844 18.1925 31.0844C12.3079 31.5502 7.96179 36.4413 8.00025 42.2641V46.3013C8.00025 46.6894 8.30794 46.9612 8.69256 47H39.3077C39.6923 47 39.9615 46.6894 40 46.3013V42.303C39.9615 38.3435 37.2693 31.7443 29.6924 31.1232ZM23.9617 36.092L19.8079 32.2878C20.5386 32.016 21.0002 31.3173 21.0002 30.5021V29.2599C22.9232 29.9198 25.0386 29.9198 26.9616 29.2599V30.5021C26.9616 31.2785 27.4232 31.9772 28.1539 32.2878L23.9617 36.092ZM15.8079 16.6051C20.7309 16.1392 24.4232 14.7806 27.077 12.4515L27.1155 12.4903C28.6155 14.47 29.6155 15.8287 32.1924 16.411V20.1376C32.1924 24.6793 28.5386 28.4059 24.0001 28.4059C19.4617 28.4059 15.8079 24.7181 15.8079 20.1376V16.6051ZM28.3078 29.2211V28.6776C31.5001 27.0473 33.5001 23.7477 33.5001 20.1376V16.6439C34.0385 16.7215 34.6154 16.7603 35.3077 16.7603V26.892C32.1539 28.6 29.7309 29.1046 28.3078 29.2211ZM31.9231 2.35865L30.3078 8.45316C28.2693 7.67679 26.154 7.24979 23.9617 7.24979C21.8078 7.24979 19.654 7.67679 17.6156 8.45316L16.0002 2.35865H31.9231ZM15.9617 7.44388L16.5386 9.54008C16.654 9.88945 17.0771 10.1612 17.4617 9.96709C19.5002 9.07426 21.7309 8.56962 23.9617 8.56962C26.1924 8.60844 28.4232 9.07426 30.4616 9.96709C30.9232 10.1612 31.3078 9.81181 31.3847 9.54008L31.9616 7.44388C34 9.30717 35.1154 12.0245 35.2693 15.4017C32.1924 15.4017 30.3078 15.0135 27.6539 11.054C27.5001 10.8211 27.0386 10.627 26.654 10.9764C23.7694 13.8878 19.154 15.3241 12.6541 15.4017C12.8079 12.0245 13.9233 9.30717 15.9617 7.44388ZM12.6541 16.7603C13.2694 16.7603 13.8848 16.7215 14.4617 16.7215V20.1764C14.4617 23.7865 16.4617 27.0861 19.654 28.7165V29.2599C18.1925 29.1435 15.8079 28.6388 12.6541 26.892V16.7603ZM9.30794 42.303C9.30794 37.2954 13.0387 33.0641 18.0002 32.5207L22.9617 37.0624L21.3463 38.5764C21.1925 38.6928 21.1155 38.8869 21.1155 39.081V45.6802H9.30794V42.303ZM38.6154 45.6413H22.4617V39.3527L29.9232 32.5207H29.9616H30.0001C30.6155 32.5983 31.1924 32.7148 31.7693 32.9089H31.8078C35.8846 34.1899 38.6539 37.9941 38.6539 42.303L38.6154 45.6413Z" fill="#0D4862"/>
<path d="M32.6539 39.1199H29.1924C28.8078 39.1199 28.5001 39.4304 28.5001 39.8186C28.5001 40.2068 28.8078 40.5173 29.1924 40.5173H32.6539C33.0385 40.5173 33.3462 40.2068 33.3462 39.8186C33.3462 39.4304 33.0001 39.1199 32.6539 39.1199Z" fill="#0D4862"/>
</g>
<defs>
<clipPath id="clip0_1_368">
<rect width="32" height="46" fill="white" transform="translate(8 1)"/>
</clipPath>
</defs>
</svg>
