<svg width="31" height="70" viewBox="0 0 31 70" fill="none" xmlns="http://www.w3.org/2000/svg">
<g clip-path="url(#clip0_1_131)">
<path fill-rule="evenodd" clip-rule="evenodd" d="M22.7071 29.3431L16.3431 35.7071C15.9526 36.0976 15.3195 36.0976 14.9289 35.7071L8.56497 29.3431C8.17445 28.9526 8.17445 28.3195 8.56497 27.9289C8.9555 27.5384 9.58866 27.5384 9.97919 27.9289L14.636 32.5858L14.636 12C14.636 11.4477 15.0838 11 15.636 11C16.1883 11 16.636 11.4477 16.636 12L16.636 32.5858L21.2929 27.9289C21.6834 27.5384 22.3166 27.5384 22.7071 27.9289C23.0976 28.3195 23.0976 28.9526 22.7071 29.3431Z" fill="white"/>
<rect x="1" y="1" width="29" height="68" rx="14.5" stroke="white" stroke-width="2"/>
</g>
<defs>
<clipPath id="clip0_1_131">
<rect width="31" height="70" fill="white"/>
</clipPath>
</defs>
</svg>
