<svg width="41" height="40" viewBox="0 0 41 40" fill="none" xmlns="http://www.w3.org/2000/svg">
<path fill-rule="evenodd" clip-rule="evenodd" d="M6.41369 0H34.0863C37.4903 0 40.25 2.7596 40.25 6.16369V33.8363C40.25 37.2403 37.4903 40 34.0863 40H6.41369C3.0096 40 0.25 37.2403 0.25 33.8363V6.16369C0.25 2.7596 3.0096 0 6.41369 0Z" fill="#55ABCA"/>
<path fill-rule="evenodd" clip-rule="evenodd" d="M19.9144 28.0013H21.5506C21.5506 28.0013 22.0447 27.9468 22.2974 27.675C22.5296 27.4251 22.5222 26.9563 22.5222 26.9563C22.5222 26.9563 22.4902 24.7608 23.509 24.4375C24.5137 24.1188 25.8036 26.5593 27.1706 27.4978C28.2045 28.2078 28.9901 28.0524 28.9901 28.0524L32.6459 28.0013C32.6459 28.0013 34.5582 27.8833 33.6514 26.3797C33.5772 26.2569 33.1231 25.2675 30.9331 23.2348C28.6407 21.1071 28.948 21.4514 31.7092 17.7711C33.3908 15.5298 34.063 14.1616 33.8529 13.5756C33.6528 13.0173 32.4159 13.1648 32.4159 13.1648L28.2998 13.1902C28.2998 13.1902 27.9944 13.1487 27.7683 13.284C27.5471 13.4163 27.4051 13.7256 27.4051 13.7256C27.4051 13.7256 26.7533 15.4598 25.8848 16.935C24.052 20.0472 23.319 20.2119 23.0194 20.0183C22.3223 19.5679 22.4965 18.2091 22.4965 17.2435C22.4965 14.2273 22.954 12.9697 21.6057 12.6442C21.1583 12.5363 20.8287 12.4648 19.6844 12.4532C18.2156 12.4382 16.9728 12.4577 16.2689 12.8025C15.8006 13.0318 15.4394 13.5427 15.6595 13.5721C15.9316 13.6084 16.5476 13.7384 16.8742 14.1828C17.2961 14.7568 17.2814 16.0454 17.2814 16.0454C17.2814 16.0454 17.5238 19.5959 16.7153 20.0368C16.1606 20.3393 15.3995 19.7218 13.7654 16.8982C12.9283 15.4519 12.296 13.853 12.296 13.853C12.296 13.853 12.1743 13.5543 11.9568 13.3944C11.6931 13.2006 11.3245 13.1392 11.3245 13.1392L7.41302 13.1648C7.41302 13.1648 6.82598 13.1811 6.61024 13.4365C6.41832 13.6638 6.59492 14.1333 6.59492 14.1333C6.59492 14.1333 9.657 21.2976 13.1245 24.908C16.3043 28.2186 19.9144 28.0013 19.9144 28.0013Z" fill="white"/>
</svg>
