<svg width="235" height="498" viewBox="0 0 235 498" fill="none" xmlns="http://www.w3.org/2000/svg">
<path d="M131.333 0.408071C63.5258 -7.48701 -22.3275 100.021 22.0654 249.757C34.9507 293.19 61.1171 319.096 89.8064 331.059C119.377 343.39 151.628 340.908 174.779 327.535C227.563 297.037 253.549 181.995 217.954 129.978C200.63 104.668 179.561 104.668 171.891 77.825C167.29 61.8092 175.455 5.50604 131.333 0.408071Z" fill="#F7FAFC"/>
<path d="M131.333 0.408071C63.5258 -7.48701 -22.3275 100.021 22.0654 249.757C34.9507 293.19 61.1171 319.096 89.8064 331.059C119.377 343.39 151.628 340.908 174.779 327.535C227.563 297.037 253.549 181.995 217.954 129.978C200.63 104.668 179.561 104.668 171.891 77.825C167.29 61.8092 175.455 5.50604 131.333 0.408071Z" fill="#F7FAFC"/>
<path d="M87.6113 326.55C90.8596 292.849 52.4669 258.472 52.4669 239.704C52.4669 220.936 83.6412 160.843 64.7382 127.053C54.024 107.855 30.6989 111.407 14.3064 122C6.9761 173.809 24.8064 304 87.0609 330.5C87.2993 329.187 87.4841 327.869 87.6113 326.55Z" fill="url(#paint0_linear_101_11)"/>
<path d="M143.993 496.725C143.677 496.725 143.316 496.635 143 496.5C141.872 495.958 141.376 494.56 141.917 493.432C168.67 437.67 136.341 365.567 125.288 275.112C117.077 207.846 108.595 138.279 115.543 78.0956C115.678 76.8324 116.851 75.9301 118.069 76.0654C119.333 76.2008 120.235 77.3738 120.1 78.5919C113.197 138.234 121.679 207.53 129.844 274.525C140.943 365.657 173.362 438.437 146.023 495.372C145.662 496.229 144.85 496.725 143.993 496.725Z" fill="#C4DCEB"/>
<path d="M117.122 177.619C116.626 177.619 116.084 177.438 115.633 177.077L47.6002 120.729C46.6076 119.917 46.4723 118.473 47.2844 117.481C48.0965 116.488 49.5401 116.353 50.5326 117.165L118.566 173.513C119.558 174.325 119.694 175.769 118.881 176.761C118.43 177.348 117.799 177.619 117.122 177.619Z" fill="#C4DCEB"/>
<path d="M125.874 253.592C125.198 253.592 124.566 253.321 124.07 252.735C123.258 251.742 123.393 250.299 124.386 249.487L206.675 182.356C207.667 181.544 209.111 181.679 209.923 182.672C210.735 183.664 210.6 185.108 209.607 185.92L127.363 253.051C126.912 253.457 126.416 253.592 125.874 253.592Z" fill="#C4DCEB"/>
<path d="M130.07 297.398C129.89 297.398 129.664 297.353 129.483 297.308L79.3159 283.909C78.0978 283.593 77.3761 282.33 77.6919 281.112C78.0077 279.894 79.2709 279.172 80.4889 279.488L130.657 292.887C131.875 293.203 132.596 294.466 132.281 295.684C132.01 296.721 131.063 297.398 130.07 297.398Z" fill="#C4DCEB"/>
<path d="M183.576 206.537C182.403 206.537 181.365 205.635 181.275 204.417L176.764 148.655C176.674 147.392 177.621 146.264 178.884 146.174C180.147 146.084 181.275 147.031 181.365 148.294L185.877 204.056C185.967 205.319 185.02 206.447 183.757 206.537C183.711 206.492 183.621 206.537 183.576 206.537Z" fill="#C4DCEB"/>
<path d="M-4.46222 139.407C-39.9675 180.641 -17.4101 251.426 -19.0793 277.503C-20.7035 303.579 -47.9077 333.806 -29.8167 360.784C-11.7257 387.763 16.877 395.117 25.0428 400.034C33.2085 404.952 74.0825 372.605 77.3308 338.904C80.5791 305.203 42.1864 270.826 42.1864 252.058C42.1864 233.29 73.3607 173.197 54.4577 139.407C41.239 115.721 11.8693 120.413 -4.46222 139.407Z" fill="#F7FAFC"/>
<path d="M18.376 497.718C18.2406 497.718 18.1053 497.718 18.015 497.673C17.1128 497.448 16.5714 496.59 16.797 495.688C16.9774 494.966 24.4563 434.818 23.4638 400.08C23.1931 390.515 22.1104 376.845 20.7569 359.567C17.0575 313.008 11.5084 242.674 14.6664 163.814C14.7116 162.911 15.4785 162.19 16.3808 162.235C17.2831 162.28 18.005 163.047 17.9598 163.949C14.8018 242.629 20.351 312.873 24.0053 359.296C25.3587 376.62 26.4414 390.335 26.7572 399.989C27.7497 435.179 20.1805 495.733 20.0001 496.5C19.7745 497.177 19.0978 497.718 18.376 497.718Z" fill="#C4DCEB"/>
<defs>
<linearGradient id="paint0_linear_101_11" x1="40.0001" y1="113" x2="85.0001" y2="341" gradientUnits="userSpaceOnUse">
<stop stop-color="#C4DCEB"/>
<stop offset="1" stop-color="#C4DCEB" stop-opacity="0"/>
</linearGradient>
</defs>
</svg>
